<svg width="139" height="40" viewBox="0 0 139 40" fill="none" xmlns="http://www.w3.org/2000/svg">
<g id="Group">
<g id="Group_2">
<path id="Vector" d="M4.30436 35.0955H1.52803V38.0326H0.378792V31.1465H4.78678V32.0683H1.52803V34.1733H4.30436V35.0955Z" fill="#4273DA"/>
<path id="Vector_2" d="M7.8174 31.662H6.66816V30.6545H7.8174V31.662ZM7.8174 38.0324H6.66816V32.915H7.8174V38.0324Z" fill="#4273DA"/>
<path id="Vector_3" d="M11.1129 32.9152L11.1791 33.6529C11.3462 33.3915 11.5567 33.1868 11.8103 33.0403C12.0641 32.8938 12.3503 32.8203 12.6688 32.8203C13.2016 32.8203 13.6171 32.9846 13.9151 33.3122C14.2131 33.6402 14.3619 34.1526 14.3619 34.8495V38.0323H13.2127V34.8588C13.2127 34.4615 13.1354 34.1795 12.9809 34.012C12.8264 33.845 12.5932 33.7612 12.281 33.7612C12.0351 33.7612 11.8223 33.808 11.6425 33.9009C11.4628 33.9937 11.3193 34.1224 11.2122 34.2862V38.032H10.063V32.9145H11.1129V32.9152Z" fill="#4273DA"/>
<path id="Vector_4" d="M19.6108 38.0326C19.5698 37.9035 19.536 37.7774 19.5092 37.6543C19.4824 37.5315 19.4643 37.4084 19.4548 37.2854C19.3003 37.525 19.0937 37.7261 18.8352 37.8885C18.5766 38.0507 18.2881 38.1319 17.9697 38.1319C17.4369 38.1319 17.0277 37.9951 16.7424 37.7205C16.4571 37.4461 16.3144 37.0697 16.3144 36.5901C16.3144 36.0952 16.5099 35.7098 16.9009 35.434C17.2917 35.1585 17.842 35.0201 18.5514 35.0201H19.4453V34.5708C19.4453 34.3029 19.3672 34.0931 19.2112 33.9416C19.0551 33.7905 18.8288 33.7148 18.5326 33.7148C18.2708 33.7148 18.0626 33.7771 17.9082 33.9018C17.7537 34.0265 17.6766 34.1879 17.6766 34.3867L16.5698 34.3911L16.565 34.3628C16.543 33.9592 16.7235 33.6014 17.1066 33.2893C17.4897 32.9771 17.9887 32.8209 18.6034 32.8209C19.1994 32.8209 19.6802 32.972 20.0459 33.275C20.4117 33.5778 20.5947 34.0128 20.5947 34.5801V36.855C20.5947 37.0665 20.6088 37.2691 20.6371 37.463C20.6655 37.6569 20.7113 37.8469 20.7743 38.0326H19.6108ZM18.2062 37.2097C18.4931 37.2097 18.7525 37.1371 18.9842 36.9924C19.2159 36.8472 19.3695 36.6815 19.4453 36.4959V35.7388H18.5326C18.1983 35.7388 17.9365 35.8218 17.7476 35.9874C17.5582 36.1526 17.4636 36.3476 17.4636 36.5711C17.4636 36.7664 17.5274 36.9219 17.6553 37.0371C17.783 37.1521 17.9665 37.2097 18.2062 37.2097Z" fill="#4273DA"/>
<path id="Vector_5" d="M23.8051 32.9152L23.8713 33.6529C24.0384 33.3915 24.2489 33.1868 24.5025 33.0403C24.7563 32.8938 25.0425 32.8203 25.361 32.8203C25.8936 32.8203 26.3093 32.9846 26.6073 33.3122C26.9051 33.6402 27.0539 34.1526 27.0539 34.8495V38.0323H25.9049V34.8588C25.9049 34.4615 25.8275 34.1795 25.6731 34.012C25.5186 33.845 25.2854 33.7612 24.9731 33.7612C24.7273 33.7612 24.5145 33.808 24.3347 33.9009C24.155 33.9937 24.0115 34.1224 23.9044 34.2862V38.032H22.7551V32.9145H23.8051V32.9152Z" fill="#4273DA"/>
<path id="Vector_6" d="M31.305 37.2143C31.5666 37.2143 31.7882 37.1324 31.9694 36.9684C32.1506 36.8044 32.2413 36.5966 32.2413 36.3442H33.2819L33.2913 36.3726C33.3039 36.8516 33.1139 37.2647 32.7215 37.6116C32.3291 37.9586 31.8569 38.1317 31.305 38.1317C30.5672 38.1317 29.9982 37.8882 29.5978 37.4012C29.1975 36.9142 28.997 36.3 28.997 35.559V35.3938C28.997 34.656 29.1975 34.0427 29.5978 33.554C29.9982 33.0652 30.5657 32.8209 31.3003 32.8209C31.8963 32.8209 32.3801 33.0002 32.7523 33.3578C33.1243 33.7157 33.3041 34.1706 33.2914 34.7222L33.2821 34.7506H32.2415C32.2415 34.47 32.1549 34.2319 31.9814 34.0364C31.8079 33.8411 31.5809 33.7431 31.3003 33.7431C30.8904 33.7431 30.5956 33.9013 30.4159 34.2185C30.2361 34.5354 30.1463 34.9269 30.1463 35.3938V35.559C30.1463 36.0351 30.2354 36.43 30.4135 36.744C30.5917 37.0574 30.8889 37.2143 31.305 37.2143Z" fill="#4273DA"/>
<path id="Vector_7" d="M36.4496 31.662H35.3004V30.6545H36.4496V31.662ZM36.4496 38.0324H35.3004V32.915H36.4496V38.0324Z" fill="#4273DA"/>
<path id="Vector_8" d="M41.7884 38.0326C41.7476 37.9035 41.7136 37.7774 41.6868 37.6543C41.6602 37.5315 41.6419 37.4084 41.6324 37.2854C41.4779 37.525 41.2713 37.7261 41.0127 37.8885C40.754 38.0507 40.4657 38.1319 40.1472 38.1319C39.6144 38.1319 39.2051 37.9951 38.9198 37.7205C38.6345 37.4461 38.4918 37.0697 38.4918 36.5901C38.4918 36.0952 38.6873 35.7098 39.0783 35.434C39.4691 35.1585 40.0194 35.0201 40.7288 35.0201H41.6227V34.5708C41.6227 34.3029 41.5446 34.0931 41.3886 33.9416C41.2325 33.7905 41.0062 33.7148 40.7098 33.7148C40.4482 33.7148 40.2399 33.7771 40.0854 33.9018C39.9309 34.0265 39.854 34.1879 39.854 34.3867L38.7472 34.3911L38.7424 34.3628C38.7204 33.9592 38.9009 33.6014 39.284 33.2893C39.6671 32.9771 40.1661 32.8209 40.7808 32.8209C41.3768 32.8209 41.8576 32.972 42.2233 33.275C42.5889 33.5778 42.7719 34.0128 42.7719 34.5801V36.855C42.7719 37.0665 42.786 37.2691 42.8144 37.463C42.8427 37.6569 42.8885 37.8469 42.9516 38.0326H41.7884ZM40.3838 37.2097C40.6707 37.2097 40.9301 37.1371 41.1617 36.9924C41.3934 36.8472 41.5471 36.6815 41.6229 36.4959V35.7388H40.71C40.3759 35.7388 40.1139 35.8218 39.925 35.9874C39.7356 36.1526 39.6412 36.3476 39.6412 36.5711C39.6412 36.7664 39.7048 36.9219 39.8328 37.0371C39.9605 37.1521 40.1441 37.2097 40.3838 37.2097Z" fill="#4273DA"/>
<path id="Vector_9" d="M46.1669 30.6544H45.0177V38.0325H46.1669V30.6544Z" fill="#4273DA"/>
<path id="Vector_10" d="M57.024 37.101C56.8348 37.3689 56.5327 37.6079 56.1183 37.8173C55.7037 38.0271 55.1683 38.1319 54.5127 38.1319C53.6992 38.1319 53.0299 37.8695 52.5052 37.3444C51.9801 36.8194 51.7175 36.1408 51.7175 35.3082V33.8705C51.7175 33.0379 51.9713 32.3594 52.4789 31.8342C52.9865 31.3094 53.6393 31.0468 54.437 31.0468C55.2378 31.0468 55.862 31.2486 56.3098 31.6521C56.7575 32.0556 56.975 32.5824 56.9625 33.232L56.9482 33.2603H55.8559C55.8559 32.8725 55.7352 32.5602 55.4939 32.3239C55.2528 32.0873 54.9067 31.9691 54.4556 31.9691C53.9796 31.9691 53.5956 32.1474 53.3041 32.5033C53.0126 32.8598 52.8668 33.3123 52.8668 33.8608V35.3082C52.8668 35.863 53.0186 36.3194 53.3231 36.6773C53.6273 37.0352 54.0238 37.2141 54.5127 37.2141C54.8815 37.2141 55.1732 37.1724 55.3875 37.0887C55.6019 37.005 55.7645 36.9036 55.8749 36.7838V35.3602H54.4324V34.4992H57.0241V37.101H57.024Z" fill="#4273DA"/>
<path id="Vector_11" d="M61.8282 33.9511L61.3363 33.9324C61.1125 33.9324 60.9256 33.9798 60.7757 34.0744C60.626 34.1688 60.5101 34.303 60.4282 34.4761V38.0327H59.2788V32.9153H60.329L60.4046 33.6578C60.5337 33.3964 60.7003 33.1916 60.9036 33.0433C61.107 32.8948 61.3411 32.8207 61.606 32.8207C61.6752 32.8207 61.74 32.8263 61.7999 32.8374C61.8598 32.8485 61.9149 32.8619 61.9655 32.8777L61.8282 33.9511Z" fill="#4273DA"/>
<path id="Vector_12" d="M63.3405 35.4266C63.3405 34.6636 63.5494 34.0386 63.9671 33.5516C64.3849 33.064 64.9563 32.8208 65.6816 32.8208C66.4162 32.8208 66.9923 33.0644 67.4103 33.5516C67.8277 34.0387 68.0368 34.6635 68.0368 35.4266V35.526C68.0368 36.2953 67.8277 36.922 67.4103 37.406C66.9923 37.89 66.4194 38.1318 65.6907 38.1318C64.9595 38.1318 64.3847 37.8891 63.967 37.4035C63.5492 36.9177 63.3403 36.2918 63.3403 35.526V35.4266H63.3405ZM64.4897 35.526C64.4897 36.0272 64.5875 36.4339 64.783 36.7462C64.9781 37.0583 65.2809 37.2143 65.6907 37.2143C66.0913 37.2143 66.3916 37.0571 66.5918 36.7437C66.7919 36.43 66.8921 36.0241 66.8921 35.526V35.4266C66.8921 34.9382 66.7919 34.5351 66.5918 34.2186C66.3916 33.9014 66.0881 33.7432 65.6814 33.7432C65.2809 33.7432 64.9822 33.9014 64.7851 34.2186C64.588 34.5354 64.4895 34.9382 64.4895 35.4266V35.526H64.4897Z" fill="#4273DA"/>
<path id="Vector_13" d="M73.2007 37.2761C73.0429 37.5505 72.8402 37.7617 72.593 37.91C72.3454 38.0581 72.0596 38.1321 71.7346 38.1321C71.1861 38.1321 70.7571 37.9519 70.448 37.5908C70.1389 37.2298 69.9844 36.6697 69.9844 35.9095V32.9156H71.1289V35.919C71.1289 36.4078 71.1999 36.7429 71.3418 36.924C71.484 37.1052 71.7047 37.1959 72.0039 37.1959C72.2813 37.1959 72.514 37.1464 72.7015 37.0469C72.8891 36.9474 73.0365 36.8032 73.144 36.6142V32.9156H74.2931V38.0331H73.3048L73.2007 37.2761Z" fill="#4273DA"/>
<path id="Vector_14" d="M80.9469 35.644C80.9469 36.3885 80.7718 36.9891 80.4222 37.4458C80.0722 37.9034 79.5851 38.1318 78.9605 38.1318C78.6706 38.1318 78.4136 38.0799 78.1896 37.9758C77.9657 37.8715 77.7736 37.7188 77.6127 37.5172V40.0004H76.4637V32.9151H77.4331L77.5469 33.5585C77.7109 33.3188 77.9088 33.1361 78.1406 33.0097C78.372 32.8837 78.641 32.8207 78.9468 32.8207C79.5773 32.8207 80.0682 33.0708 80.4199 33.5705C80.7713 34.0701 80.9473 34.7282 80.9473 35.545L80.9469 35.644ZM79.8022 35.545C79.8022 35.0214 79.7036 34.5939 79.5067 34.2609C79.3096 33.928 79.0155 33.7619 78.6246 33.7619C78.3849 33.7619 78.1813 33.8133 78.0145 33.9157C77.8474 34.0182 77.7135 34.1612 77.6124 34.3438V36.6566C77.7135 36.8364 77.8474 36.9741 78.0145 37.0705C78.1813 37.1668 78.3879 37.2147 78.6341 37.2147C79.025 37.2147 79.3175 37.0705 79.5113 36.7818C79.7054 36.4933 79.8019 36.1143 79.8019 35.6444L79.8022 35.545Z" fill="#4273DA"/>
</g>
<path id="Vector_15" opacity="0.7" d="M128.741 27.2349C129.816 26.985 130.761 26.4309 131.478 25.6487C132.043 25.0511 132.478 24.3342 132.728 23.5304L133.26 21.9008L138.062 7.10476C138.225 6.58324 138.313 6.15964 138.45 5.61171C139.236 2.4722 137.276 -0.00012207 133.38 -0.00012207H111.461C109.158 -0.00012207 107.191 1.42318 106.377 3.43299C106.333 3.57407 106.279 3.70441 106.235 3.84566L104.063 10.5268L100.901 20.2713C100.738 20.7928 100.651 21.336 100.651 21.9008C100.651 24.1933 102.064 26.1593 104.063 26.9632C104.704 27.2349 106.277 27.376 107.005 27.376H127.502C127.926 27.376 128.35 27.3327 128.741 27.2349Z" fill="url(#paint0_linear_721_5580)"/>
<path id="Vector_16" opacity="0.8" d="M114.949 38.6487C116.024 38.3989 116.97 37.845 117.687 37.0626C118.251 36.4654 118.686 35.7482 118.936 34.9447L119.468 33.3151L124.27 18.5189C124.433 17.9974 124.521 17.5739 124.658 17.0256C125.445 13.8861 123.484 11.414 119.588 11.4138H97.6689C95.366 11.4138 93.3997 12.8369 92.5849 14.8468C92.5414 14.988 92.487 15.1183 92.4435 15.2596L90.271 21.9411L87.1096 31.6851C86.9467 32.2071 86.8599 32.7501 86.8599 33.3151C86.8599 35.6071 88.2719 37.5736 90.271 38.3771C90.9119 38.6487 92.4847 38.7903 93.2128 38.7903H113.711C114.134 38.7901 114.558 38.7466 114.949 38.6487Z" fill="url(#paint1_linear_721_5580)"/>
<g id="Group_3">
<path id="Vector_17" d="M36.7385 3.37219V16.2109L28.4347 3.37219H22.5701V26.7102H28.3465V13.8714L36.6501 26.7102H42.5148V3.37219H36.7385Z" fill="#001F7B"/>
<path id="Vector_18" d="M59.5067 14.2168C60.7954 13.0817 61.6097 11.4199 61.6097 9.56754C61.6097 6.1457 58.836 3.37219 55.4145 3.37219H44.8695V26.7105H57.4562C60.9992 26.7105 63.8713 23.8381 63.8713 20.2952C63.8715 17.4696 62.0438 15.0725 59.5067 14.2168ZM50.6456 8.59443H53.5745C54.5457 8.59443 55.3356 9.38454 55.3356 10.3555C55.3356 11.3265 54.5457 12.1167 53.5745 12.1167H50.6456V8.59443ZM54.9305 21.5558H50.6458V17.1531H54.9305C56.1444 17.1531 57.1319 18.1405 57.1319 19.3543C57.1319 20.5682 56.1444 21.5558 54.9305 21.5558Z" fill="#001F7B"/>
<path id="Vector_19" d="M80.8534 18.2545C79.6763 19.9838 77.5547 21.0183 75.2301 20.6145C72.5626 20.1509 70.6467 17.7816 70.6467 15.0742C70.6467 12.0745 72.9684 9.52714 75.9646 9.38711C77.9955 9.29218 79.8016 10.2827 80.8534 11.8281H87.3339C85.9937 6.95389 81.5326 3.37195 76.2328 3.37195H76.2326C69.8728 3.37195 64.7171 8.5276 64.7171 14.8876V15.1946C64.7171 21.5545 69.8726 26.7105 76.2326 26.7105H76.2328C81.5327 26.7105 85.9937 23.1285 87.3339 18.2543H80.8534V18.2545Z" fill="#001F7B"/>
<path id="Vector_20" d="M9.29751 3.37329H0.433624V26.7116L9.29751 26.7118C15.6575 26.7118 20.813 21.556 20.813 15.196V14.8891C20.8128 8.52894 15.6574 3.37329 9.29751 3.37329ZM14.8833 15.1169C14.8833 18.202 12.3824 20.7028 9.29733 20.7028H6.20978V9.38194H9.29733C12.3824 9.38194 14.8833 11.883 14.8833 14.9679V15.1169Z" fill="#001F7B"/>
<path id="Vector_21" d="M88.5983 7.02497C88.5983 6.38809 88.7457 5.79682 89.0406 5.25153C89.3354 4.7057 89.7438 4.2763 90.2657 3.96244C90.7876 3.64875 91.3512 3.49182 91.9567 3.49182C92.5623 3.49182 93.125 3.64875 93.6453 3.96244C94.1656 4.2763 94.5735 4.70588 94.868 5.25153C95.1628 5.797 95.3102 6.38809 95.3102 7.02497C95.3102 7.64636 95.1685 8.22811 94.8845 8.77042C94.6011 9.31289 94.1983 9.74881 93.6763 10.0784C93.1542 10.4077 92.5811 10.5727 91.9567 10.5727C91.3357 10.5727 90.7642 10.4095 90.2423 10.0831C89.7206 9.75674 89.3157 9.3224 89.0288 8.7801C88.7418 8.2378 88.5983 7.65252 88.5983 7.02497ZM89.1424 7.02268C89.1424 7.56463 89.2685 8.06643 89.5203 8.52806C89.7729 8.9897 90.1157 9.35111 90.5493 9.61266C90.9831 9.87404 91.4519 10.0049 91.9564 10.0049C92.464 10.0049 92.9358 9.87175 93.3707 9.60562C93.8057 9.33931 94.1471 8.97772 94.3947 8.52101C94.6418 8.06396 94.7656 7.56463 94.7656 7.02268C94.7656 6.48373 94.6418 5.98687 94.3947 5.53157C94.1471 5.07628 93.8054 4.71697 93.3707 4.45401C92.9355 4.19088 92.464 4.05931 91.9564 4.05931C91.4519 4.05931 90.9824 4.18929 90.5468 4.44926C90.1116 4.7094 89.7687 5.06941 89.518 5.52928C89.2674 5.98916 89.1424 6.48707 89.1424 7.02268ZM91.2614 7.37987V8.97842H90.5944V4.9625H91.8998C92.3821 4.9625 92.7565 5.06589 93.0232 5.27249C93.2899 5.47909 93.423 5.77939 93.423 6.17339C93.423 6.5614 93.2212 6.85783 92.8175 7.06266C93.2023 7.22048 93.3959 7.54226 93.3994 8.02768V8.31618C93.3994 8.58742 93.4262 8.78292 93.4797 8.90269V8.97842H92.7935C92.7493 8.86482 92.7273 8.66227 92.7273 8.3706C92.7273 8.0791 92.7229 7.90632 92.7132 7.85278C92.6628 7.55001 92.4561 7.39238 92.0936 7.37987H91.2614ZM91.2614 6.77434H91.999C92.2262 6.768 92.409 6.71305 92.5478 6.60948C92.6864 6.50574 92.7558 6.36924 92.7558 6.19945C92.7558 5.97013 92.6944 5.80757 92.5714 5.71176C92.4485 5.61594 92.2292 5.56821 91.9141 5.56821H91.2615V6.77434H91.2614Z" fill="#001F7B"/>
</g>
</g>
<defs>
<linearGradient id="paint0_linear_721_5580" x1="100.464" y1="13.6879" x2="135.413" y2="13.6879" gradientUnits="userSpaceOnUse">
<stop stop-color="#46B2FD"/>
<stop offset="0.2154" stop-color="#5DC7FD"/>
<stop offset="0.513" stop-color="#76DEFD"/>
<stop offset="0.7833" stop-color="#86ECFD"/>
<stop offset="1" stop-color="#8BF1FD"/>
</linearGradient>
<linearGradient id="paint1_linear_721_5580" x1="86.6722" y1="25.102" x2="121.621" y2="25.102" gradientUnits="userSpaceOnUse">
<stop stop-color="#0641CB"/>
<stop offset="0.2078" stop-color="#1C5DD6"/>
<stop offset="1" stop-color="#6FC3FD"/>
</linearGradient>
</defs>
</svg>
