<svg width="100" height="29" viewBox="0 0 100 29" fill="none" xmlns="http://www.w3.org/2000/svg">
<path d="M26.3006 2.4458V11.7536L20.2934 2.4458H16.0508V19.3657H20.2297V10.0578L26.2356 19.3657H30.4783V2.4458H26.3006Z" fill="white"/>
<path d="M42.7704 10.3081C43.703 9.48446 44.2916 8.28028 44.2916 6.93691C44.2916 4.45575 42.285 2.4458 39.8107 2.4458H32.1816V19.3669H41.2861C43.8495 19.3669 45.9262 17.2842 45.9262 14.7162C45.9275 12.6667 44.605 10.9287 42.7704 10.3081ZM36.3606 6.23202H38.4793C39.1813 6.23202 39.7534 6.80538 39.7534 7.50899C39.7534 8.2126 39.1813 8.78596 38.4793 8.78596H36.3606V6.23202ZM39.4591 15.6292H36.3606V12.4368H39.4604C40.3382 12.4368 41.0529 13.1532 41.0529 14.033C41.0517 14.9129 40.3382 15.6292 39.4591 15.6292Z" fill="white"/>
<path d="M58.212 13.2347C57.361 14.4887 55.8257 15.2383 54.144 14.9459C52.2137 14.61 50.8288 12.8925 50.8288 10.9285C50.8288 8.75385 52.5081 6.90735 54.6752 6.80519C56.1442 6.73623 57.4514 7.45517 58.212 8.57507H62.8993C61.9298 5.04169 58.7026 2.44434 54.8689 2.44434C50.2683 2.44434 46.5391 6.18203 46.5391 10.7932V11.0154C46.5391 15.6265 50.2683 19.3642 54.8689 19.3642C58.7026 19.3642 61.9298 16.7668 62.8993 13.2335H58.212V13.2347Z" fill="white"/>
<path d="M6.45142 2.4458H0.0390625V19.3669H6.45142C11.0521 19.3669 14.7812 15.6292 14.7812 11.0181V10.7959C14.7812 6.18349 11.0521 2.4458 6.45142 2.4458ZM10.4915 10.9594C10.4915 13.1966 8.6823 15.0086 6.45142 15.0086H4.21799V6.80155H6.45142C8.68358 6.80155 10.4915 8.61485 10.4915 10.8521V10.9594Z" fill="white"/>
<path d="M2.83989 25.444H0.830689V27.574H0V22.5811H3.18898V23.2502H0.830689V24.7762H2.83861V25.444H2.83989Z" fill="white"/>
<path d="M5.38079 22.9545H4.54883V22.2241H5.38079V22.9545ZM5.38079 27.5734H4.54883V23.8638H5.38079V27.5734Z" fill="white"/>
<path d="M7.76325 23.8639L7.81166 24.3989C7.9327 24.2087 8.08431 24.0605 8.26777 23.9545C8.45124 23.8486 8.65891 23.7949 8.88824 23.7949C9.27301 23.7949 9.57369 23.9137 9.79028 24.1512C10.0056 24.3887 10.1139 24.7603 10.1139 25.266V27.5735H9.2832V25.2724C9.2832 24.9838 9.22714 24.7795 9.11503 24.6582C9.00291 24.5368 8.83473 24.4768 8.60922 24.4768C8.43085 24.4768 8.27797 24.51 8.14674 24.5777C8.01678 24.6454 7.91359 24.7386 7.83587 24.8574V27.5735H7.00391V23.8639H7.76325Z" fill="white"/>
<path d="M13.9124 27.5733C13.8831 27.4801 13.8576 27.3881 13.8385 27.2987C13.8194 27.2094 13.8054 27.12 13.799 27.0319C13.6869 27.2055 13.5378 27.3511 13.3505 27.4686C13.1632 27.5861 12.9543 27.6448 12.725 27.6448C12.3389 27.6448 12.0433 27.5452 11.8369 27.346C11.6305 27.1468 11.5273 26.8735 11.5273 26.5262C11.5273 26.1673 11.6688 25.8877 11.9516 25.6872C12.2344 25.4867 12.632 25.3871 13.1454 25.3871H13.7926V25.0615C13.7926 24.8674 13.7366 24.7154 13.6232 24.6056C13.5098 24.4958 13.3467 24.4409 13.1327 24.4409C12.9428 24.4409 12.7925 24.4856 12.6816 24.5762C12.5708 24.6669 12.5135 24.7831 12.5135 24.9274L11.7134 24.9312L11.7095 24.9108C11.693 24.6184 11.8242 24.3592 12.1007 24.1331C12.3771 23.9071 12.739 23.7935 13.1836 23.7935C13.6143 23.7935 13.9621 23.9033 14.2271 24.1229C14.4921 24.3426 14.6246 24.658 14.6246 25.0692V26.719C14.6246 26.8722 14.6348 27.0191 14.6552 27.1596C14.6755 27.3 14.7087 27.4379 14.7545 27.5733H13.9124ZM12.897 26.9769C13.1046 26.9769 13.2919 26.9246 13.4601 26.8186C13.6283 26.7139 13.7391 26.5939 13.7939 26.4585V25.9094H13.1339C12.8919 25.9094 12.7033 25.9694 12.5657 26.0895C12.4294 26.2095 12.3606 26.35 12.3606 26.5134C12.3606 26.6551 12.4064 26.7675 12.4995 26.8518C12.5925 26.9361 12.7237 26.9769 12.897 26.9769Z" fill="white"/>
<path d="M16.9468 23.8639L16.9953 24.3989C17.1163 24.2087 17.2679 24.0605 17.4514 23.9545C17.6348 23.8486 17.8425 23.7949 18.0718 23.7949C18.4566 23.7949 18.7573 23.9137 18.9739 24.1512C19.1892 24.3887 19.2975 24.7603 19.2975 25.266V27.5735H18.4668V25.2724C18.4668 24.9838 18.4107 24.7795 18.2986 24.6582C18.1865 24.5368 18.0183 24.4768 17.7928 24.4768C17.6145 24.4768 17.4616 24.51 17.3303 24.5777C17.2004 24.6454 17.0972 24.7386 17.0195 24.8574V27.5735H16.1875V23.8639H16.9468Z" fill="white"/>
<path d="M22.3715 26.981C22.5613 26.981 22.7206 26.9222 22.8518 26.8022C22.983 26.6834 23.048 26.5327 23.048 26.3501H23.801L23.8073 26.3706C23.8163 26.7179 23.6787 27.018 23.3945 27.2696C23.1104 27.5211 22.769 27.6463 22.3702 27.6463C21.8364 27.6463 21.4248 27.47 21.1356 27.1163C20.8464 26.7626 20.7012 26.3182 20.7012 25.7806V25.6606C20.7012 25.1255 20.8464 24.6811 21.1356 24.3261C21.4248 23.9724 21.8364 23.7949 22.3676 23.7949C22.7983 23.7949 23.1486 23.9252 23.4175 24.1844C23.6863 24.4436 23.8163 24.7744 23.8073 25.1741L23.801 25.1945H23.048C23.048 24.9914 22.9856 24.8191 22.8594 24.6773C22.7346 24.5356 22.5702 24.4641 22.3664 24.4641C22.0695 24.4641 21.8567 24.579 21.7268 24.8088C21.5968 25.0387 21.5319 25.3222 21.5319 25.6606V25.7806C21.5319 26.1254 21.5968 26.4127 21.7255 26.64C21.8555 26.8673 22.0695 26.981 22.3715 26.981Z" fill="white"/>
<path d="M26.0937 22.9545H25.2617V22.2241H26.0937V22.9545ZM26.0937 27.5734H25.2617V23.8638H26.0937V27.5734Z" fill="white"/>
<path d="M29.9554 27.5733C29.9261 27.4801 29.9006 27.3881 29.8815 27.2987C29.8624 27.2094 29.8483 27.12 29.842 27.0319C29.7298 27.2055 29.5808 27.3511 29.3935 27.4686C29.2062 27.5861 28.9973 27.6448 28.7679 27.6448C28.3819 27.6448 28.0863 27.5452 27.8799 27.346C27.6735 27.1468 27.5703 26.8735 27.5703 26.5262C27.5703 26.1673 27.7117 25.8877 27.9946 25.6872C28.2774 25.4867 28.6749 25.3871 29.1884 25.3871H29.8356V25.0615C29.8356 24.8674 29.7795 24.7154 29.6661 24.6056C29.5528 24.4958 29.3897 24.4409 29.1756 24.4409C28.9858 24.4409 28.8355 24.4856 28.7246 24.5762C28.6138 24.6669 28.5564 24.7831 28.5564 24.9274L27.7563 24.9312L27.7525 24.9108C27.7359 24.6184 27.8672 24.3592 28.1436 24.1331C28.4201 23.9071 28.7819 23.7935 29.2266 23.7935C29.6572 23.7935 30.005 23.9033 30.2701 24.1229C30.5351 24.3426 30.6676 24.658 30.6676 25.0692V26.719C30.6676 26.8722 30.6778 27.0191 30.6981 27.1596C30.7185 27.3 30.7516 27.4379 30.7975 27.5733H29.9554ZM28.9387 26.9769C29.1463 26.9769 29.3336 26.9246 29.5018 26.8186C29.67 26.7139 29.7808 26.5939 29.8356 26.4585V25.9094H29.1756C28.9336 25.9094 28.745 25.9694 28.6074 26.0895C28.4711 26.2095 28.4023 26.35 28.4023 26.5134C28.4023 26.6551 28.4481 26.7675 28.5411 26.8518C28.6342 26.9361 28.7654 26.9769 28.9387 26.9769Z" fill="white"/>
<path d="M33.121 27.5734H32.2891V22.2241H33.121V27.5734Z" fill="white"/>
<path d="M40.9755 26.8979C40.8391 27.092 40.62 27.2657 40.3206 27.4177C40.0212 27.5696 39.6339 27.6462 39.1587 27.6462C38.57 27.6462 38.0859 27.456 37.7062 27.0754C37.3266 26.6949 37.1367 26.2033 37.1367 25.5992V24.5572C37.1367 23.9532 37.3202 23.4616 37.6871 23.0811C38.054 22.7005 38.5267 22.5103 39.1039 22.5103C39.6836 22.5103 40.1346 22.6571 40.4582 22.9495C40.7818 23.242 40.9398 23.6238 40.9309 24.095L40.9207 24.1154H40.1308C40.1308 23.8345 40.0429 23.6084 39.8696 23.4361C39.695 23.2649 39.4453 23.1794 39.1192 23.1794C38.7752 23.1794 38.4974 23.3084 38.2859 23.5663C38.0744 23.8243 37.97 24.1524 37.97 24.5509V25.6005C37.97 26.0028 38.0795 26.3335 38.2999 26.5927C38.5203 26.852 38.807 26.9822 39.1599 26.9822C39.4262 26.9822 39.6377 26.9516 39.7931 26.8915C39.9486 26.8315 40.0658 26.7575 40.1461 26.6706V25.6388H39.1026V25.0144H40.9767V26.8979H40.9755Z" fill="white"/>
<path d="M44.451 24.6144L44.0955 24.6004C43.9337 24.6004 43.7987 24.6349 43.6904 24.7038C43.5821 24.7728 43.498 24.8698 43.4394 24.995V27.5732H42.6074V23.8636H43.3668L43.4215 24.4025C43.5146 24.2122 43.6356 24.0641 43.7821 23.9568C43.9286 23.8495 44.0981 23.7959 44.2905 23.7959C44.3401 23.7959 44.3873 23.7997 44.4306 23.8074C44.4739 23.8151 44.5134 23.8253 44.5504 23.8368L44.451 24.6144Z" fill="white"/>
<path d="M45.5442 25.6848C45.5442 25.1319 45.6959 24.6786 45.9978 24.3249C46.2998 23.9711 46.7138 23.7949 47.2375 23.7949C47.7688 23.7949 48.1854 23.9711 48.4873 24.3249C48.7893 24.6786 48.9409 25.1306 48.9409 25.6848V25.7563C48.9409 26.3144 48.7893 26.769 48.4873 27.1189C48.1854 27.47 47.77 27.645 47.2438 27.645C46.7151 27.645 46.2985 27.4688 45.9965 27.1176C45.6946 26.7664 45.543 26.3118 45.543 25.7563V25.6848H45.5442ZM46.3762 25.7563C46.3762 26.1203 46.4463 26.4153 46.589 26.6413C46.7304 26.8673 46.9495 26.981 47.2464 26.981C47.5356 26.981 47.7535 26.8673 47.8987 26.64C48.044 26.4127 48.1166 26.1177 48.1166 25.7576V25.6861C48.1166 25.3324 48.044 25.04 47.8987 24.8101C47.7535 24.5803 47.5343 24.4653 47.24 24.4653C46.9508 24.4653 46.7342 24.5803 46.5915 24.8101C46.4488 25.04 46.3775 25.3324 46.3775 25.6861V25.7563H46.3762Z" fill="white"/>
<path d="M52.6767 27.0254C52.5621 27.2246 52.4156 27.3778 52.2372 27.4851C52.0576 27.5923 51.8512 27.646 51.6167 27.646C51.2192 27.646 50.9096 27.5157 50.6866 27.2539C50.4637 26.9922 50.3516 26.5861 50.3516 26.0344V23.8636H51.1797V26.0408C51.1797 26.3958 51.2307 26.6384 51.3339 26.77C51.4371 26.9015 51.5963 26.9666 51.8129 26.9666C52.0142 26.9666 52.1824 26.9309 52.3175 26.8581C52.4525 26.7866 52.5595 26.6819 52.6373 26.5439V23.8623H53.4692V27.5719H52.7545L52.6767 27.0254Z" fill="white"/>
<path d="M58.2808 25.8417C58.2808 26.3819 58.1547 26.8173 57.9012 27.1481C57.6476 27.4801 57.296 27.6448 56.8437 27.6448C56.6335 27.6448 56.4475 27.6078 56.2857 27.5312C56.1239 27.4558 55.985 27.3447 55.8678 27.1991V28.9997H55.0371V23.8624H55.7378L55.8194 24.3285C55.9379 24.1548 56.0806 24.022 56.2487 23.9301C56.4169 23.8381 56.6106 23.7935 56.8322 23.7935C57.2884 23.7935 57.6438 23.9748 57.8986 24.3374C58.1534 24.7001 58.2796 25.1764 58.2796 25.7689V25.8417H58.2808ZM57.4527 25.7702C57.4527 25.3909 57.3814 25.0806 57.2387 24.8393C57.096 24.5979 56.8832 24.4779 56.6004 24.4779C56.4271 24.4779 56.2793 24.5149 56.1595 24.589C56.0385 24.6631 55.9417 24.7665 55.8691 24.8993V26.576C55.9417 26.7062 56.0385 26.8058 56.1595 26.8761C56.2806 26.9463 56.4296 26.9808 56.608 26.9808C56.8909 26.9808 57.1023 26.8761 57.2425 26.6666C57.3826 26.4572 57.4527 26.1827 57.4527 25.8417V25.7702Z" fill="white"/>
<path opacity="0.7" d="M99.8778 4.06843C99.7784 4.46557 99.7147 4.77332 99.5975 5.1513L96.1244 15.8791L95.7396 17.0603C95.5587 17.6426 95.244 18.1623 94.8363 18.5965C94.3178 19.1635 93.6336 19.5657 92.8564 19.7471C92.5736 19.8186 92.2666 19.8492 91.9608 19.8492H77.1307C76.6045 19.8492 75.4668 19.7471 75.003 19.5504C73.557 18.9681 72.5352 17.5417 72.5352 15.8804C72.5352 15.4705 72.5976 15.0772 72.7161 14.6992L75.003 7.63373L76.5752 2.79018C76.6071 2.68802 76.6453 2.59353 76.6771 2.49137C77.2657 1.03179 78.6889 0 80.3541 0H96.2098C99.028 0 100.446 1.79287 99.8778 4.06843Z" fill="white"/>
<path opacity="0.8" d="M89.9 12.3442C89.8006 12.7413 89.7369 13.0491 89.6197 13.4271L86.1466 24.1549L85.7619 25.3361C85.5809 25.9184 85.2662 26.4381 84.8585 26.8723C84.34 27.4393 83.6558 27.8415 82.8787 28.0228C82.5958 28.0944 82.2888 28.125 81.983 28.125H67.1541C66.628 28.125 65.4902 28.0228 65.0265 27.8262C63.5804 27.2439 62.5586 25.8175 62.5586 24.1562C62.5586 23.7463 62.621 23.353 62.7395 22.975L65.0265 15.9095L66.5986 11.066C66.6305 10.9638 66.67 10.8693 66.7006 10.7671C67.2905 9.31012 68.7123 8.27833 70.3788 8.27833H86.2345C89.0515 8.2745 90.4695 10.0674 89.9 12.3442Z" fill="white"/>
<path d="M63.8145 5.09383C63.8145 4.63157 63.9215 4.20378 64.1342 3.80792C64.347 3.41206 64.6426 3.10048 65.021 2.87318C65.3981 2.64588 65.8058 2.53223 66.2441 2.53223C66.6824 2.53223 67.0888 2.64588 67.4659 2.87318C67.8418 3.10048 68.1374 3.41206 68.3501 3.80792C68.5629 4.20378 68.6699 4.63157 68.6699 5.09383C68.6699 5.5446 68.5667 5.966 68.3616 6.35931C68.1565 6.75262 67.8647 7.06803 67.4876 7.3081C67.1105 7.54689 66.6951 7.66693 66.2441 7.66693C65.7944 7.66693 65.3816 7.54817 65.0032 7.31193C64.626 7.07569 64.333 6.76028 64.1253 6.36697C63.9177 5.97239 63.8145 5.54843 63.8145 5.09383ZM64.2081 5.09128C64.2081 5.48458 64.2999 5.84852 64.4821 6.18309C64.6643 6.51765 64.9127 6.77943 65.2261 6.9697C65.5395 7.15997 65.8784 7.25447 66.2441 7.25447C66.611 7.25447 66.9525 7.15742 67.2672 6.96459C67.5819 6.77177 67.829 6.50999 68.0074 6.17798C68.1871 5.84724 68.2762 5.48458 68.2762 5.09128C68.2762 4.70052 68.1871 4.34042 68.0074 4.00968C67.8278 3.68022 67.5819 3.41844 67.2672 3.22818C66.9525 3.03791 66.611 2.94213 66.2441 2.94213C65.8797 2.94213 65.5395 3.03663 65.2248 3.22435C64.9102 3.41334 64.6617 3.67384 64.4808 4.00713C64.2986 4.34297 64.2081 4.70308 64.2081 5.09128ZM65.7408 5.3505V6.50999H65.258V3.5985H66.2021C66.5512 3.5985 66.8225 3.67384 67.0149 3.82324C67.2073 3.97265 67.3041 4.19101 67.3041 4.47705C67.3041 4.75799 67.1576 4.9738 66.8658 5.12192C67.1436 5.23685 67.285 5.46926 67.2863 5.8217V6.03113C67.2863 6.22778 67.3054 6.36953 67.3449 6.45636V6.51127H66.8493C66.8174 6.42954 66.8009 6.28269 66.8009 6.07071C66.8009 5.85874 66.797 5.73359 66.7907 5.69528C66.7537 5.47565 66.6047 5.362 66.3422 5.35178H65.7408V5.3505ZM65.7408 4.91122H66.2747C66.439 4.90612 66.5715 4.86653 66.6722 4.79119C66.7728 4.71585 66.8225 4.61752 66.8225 4.49365C66.8225 4.32765 66.7779 4.21017 66.6888 4.13993C66.5996 4.07098 66.4416 4.03522 66.2135 4.03522H65.7408V4.91122Z" fill="white"/>
</svg>
