<svg width="100" height="100" viewBox="0 0 100 100" fill="none" xmlns="http://www.w3.org/2000/svg">
<circle cx="50" cy="50" r="50" fill="#E5F2FF"/>
<g clip-path="url(#clip0_224_18323)">
<path d="M15 50C15 30.67 30.67 15 50 15C69.33 15 85 30.67 85 50C85 69.33 69.33 85 50 85C30.67 85 15 69.33 15 50Z" fill="white"/>
<path d="M36.3044 42.3661C37.5818 35.6359 43.0689 30.1057 50.022 30.0013C54.1974 29.9405 58.3212 31.9665 60.9533 35.2359C63.954 38.9576 64.1684 44.1313 63.8169 48.7138C63.6968 50.2702 63.6968 51.5919 65 52.1919M35.4879 47.3748C37.2283 47.9661 39.3288 47.1139 40.1862 45.4705C40.8035 44.2879 40.7949 42.8793 41.0864 41.575C42.0466 37.2621 46.6763 34.2622 50.9888 34.8969C55.3013 35.5404 58.8079 39.5142 59.2623 43.9053C59.4423 45.6531 59.1937 47.4183 59.1251 49.1747C59.0565 50.9312 59.1851 52.7659 60.0425 54.2963C60.8998 55.8267 62.6488 56.9571 64.3464 56.6093M35 52.1918C36.9376 52.0962 38.9953 51.644 40.7528 50.818C42.4676 50.0093 44.0108 48.6789 44.7567 46.9137C45.6998 44.6616 45.4083 41.7139 47.2773 40.1574C48.349 39.2618 49.8922 39.1227 51.2297 39.4879C52.3271 39.7835 53.3731 40.427 53.9818 41.4009C54.4962 42.2269 54.6591 43.2269 54.7191 44.2008C54.9678 48.418 53.2616 52.7135 50.2009 55.5743C48.3233 57.3221 46.0256 58.5047 43.6421 59.3655C41.4816 60.1481 38.3351 60.2089 36.4232 61.4176M49.7641 44.2874C49.9871 47.4352 48.7096 50.722 46.189 52.6263C43.214 54.8784 39.2873 56.0784 35.7035 56.8609M55.7931 57.2178C55.7931 57.2178 57.7993 60.096 63.3549 61.409M37.4778 65.8436C37.4778 65.8436 46.5743 63.5655 49.2921 62.7307C52.01 61.8959 52.7216 61.8959 56.3825 63.6872C60.0434 65.4784 62.2896 65.9654 62.2896 65.9654M40.5411 69.8C40.5411 69.8 45.3765 68.7826 48.1972 67.7566C51.0179 66.7392 52.2268 66.3306 55.2447 67.9566C58.2626 69.5913 59.8744 70 59.8744 70" stroke="url(#paint0_linear_224_18323)" stroke-width="2" stroke-miterlimit="10" stroke-linecap="round" stroke-linejoin="round"/>
</g>
<defs>
<linearGradient id="paint0_linear_224_18323" x1="65" y1="50" x2="35" y2="50" gradientUnits="userSpaceOnUse">
<stop stop-color="#00C6FF"/>
<stop offset="1" stop-color="#0072FF"/>
</linearGradient>
<clipPath id="clip0_224_18323">
<rect width="70" height="70" fill="white" transform="translate(15 15)"/>
</clipPath>
</defs>
</svg>
