<svg width="100" height="100" viewBox="0 0 100 100" fill="none" xmlns="http://www.w3.org/2000/svg">
<circle cx="50" cy="50" r="50" fill="#E5F2FF"/>
<g clip-path="url(#clip0_207_26389)">
<path d="M15 50C15 30.67 30.67 15 50 15C69.33 15 85 30.67 85 50C85 69.33 69.33 85 50 85C30.67 85 15 69.33 15 50Z" fill="white"/>
<path d="M32.3979 43.4864C32.708 43.4864 32.9996 43.3943 33.2117 43.1737C33.4216 42.9554 33.5042 42.6627 33.5042 42.3603V37.0431C33.5042 35.8204 33.8234 34.9521 34.3876 34.3878C34.9519 33.8235 35.8202 33.5044 37.043 33.5044H42.3799C42.6822 33.5044 42.975 33.4218 43.1933 33.2119C43.4139 32.9998 43.506 32.7082 43.506 32.398C43.506 32.0879 43.4139 31.7963 43.1933 31.5842C42.975 31.3743 42.6822 31.2917 42.3799 31.2917H37.0034C35.1926 31.2917 33.7488 31.7628 32.7589 32.7445C31.7685 33.7268 31.2915 35.1616 31.2915 36.9641V42.3603C31.2915 42.6627 31.3741 42.9554 31.584 43.1737C31.7961 43.3943 32.0877 43.4864 32.3979 43.4864ZM67.6018 43.4864C67.912 43.4864 68.2036 43.3943 68.4157 43.1737C68.6256 42.9554 68.7082 42.6627 68.7082 42.3603V36.9641C68.7082 35.1813 68.2362 33.7476 67.2521 32.7608C66.2679 31.7739 64.8289 31.2917 63.016 31.2917H57.6198C57.3174 31.2917 57.0247 31.3743 56.8064 31.5842C56.5858 31.7963 56.4937 32.0879 56.4937 32.398C56.4937 32.7082 56.5858 32.9998 56.8064 33.2119C57.0247 33.4218 57.3174 33.5044 57.6198 33.5044H62.9567C64.1371 33.5044 65.0082 33.8221 65.5844 34.3898C66.1596 34.9565 66.4955 35.8261 66.4955 37.0431V42.3603C66.4955 42.6627 66.578 42.9554 66.7879 43.1737C67 43.3943 67.2916 43.4864 67.6018 43.4864ZM48.3889 53.0336H48.5668C49.4239 53.0336 50.139 52.8218 50.6373 52.3266C51.1359 51.831 51.3533 51.1153 51.3533 50.2471V44.1788C51.3533 43.8979 51.2863 43.6155 51.0779 43.4071C50.8695 43.1988 50.5871 43.1318 50.3062 43.1318C50.031 43.1318 49.7529 43.2007 49.5449 43.4042C49.3353 43.6092 49.2592 43.8896 49.2592 44.1788V50.425C49.2592 50.7243 49.0206 50.9197 48.7644 50.9197H48.0924C47.5097 50.9197 47.0651 51.3643 47.0651 51.947C47.0651 52.2681 47.1703 52.5715 47.4426 52.779C47.6939 52.9705 48.0293 53.0336 48.3889 53.0336ZM42.8938 48.4873C43.2707 48.4873 43.6148 48.3664 43.8656 48.1156C44.1164 47.8648 44.2374 47.5206 44.2374 47.1438V44.5148C44.2374 44.1313 44.1184 43.7822 43.8676 43.5277C43.6162 43.2726 43.2708 43.1515 42.8938 43.1515C42.5178 43.1515 42.1783 43.2833 41.9336 43.539C41.6903 43.7931 41.57 44.1387 41.57 44.5148V47.1438C41.57 47.5205 41.6908 47.8634 41.9373 48.1136C42.1843 48.3642 42.5235 48.4873 42.8938 48.4873ZM56.928 48.4873C57.2983 48.4873 57.6375 48.3642 57.8844 48.1136C58.1309 47.8634 58.2517 47.5205 58.2517 47.1438V44.5148C58.2517 44.1387 58.1314 43.7931 57.8882 43.539C57.6435 43.2833 57.304 43.1515 56.928 43.1515C56.5516 43.1515 56.2035 43.2721 55.9482 43.5238C55.692 43.7764 55.5646 44.1259 55.5646 44.5148V47.1438C55.5646 47.5262 55.6941 47.8707 55.9501 48.1194C56.2049 48.3669 56.5517 48.4873 56.928 48.4873ZM49.8318 59.0821C52.1038 59.0821 54.3678 58.1352 56.036 56.4726C56.2234 56.3101 56.3937 56.0356 56.3937 55.6631C56.3937 55.0458 55.9141 54.6358 55.3664 54.6358C55.2193 54.6358 55.0617 54.6566 54.8939 54.7365C54.7342 54.8125 54.5897 54.9305 54.4443 55.0863C53.3235 56.2046 51.5811 57.0078 49.8318 57.0078C48.0848 57.0078 46.3614 56.2064 45.2186 55.0855C45.0851 54.9419 44.9478 54.8254 44.7911 54.747C44.6255 54.6642 44.462 54.6358 44.2972 54.6358C43.7495 54.6358 43.2699 55.0458 43.2699 55.6631C43.2699 56.0328 43.4554 56.2995 43.6143 56.4593C45.2492 58.1549 47.5607 59.0821 49.8318 59.0821ZM37.0034 68.7084H42.3799C42.6822 68.7084 42.975 68.6258 43.1933 68.4159C43.4139 68.2038 43.506 67.9122 43.506 67.602C43.506 67.2918 43.4139 67.0002 43.1933 66.7881C42.975 66.5782 42.6822 66.4956 42.3799 66.4956H37.043C35.8202 66.4956 34.9523 66.1765 34.3881 65.6102C33.8238 65.0437 33.5042 64.1705 33.5042 62.9371V57.6397C33.5042 57.3377 33.4219 57.0434 33.2166 56.8216C33.0073 56.5955 32.7155 56.4938 32.3979 56.4938C32.0802 56.4938 31.7885 56.5955 31.5791 56.8216C31.3738 57.0434 31.2915 57.3377 31.2915 57.6397V63.0162C31.2915 64.8281 31.7682 66.2678 32.7585 67.2527C33.7485 68.2372 35.1926 68.7084 37.0034 68.7084ZM57.6198 68.7084H63.016C64.83 68.7084 66.269 68.2207 67.2528 67.2286C68.2362 66.2371 68.7082 64.7989 68.7082 63.0162V57.6397C68.7082 57.3377 68.6259 57.0434 68.4205 56.8216C68.2112 56.5955 67.9194 56.4938 67.6018 56.4938C67.2842 56.4938 66.9924 56.5955 66.7831 56.8216C66.5777 57.0434 66.4955 57.3377 66.4955 57.6397V62.9371C66.4955 64.1649 66.1592 65.0394 65.5839 65.6083C65.0078 66.1779 64.1371 66.4956 62.9567 66.4956H57.6198C57.3174 66.4956 57.0247 66.5782 56.8064 66.7881C56.5858 67.0002 56.4937 67.2918 56.4937 67.602C56.4937 67.9122 56.5858 68.2038 56.8064 68.4159C57.0247 68.6258 57.3174 68.7084 57.6198 68.7084Z" fill="url(#paint0_linear_207_26389)" stroke="url(#paint1_linear_207_26389)" stroke-width="0.75"/>
</g>
<defs>
<linearGradient id="paint0_linear_207_26389" x1="68.2232" y1="31.6667" x2="31.5566" y2="62.1" gradientUnits="userSpaceOnUse">
<stop stop-color="#00C6FF"/>
<stop offset="1" stop-color="#0072FF"/>
</linearGradient>
<linearGradient id="paint1_linear_207_26389" x1="68.2232" y1="31.6667" x2="31.5566" y2="62.1" gradientUnits="userSpaceOnUse">
<stop stop-color="#00C6FF"/>
<stop offset="1" stop-color="#0072FF"/>
</linearGradient>
<clipPath id="clip0_207_26389">
<rect width="70" height="70" fill="white" transform="translate(15 15)"/>
</clipPath>
</defs>
</svg>
