<svg width="100" height="100" viewBox="0 0 100 100" fill="none" xmlns="http://www.w3.org/2000/svg">
<circle cx="50" cy="50" r="50" fill="#EFFFF4"/>
<g clip-path="url(#clip0_162_9384)">
<g opacity="0.9" filter="url(#filter0_d_162_9384)">
<path d="M85 50C85 69.33 69.33 85 50 85C30.67 85 15 69.33 15 50C15 30.67 30.67 15 50 15C69.33 15 85 30.67 85 50Z" fill="url(#paint0_linear_162_9384)"/>
</g>
<path fill-rule="evenodd" clip-rule="evenodd" d="M65.5832 38.4638C66.2821 39.1896 66.2821 40.3664 65.5832 41.0922L55.7397 51.3142L45.8963 61.5361C45.1974 62.262 44.0642 62.262 43.3653 61.5361L34.4168 52.2434C33.7178 51.5176 33.7178 50.3409 34.4168 49.6151C35.1157 48.8892 36.2489 48.8892 36.9478 49.6151L44.6308 57.5936L63.0521 38.4638C63.751 37.738 64.8842 37.738 65.5832 38.4638Z" fill="white"/>
</g>
<defs>
<filter id="filter0_d_162_9384" x="7" y="10" width="86" height="86" filterUnits="userSpaceOnUse" color-interpolation-filters="sRGB">
<feFlood flood-opacity="0" result="BackgroundImageFix"/>
<feColorMatrix in="SourceAlpha" type="matrix" values="0 0 0 0 0 0 0 0 0 0 0 0 0 0 0 0 0 0 127 0" result="hardAlpha"/>
<feOffset dy="3"/>
<feGaussianBlur stdDeviation="4"/>
<feColorMatrix type="matrix" values="0 0 0 0 0.129412 0 0 0 0 0.666667 0 0 0 0 0.278431 0 0 0 0.3 0"/>
<feBlend mode="normal" in2="BackgroundImageFix" result="effect1_dropShadow_162_9384"/>
<feBlend mode="normal" in="SourceGraphic" in2="effect1_dropShadow_162_9384" result="shape"/>
</filter>
<linearGradient id="paint0_linear_162_9384" x1="-26" y1="115" x2="98" y2="11.5" gradientUnits="userSpaceOnUse">
<stop stop-color="#061700"/>
<stop offset="1" stop-color="#52C234"/>
</linearGradient>
<clipPath id="clip0_162_9384">
<rect width="70" height="70" fill="white" transform="translate(15 15)"/>
</clipPath>
</defs>
</svg>
