<svg width="100" height="100" viewBox="0 0 100 100" fill="none" xmlns="http://www.w3.org/2000/svg">
<circle cx="50" cy="50" r="50" fill="#FFFAF2"/>
<g clip-path="url(#clip0_319_183940)">
<g filter="url(#filter0_d_319_183940)">
<path d="M85 50C85 69.33 69.33 85 50 85C30.67 85 15 69.33 15 50C15 30.67 30.67 15 50 15C69.33 15 85 30.67 85 50Z" fill="url(#paint0_linear_319_183940)"/>
</g>
<path d="M47.5488 37.8836C47.5488 36.8433 48.3921 36 49.4324 36C50.4727 36 51.316 36.8433 51.316 37.8836V57.1164C51.316 58.1567 50.4727 59 49.4324 59C48.3921 59 47.5488 58.1567 47.5488 57.1164V37.8836Z" fill="white"/>
<rect x="47.5488" y="61.1951" width="3.76721" height="3.80488" rx="1.8836" fill="white"/>
</g>
<defs>
<filter id="filter0_d_319_183940" x="7" y="10" width="86" height="86" filterUnits="userSpaceOnUse" color-interpolation-filters="sRGB">
<feFlood flood-opacity="0" result="BackgroundImageFix"/>
<feColorMatrix in="SourceAlpha" type="matrix" values="0 0 0 0 0 0 0 0 0 0 0 0 0 0 0 0 0 0 127 0" result="hardAlpha"/>
<feOffset dy="3"/>
<feGaussianBlur stdDeviation="4"/>
<feColorMatrix type="matrix" values="0 0 0 0 0.960784 0 0 0 0 0.686275 0 0 0 0 0.0980392 0 0 0 0.3 0"/>
<feBlend mode="normal" in2="BackgroundImageFix" result="effect1_dropShadow_319_183940"/>
<feBlend mode="normal" in="SourceGraphic" in2="effect1_dropShadow_319_183940" result="shape"/>
</filter>
<linearGradient id="paint0_linear_319_183940" x1="81" y1="30.5" x2="3.5" y2="85" gradientUnits="userSpaceOnUse">
<stop stop-color="#F5AF19"/>
<stop offset="1" stop-color="#F12711"/>
</linearGradient>
<clipPath id="clip0_319_183940">
<rect width="70" height="70" fill="white" transform="translate(15 15)"/>
</clipPath>
</defs>
</svg>
