<svg width="24" height="24" viewBox="0 0 24 24" fill="none" xmlns="http://www.w3.org/2000/svg">
<path d="M14.9038 16.0657C14.8729 16.0657 14.8421 16.0769 14.8074 16.0769C14.7727 16.0769 14.7457 16.0694 14.7111 16.0657C13.4469 16.1067 12.4062 16.934 12.2058 18.0185H17.4052C17.2086 16.934 16.168 16.1067 14.9038 16.0657Z" fill="url(#paint0_linear_5478_55622)"/>
<path d="M9.01864 15.3614H6.16265C5.95067 15.3614 5.77723 15.1937 5.77723 14.9888C5.77723 14.7838 5.95067 14.6161 6.16265 14.6161H9.1227C9.41562 13.267 10.2212 12.1006 11.3273 11.3068H6.16265C5.95067 11.3068 5.77723 11.1391 5.77723 10.9341C5.77723 10.7292 5.95067 10.5615 6.16265 10.5615H12.7187C12.7225 10.5615 12.7303 10.5652 12.7341 10.5652C13.3624 10.3378 14.0368 10.2074 14.7422 10.2074C14.9619 10.2074 15.1777 10.2223 15.3897 10.2447V4.36394C15.3897 3.84592 14.985 3.4248 14.4878 3.4248H5.18753C4.69034 3.4248 4.28564 3.84592 4.28564 4.36394V17.1913C4.28564 17.7093 4.69034 18.1304 5.18753 18.1304H9.55823C9.20364 17.4111 8.99937 16.6099 8.99937 15.7602C8.99937 15.626 9.01093 15.4956 9.01864 15.3614ZM6.16265 6.50679H14.0099C14.2218 6.50679 14.3953 6.67449 14.3953 6.87946C14.3953 7.08443 14.2218 7.25213 14.0099 7.25213H6.16265C5.95067 7.25213 5.77723 7.08443 5.77723 6.87946C5.77723 6.67449 5.94682 6.50679 6.16265 6.50679Z" fill="url(#paint1_linear_5478_55622)"/>
<path d="M14.6882 15.3167C14.7267 15.3167 14.7652 15.313 14.8076 15.313C14.8462 15.313 14.8886 15.3167 14.9271 15.3167C15.5361 15.2571 16.0179 14.7652 16.0179 14.1577C16.0179 13.513 15.4744 12.9875 14.8076 12.9875C14.1409 12.9875 13.5974 13.513 13.5974 14.1577C13.5974 14.7652 14.0792 15.2571 14.6882 15.3167Z" fill="url(#paint2_linear_5478_55622)"/>
<path d="M14.7422 10.9526C12.0019 10.9526 9.77026 13.1104 9.77026 15.7601C9.77026 18.4098 12.0019 20.5675 14.7422 20.5675C17.4826 20.5675 19.7142 18.4098 19.7142 15.7601C19.7142 13.1104 17.4826 10.9526 14.7422 10.9526ZM17.8256 18.7601H11.7899C11.5779 18.7601 11.4045 18.5924 11.4045 18.3874C11.4045 17.1203 12.2562 16.0321 13.4703 15.5588C13.0772 15.2085 12.8305 14.7129 12.8305 14.1576C12.8305 13.1029 13.7208 12.2421 14.8116 12.2421C15.9023 12.2421 16.7927 13.1029 16.7927 14.1576C16.7927 14.7129 16.5421 15.2085 16.1529 15.5588C17.3669 16.0284 18.2187 17.1203 18.2187 18.3874C18.211 18.5924 18.0376 18.7601 17.8256 18.7601Z" fill="url(#paint3_linear_5478_55622)"/>
<defs>
<linearGradient id="paint0_linear_5478_55622" x1="9.16047" y1="18.8554" x2="11.7918" y2="13.0077" gradientUnits="userSpaceOnUse">
<stop stop-color="#0154B8"/>
<stop offset="1" stop-color="#52C234"/>
</linearGradient>
<linearGradient id="paint1_linear_5478_55622" x1="-2.21815" y1="24.4328" x2="21.6677" y2="9.37861" gradientUnits="userSpaceOnUse">
<stop stop-color="#0154B8"/>
<stop offset="1" stop-color="#52C234"/>
</linearGradient>
<linearGradient id="paint2_linear_5478_55622" x1="12.1797" y1="16.315" x2="16.3312" y2="12.7141" gradientUnits="userSpaceOnUse">
<stop stop-color="#0154B8"/>
<stop offset="1" stop-color="#52C234"/>
</linearGradient>
<linearGradient id="paint3_linear_5478_55622" x1="3.94597" y1="24.6882" x2="21.0714" y2="9.90487" gradientUnits="userSpaceOnUse">
<stop stop-color="#0154B8"/>
<stop offset="1" stop-color="#52C234"/>
</linearGradient>
</defs>
</svg>
