<svg width="24" height="24" viewBox="0 0 24 24" fill="none" xmlns="http://www.w3.org/2000/svg">
<path d="M16.5133 3.4248H9.05739C8.63229 3.4248 8.28638 3.74818 8.28638 4.14558V10.3014H12.6416C14.0919 10.3014 15.2672 11.404 15.2672 12.756V12.9975H17.2801C17.5093 12.9975 17.6969 13.1729 17.6969 13.3871C17.6969 13.6014 17.5093 13.7768 17.2801 13.7768H15.2672V18.1053H18.943C19.3681 18.1053 19.714 17.782 19.714 17.3845V6.35078L19.689 6.3274H16.5133V3.4248ZM17.426 8.52091C17.6552 8.52091 17.8428 8.69623 17.8428 8.91052C17.8428 9.12481 17.6552 9.30013 17.426 9.30013H10.5994C10.3702 9.30013 10.1826 9.12481 10.1826 8.91052C10.1826 8.69623 10.3702 8.52091 10.5994 8.52091H17.426Z" fill="url(#paint0_linear_5478_60221)"/>
<path d="M12.6417 11.0806H6.07773C5.09 11.0806 4.28564 11.8325 4.28564 12.7559V18.8923C4.28564 19.8156 5.09 20.5676 6.07773 20.5676H12.6417C13.6295 20.5676 14.4338 19.8156 14.4338 18.8923V12.7559C14.4338 11.8325 13.6295 11.0806 12.6417 11.0806ZM8.41577 15.3273V12.7286H10.3079V15.3273H11.7249L9.35765 17.7468L6.99877 15.3273H8.41577V15.3273ZM11.9791 19.2897H6.74038V18.0741H11.9791V19.2897Z" fill="url(#paint1_linear_5478_60221)"/>
<path d="M19.6559 5.63014L17.297 3.44832C17.2637 3.41716 17.297 5.63014 17.297 5.63014H19.6559Z" fill="url(#paint2_linear_5478_60221)"/>
<defs>
<linearGradient id="paint0_linear_5478_60221" x1="1.59304" y1="24.397" x2="25.7441" y2="8.70527" gradientUnits="userSpaceOnUse">
<stop stop-color="#0154B8"/>
<stop offset="1" stop-color="#52C234"/>
</linearGradient>
<linearGradient id="paint1_linear_5478_60221" x1="-1.65829" y1="24.6334" x2="15.3133" y2="9.48039" gradientUnits="userSpaceOnUse">
<stop stop-color="#0154B8"/>
<stop offset="1" stop-color="#52C234"/>
</linearGradient>
<linearGradient id="paint2_linear_5478_60221" x1="15.8919" y1="6.56535" x2="19.8025" y2="3.01477" gradientUnits="userSpaceOnUse">
<stop stop-color="#0154B8"/>
<stop offset="1" stop-color="#52C234"/>
</linearGradient>
</defs>
</svg>
