<svg width="24" height="24" viewBox="0 0 24 24" fill="none" xmlns="http://www.w3.org/2000/svg">
<path d="M19.9847 12.6719H14.6509C14.3299 12.6719 14.0684 12.9239 14.0684 13.2331V18.292C14.0684 18.6013 14.3299 18.8532 14.6509 18.8532H19.9887C20.3097 18.8532 20.5712 18.6013 20.5712 18.292V13.2369C20.5712 12.9277 20.3097 12.6719 19.9847 12.6719ZM19.6757 14.2678L17.0642 17.6506C16.977 17.7651 16.8423 17.8338 16.6957 17.8415C16.6877 17.8415 16.6758 17.8415 16.6679 17.8415C16.5292 17.8415 16.3985 17.788 16.3034 17.6887L15.1304 16.4746C14.9441 16.2799 14.956 15.9783 15.1581 15.7988C15.3563 15.6194 15.6733 15.6308 15.8595 15.8256L16.6243 16.6197L18.8791 13.6951C19.0416 13.4851 19.3507 13.4393 19.5726 13.5958C19.7906 13.76 19.8381 14.0578 19.6757 14.2678Z" fill="url(#paint0_linear_5478_61591)"/>
<path d="M18.4671 6.82666H3.42847V9.39618H18.4671V6.82666Z" fill="url(#paint1_linear_5478_61591)"/>
<path d="M18.4671 11.9087V10.1562H3.42847V13.2527C3.42847 13.8101 3.90003 14.2644 4.4786 14.2644H13.2759V13.2374C13.2759 12.5081 13.8941 11.9125 14.651 11.9125H18.4671V11.9087Z" fill="url(#paint2_linear_5478_61591)"/>
<path d="M17.417 5.13916H4.47867C3.93181 5.13916 3.48798 5.54769 3.44043 6.06312H18.4593C18.4077 5.54769 17.9639 5.13916 17.417 5.13916Z" fill="url(#paint3_linear_5478_61591)"/>
<defs>
<linearGradient id="paint0_linear_5478_61591" x1="20.5517" y1="12.6719" x2="14.3202" y2="18.1131" gradientUnits="userSpaceOnUse">
<stop stop-color="#08FFFF"/>
<stop offset="1" stop-color="#007AFF"/>
</linearGradient>
<linearGradient id="paint1_linear_5478_61591" x1="18.422" y1="6.82666" x2="17.3894" y2="11.8426" gradientUnits="userSpaceOnUse">
<stop stop-color="#08FFFF"/>
<stop offset="1" stop-color="#007AFF"/>
</linearGradient>
<linearGradient id="paint2_linear_5478_61591" x1="18.422" y1="10.1562" x2="15.9396" y2="17.6986" gradientUnits="userSpaceOnUse">
<stop stop-color="#08FFFF"/>
<stop offset="1" stop-color="#007AFF"/>
</linearGradient>
<linearGradient id="paint3_linear_5478_61591" x1="18.4142" y1="5.13916" x2="18.2756" y2="7.00898" gradientUnits="userSpaceOnUse">
<stop stop-color="#08FFFF"/>
<stop offset="1" stop-color="#007AFF"/>
</linearGradient>
</defs>
</svg>
