<svg width="24" height="24" viewBox="0 0 24 24" fill="none" xmlns="http://www.w3.org/2000/svg">
<path fill-rule="evenodd" clip-rule="evenodd" d="M5.14694 16.8819L5.14282 5.33C5.14282 4.27805 6.04394 3.4248 7.15491 3.4248H18.8571V16.0988H7.15079C6.36489 16.0988 5.65716 16.3949 5.14694 16.8819ZM16.7257 6.87285C16.8821 6.72091 16.8779 6.47545 16.7175 6.3235C16.557 6.17545 16.2937 6.17935 16.1373 6.3274L12.3888 9.95467L11.4054 8.71961C11.2696 8.54818 11.0104 8.51311 10.8293 8.64169C10.6483 8.77026 10.6113 9.01571 10.747 9.18714L12.0185 10.7884C12.0884 10.8819 12.1995 10.9365 12.3189 10.9443H12.3477C12.4546 10.9443 12.5616 10.9014 12.6398 10.8274L16.7257 6.87285ZM12.7386 5.63389C12.7386 5.41961 12.5534 5.24428 12.3271 5.24428C9.73894 5.24428 7.63221 7.23519 7.63221 9.68974C7.63221 12.1443 9.73894 14.1352 12.3271 14.1352C14.9152 14.1352 17.022 12.1404 17.022 9.68974C17.022 9.47545 16.8368 9.30013 16.6105 9.30013C16.3842 9.30013 16.199 9.47545 16.199 9.68974C16.199 11.7118 14.4626 13.356 12.3271 13.356C10.1916 13.356 8.45515 11.7118 8.45515 9.68974C8.45515 7.66766 10.1916 6.0235 12.3271 6.0235C12.5534 6.0235 12.7386 5.84818 12.7386 5.63389ZM5.14694 18.7092C5.18808 17.6807 6.0604 16.8781 7.15079 16.8781V16.8742H18.2234C17.8037 17.4001 17.5692 18.043 17.5692 18.7209C17.5692 19.3988 17.8037 20.0456 18.2234 20.5677H7.15079C6.05217 20.5677 5.17163 19.7534 5.14282 18.7365V18.7326C5.14282 18.7307 5.14385 18.7277 5.14488 18.7248C5.14591 18.7219 5.14694 18.719 5.14694 18.717V18.7092Z" fill="url(#paint0_linear_5478_61567)"/>
<defs>
<linearGradient id="paint0_linear_5478_61567" x1="18.8571" y1="11.9962" x2="5.14282" y2="11.9962" gradientUnits="userSpaceOnUse">
<stop stop-color="#FF6A00"/>
<stop offset="1" stop-color="#EE0979"/>
</linearGradient>
</defs>
</svg>
