<svg width="24" height="24" viewBox="0 0 24 24" fill="none" xmlns="http://www.w3.org/2000/svg">
<path d="M7.81715 4.71839H11.2257C11.2642 4.71839 11.2987 4.6884 11.2987 4.64715V3.49605C11.2987 3.45855 11.268 3.4248 11.2257 3.4248H7.81715C7.77873 3.4248 7.74414 3.4548 7.74414 3.49605V4.6509C7.74414 4.68465 7.77873 4.71839 7.81715 4.71839Z" fill="url(#paint0_linear_5478_71624)"/>
<path d="M16.1866 12.0112C13.7695 12.0112 11.802 13.931 11.802 16.2894C11.802 18.6479 13.7695 20.5677 16.1866 20.5677C18.6038 20.5677 20.5713 18.6479 20.5713 16.2894C20.5713 13.931 18.6038 12.0112 16.1866 12.0112ZM19.0803 16.7601L16.2558 17.8662C16.2097 17.8849 16.1597 17.8924 16.1136 17.8924C16.0406 17.8924 15.9638 17.8699 15.9023 17.8287C15.7985 17.7612 15.7332 17.645 15.7294 17.525L15.6602 14.1579C15.6563 13.9517 15.8254 13.7792 16.0368 13.7754C16.0406 13.7754 16.0406 13.7754 16.0445 13.7754C16.252 13.7754 16.4249 13.9367 16.4287 14.1429L16.4864 16.97L18.7959 16.0664C18.9919 15.9877 19.2148 16.0814 19.2955 16.2764C19.3762 16.4639 19.2801 16.6813 19.0803 16.7601Z" fill="url(#paint1_linear_5478_71624)"/>
<path d="M6.44914 13.4475H11.9405C12.6092 12.5026 13.6006 11.7902 14.7611 11.464V4.99231C14.7611 4.6736 14.496 4.41113 14.1655 4.41113H12.0673V4.64735C12.0673 5.10105 11.6907 5.4685 11.2258 5.4685H7.81718C7.35605 5.4685 6.97561 5.10105 6.97561 4.64735V4.41488H4.88128C4.5508 4.41488 4.28564 4.6736 4.28564 4.99231V17.5757C4.28564 17.8944 4.5508 18.1569 4.88128 18.1569H11.4064C11.1681 17.5795 11.0336 16.9496 11.0336 16.2896C11.0336 15.5397 11.2065 14.8348 11.5101 14.1937H6.44914C6.23779 14.1937 6.06486 14.0249 6.06486 13.8187C6.06486 13.6125 6.23395 13.4475 6.44914 13.4475ZM6.44914 8.14192H12.5976C12.809 8.14192 12.9819 8.31065 12.9819 8.51687C12.9819 8.72309 12.809 8.89182 12.5976 8.89182H6.44914C6.23779 8.89182 6.06486 8.72309 6.06486 8.51687C6.06486 8.31065 6.23395 8.14192 6.44914 8.14192ZM6.44914 10.7928H12.5976C12.809 10.7928 12.9819 10.9616 12.9819 11.1678C12.9819 11.374 12.809 11.5427 12.5976 11.5427H6.44914C6.23779 11.5427 6.06486 11.374 6.06486 11.1678C6.06486 10.9616 6.23395 10.7928 6.44914 10.7928Z" fill="url(#paint2_linear_5478_71624)"/>
<defs>
<linearGradient id="paint0_linear_5478_71624" x1="11.2881" y1="3.4248" x2="10.3201" y2="5.63259" gradientUnits="userSpaceOnUse">
<stop stop-color="#08FFFF"/>
<stop offset="1" stop-color="#007AFF"/>
</linearGradient>
<linearGradient id="paint1_linear_5478_71624" x1="20.545" y1="12.0112" x2="11.9523" y2="19.3206" gradientUnits="userSpaceOnUse">
<stop stop-color="#08FFFF"/>
<stop offset="1" stop-color="#007AFF"/>
</linearGradient>
<linearGradient id="paint2_linear_5478_71624" x1="14.7297" y1="4.41113" x2="2.09343" y2="12.404" gradientUnits="userSpaceOnUse">
<stop stop-color="#08FFFF"/>
<stop offset="1" stop-color="#007AFF"/>
</linearGradient>
</defs>
</svg>
