<svg width="24" height="24" viewBox="0 0 24 24" fill="none" xmlns="http://www.w3.org/2000/svg">
<path d="M15.882 18.8534C18.4713 18.8534 20.5713 16.7042 20.5713 14.0505C20.5713 11.4005 18.4713 9.25125 15.882 9.25125C13.2927 9.25125 11.1927 11.4005 11.1927 14.0505C11.1892 16.7042 13.2892 18.8534 15.882 18.8534Z" fill="url(#paint0_linear_5478_71017)"/>
<path d="M18.5249 9.95305V6.55006C18.5249 5.77151 17.907 5.13916 17.1463 5.13916H4.80704C4.04632 5.13916 3.42847 5.77151 3.42847 6.55006V13.7471C3.42847 14.5257 4.04632 15.158 4.80704 15.158H11.332" fill="url(#paint1_linear_5478_71017)"/>
<path d="M18.5249 9.95305V6.55006C18.5249 5.77151 17.907 5.13916 17.1463 5.13916H4.80704C4.04632 5.13916 3.42847 5.77151 3.42847 6.55006V13.7471C3.42847 14.5257 4.04632 15.158 4.80704 15.158H11.332M18.5106 6.6268H3.4749M15.882 18.8534C18.4713 18.8534 20.5713 16.7042 20.5713 14.0505C20.5713 11.4005 18.4713 9.25125 15.882 9.25125C13.2927 9.25125 11.1927 11.4005 11.1927 14.0505C11.1892 16.7042 13.2892 18.8534 15.882 18.8534Z" stroke="white" stroke-miterlimit="10"/>
<path d="M18.1106 13.9746C17.9328 13.9746 17.7873 14.1224 17.7873 14.3029C17.7873 15.3424 16.9522 16.1903 15.9285 16.1903C14.9049 16.1903 14.0698 15.3424 14.0698 14.3029C14.0698 13.3291 14.7971 12.5249 15.7346 12.4264V13.0993L17.1947 12.0544L15.7346 10.9876V11.7644C14.4469 11.8684 13.4286 12.9625 13.4286 14.2974C13.4286 15.698 14.5493 16.8359 15.9285 16.8359C17.3078 16.8359 18.4285 15.698 18.4285 14.2974C18.4339 14.1224 18.2884 13.9746 18.1106 13.9746Z" fill="white"/>
<path d="M8.55519 10.1959V9.70148C8.55519 9.70148 8.58846 8.55078 7.47291 8.55078C6.35736 8.55078 6.39728 9.70148 6.39728 9.70148V10.1959C6.07127 10.1959 5.80957 10.4803 5.80957 10.8281V12.3048C5.80957 12.6548 6.07349 12.937 6.39728 12.937H8.55519C8.8812 12.937 9.1429 12.6526 9.1429 12.3048V10.8281C9.1429 10.4781 8.87899 10.1959 8.55519 10.1959ZM8.03179 10.1959H6.92068V9.64898C6.92068 9.53303 6.95173 9.09988 7.47513 9.09988C7.99853 9.09988 8.02957 9.53522 8.03179 9.64898V10.1959Z" fill="white"/>
<defs>
<linearGradient id="paint0_linear_5478_71017" x1="20.5199" y1="5.13916" x2="6.57631" y2="19.6056" gradientUnits="userSpaceOnUse">
<stop stop-color="#08FFFF"/>
<stop offset="1" stop-color="#007AFF"/>
</linearGradient>
<linearGradient id="paint1_linear_5478_71017" x1="20.5199" y1="5.13916" x2="6.57631" y2="19.6056" gradientUnits="userSpaceOnUse">
<stop stop-color="#08FFFF"/>
<stop offset="1" stop-color="#007AFF"/>
</linearGradient>
</defs>
</svg>
