<svg width="24" height="24" viewBox="0 0 24 24" fill="none" xmlns="http://www.w3.org/2000/svg">
<path d="M10.5822 15.1705C10.5822 13.445 11.9537 12.0465 13.6371 12.0465H19.3078V10.7268C19.3078 10.1989 18.8879 9.77344 18.3755 9.77344H10.4551C10.4667 9.95859 10.4705 10.1516 10.4744 10.3486L11.8227 10.3289C11.9228 10.3171 12.0346 10.3919 12.0846 10.4944C12.1347 10.5968 12.1232 10.7189 12.0538 10.8056L9.07598 14.7253C9.02205 14.7962 8.94115 14.8396 8.85254 14.8396H8.84869C8.76394 14.8396 8.67919 14.8002 8.62526 14.7332L5.52413 10.8883C5.45479 10.8016 5.43938 10.6795 5.48561 10.5771C5.53184 10.4747 5.632 10.4077 5.74372 10.4077L7.09203 10.388C7.09203 10.3644 7.09203 10.3368 7.09203 10.3131C7.09588 10.1556 7.09974 9.97435 7.09974 9.77738H4.36073C3.84837 9.7695 3.42847 10.1989 3.42847 10.7268V19.6142C3.42847 20.1421 3.84837 20.5675 4.36073 20.5675H18.3755C18.8917 20.5675 19.3078 20.1381 19.3078 19.6142V18.2945H13.641C11.9537 18.2945 10.5822 16.892 10.5822 15.1705Z" fill="url(#paint0_linear_5478_61556)"/>
<path d="M11.1599 15.1703C11.1599 16.5688 12.2732 17.7034 13.637 17.7034H20.5711V12.6333H13.6408C12.2732 12.6333 11.1599 13.7718 11.1599 15.1703ZM15.1432 15.1703C15.1432 16.0055 14.4922 16.687 13.687 16.687C12.8858 16.687 12.2309 16.0055 12.2309 15.1703C12.2309 14.3351 12.8819 13.6536 13.687 13.6536C14.4883 13.6536 15.1432 14.3351 15.1432 15.1703Z" fill="url(#paint1_linear_5478_61556)"/>
<path d="M7.67372 10.3209C7.66987 10.4549 7.66987 10.5731 7.66987 10.6755C7.66987 10.837 7.54274 10.967 7.3848 10.9709L6.35623 10.9828L8.84483 14.0713L11.2333 10.9276L10.1931 10.9434C10.12 10.9394 10.0429 10.9118 9.98512 10.8567C9.93119 10.8015 9.90037 10.7267 9.90037 10.6479V10.5652C9.91578 7.63422 8.97581 6.1451 8.18608 5.41236C7.4734 4.75053 6.54499 4.37235 5.41626 4.28174C7.77774 5.70782 7.70454 8.96969 7.67372 10.3209Z" fill="url(#paint2_linear_5478_61556)"/>
<defs>
<linearGradient id="paint0_linear_5478_61556" x1="19.3078" y1="15.1705" x2="3.42847" y2="15.1705" gradientUnits="userSpaceOnUse">
<stop stop-color="#FF6A00"/>
<stop offset="1" stop-color="#EE0979"/>
</linearGradient>
<linearGradient id="paint1_linear_5478_61556" x1="20.5711" y1="15.1683" x2="11.1599" y2="15.1683" gradientUnits="userSpaceOnUse">
<stop stop-color="#FF6A00"/>
<stop offset="1" stop-color="#EE0979"/>
</linearGradient>
<linearGradient id="paint2_linear_5478_61556" x1="11.2333" y1="9.17651" x2="5.41626" y2="9.17651" gradientUnits="userSpaceOnUse">
<stop stop-color="#FF6A00"/>
<stop offset="1" stop-color="#EE0979"/>
</linearGradient>
</defs>
</svg>
