<svg width="24" height="24" viewBox="0 0 24 24" fill="none" xmlns="http://www.w3.org/2000/svg">
<path fill-rule="evenodd" clip-rule="evenodd" d="M18.5039 7.01904H9.88269H9.87858V7.67865C9.87858 7.80163 9.73072 7.87989 9.6116 7.81653L5.73431 5.73708C5.6152 5.67373 5.6193 5.51721 5.73842 5.45758L9.61571 3.44521C9.73482 3.38558 9.88269 3.46384 9.88269 3.58682V4.25761H18.5039C18.7011 4.25761 18.8571 4.40295 18.8571 4.5781V6.69855C18.8571 6.87743 18.697 7.01904 18.5039 7.01904ZM9.7224 16.3729H13.4518V15.5679C13.4518 15.3071 13.764 15.1468 14.0104 15.281L15.1481 15.8884C16.5118 14.9791 17.325 13.5295 17.325 11.9941C17.325 10.1643 16.2078 8.51342 14.4088 7.68238L14.2897 7.6153H10.548V8.34572C10.548 8.6364 10.1988 8.819 9.92366 8.66994L8.85576 8.09604C7.49213 9.00533 6.67888 10.455 6.67888 11.9904C6.67888 13.8201 7.79607 15.471 9.59918 16.3021L9.7224 16.3729ZM9.43899 12.7357V12.3146H10.1003V11.7369H9.43899V11.3047H10.1003V11.2525C10.1003 10.6898 10.3138 10.2388 10.741 9.89972C11.1682 9.56433 11.7309 9.39663 12.4291 9.39663C12.6057 9.39663 12.7864 9.40408 12.9631 9.42272C13.1397 9.44135 13.3286 9.46744 13.5258 9.50097L13.4395 10.0525C13.2752 10.0152 13.1109 9.98544 12.9384 9.96308C12.7659 9.94072 12.5975 9.92954 12.4291 9.92954C11.9896 9.92954 11.6405 10.0488 11.3817 10.2873C11.123 10.5258 10.9957 10.8426 10.9957 11.2413V11.3009H13.2259V11.7332H10.9957V12.3108H13.2259V12.7431H11.0285L11.0203 12.7618C11.008 13.1531 11.1312 13.4661 11.39 13.7046C11.6487 13.9431 11.9978 14.0586 12.4414 14.0586C12.6139 14.0586 12.7823 14.0475 12.9548 14.0288C13.1232 14.0102 13.2875 13.9804 13.4436 13.9394L13.5299 14.4835C13.3615 14.517 13.1849 14.5431 12.9959 14.5617C12.8111 14.5804 12.6263 14.5878 12.4414 14.5878C11.7432 14.5878 11.1805 14.4201 10.7492 14.0847C10.318 13.7493 10.1044 13.3021 10.1044 12.7357H9.43899ZM14.1132 16.9728H5.49605C5.2989 16.9728 5.14282 17.1145 5.14282 17.2933V19.3243C5.14282 19.5479 5.34408 19.7305 5.59052 19.7305H14.1132V20.4125C14.1132 20.5318 14.2569 20.6063 14.3719 20.5467L18.2698 18.5306C18.3848 18.4709 18.3848 18.3219 18.2739 18.2623L14.376 16.1716C14.261 16.112 14.1173 16.1865 14.1173 16.3058V16.9728H14.1132Z" fill="url(#paint0_linear_5478_61532)"/>
<defs>
<linearGradient id="paint0_linear_5478_61532" x1="18.8571" y1="11.9962" x2="5.14282" y2="11.9962" gradientUnits="userSpaceOnUse">
<stop stop-color="#FF6A00"/>
<stop offset="1" stop-color="#EE0979"/>
</linearGradient>
</defs>
</svg>
