<svg width="16" height="16" viewBox="0 0 16 16" fill="none" xmlns="http://www.w3.org/2000/svg">
<path fill-rule="evenodd" clip-rule="evenodd" d="M10.5989 2.20471C10.7142 2.15165 10.8498 2.17053 10.9462 2.25304L14.4889 5.28591C14.5606 5.34726 14.6021 5.4367 14.6026 5.53103C14.6031 5.62535 14.5626 5.71525 14.4916 5.77737L10.9489 8.87783C10.8529 8.96182 10.7167 8.98192 10.6005 8.92923C10.4844 8.87654 10.4098 8.76079 10.4098 8.63327V7.24493H6.24584C6.06634 7.24493 5.92084 7.09942 5.92084 6.91993V4.21327C5.92084 4.03378 6.06634 3.88827 6.24584 3.88827H10.4098V2.49993C10.4098 2.37305 10.4837 2.25776 10.5989 2.20471ZM11.0598 3.20598V4.21327C11.0598 4.39276 10.9143 4.53827 10.7348 4.53827H6.57084V6.59493H10.7348C10.9143 6.59493 11.0598 6.74044 11.0598 6.91993V7.91696L13.781 5.53551L11.0598 3.20598ZM5.17688 7.57065C5.29299 7.62335 5.36756 7.73908 5.36756 7.8666V9.25576H9.53155C9.71104 9.25576 9.85655 9.40126 9.85655 9.58076V12.2858C9.85655 12.4653 9.71104 12.6108 9.53155 12.6108H5.36756V13.9999C5.36756 14.1268 5.2937 14.2421 5.17842 14.2952C5.06314 14.3482 4.92753 14.3293 4.83115 14.2468L1.28839 11.2124C1.21675 11.1511 1.1753 11.0616 1.17481 10.9673C1.17432 10.873 1.21483 10.7831 1.28583 10.721L4.82858 7.62198C4.92456 7.53803 5.06076 7.51795 5.17688 7.57065ZM1.99639 10.963L4.71756 13.2937V12.2858C4.71756 12.1063 4.86307 11.9608 5.04256 11.9608H9.20655V9.90576H5.04256C4.86307 9.90576 4.71756 9.76025 4.71756 9.58076V8.58269L1.99639 10.963Z" fill="url(#paint0_linear_5494_43358)"/>
<defs>
<linearGradient id="paint0_linear_5494_43358" x1="14.5623" y1="2.17493" x2="2.24672" y2="13.4719" gradientUnits="userSpaceOnUse">
<stop stop-color="#08FFFF"/>
<stop offset="1" stop-color="#007AFF"/>
</linearGradient>
</defs>
</svg>
