<svg width="24" height="24" viewBox="0 0 24 24" fill="none" xmlns="http://www.w3.org/2000/svg">
<path d="M7.71436 3.97969V20.0173C7.71436 20.3195 7.97539 20.5677 8.29812 20.5677H15.702C16.0248 20.5677 16.2858 20.3195 16.2858 20.0128V3.97969C16.281 3.67292 16.02 3.4248 15.702 3.4248H14.3114C14.2972 3.94811 13.8463 4.37217 13.291 4.37217H10.7091C10.1538 4.37217 9.70297 3.94811 9.68873 3.4248H8.29812C7.97539 3.4248 7.71436 3.67292 7.71436 3.97969ZM10.5525 13.4308H9.69822V15.4383H9.12394V13.4308H8.27914V13.0293H10.5525V13.4308ZM13.0252 20.2744H10.9749C10.842 20.2744 10.7376 20.1752 10.7376 20.0489C10.7376 19.9225 10.842 19.8233 10.9749 19.8233H13.0252C13.1581 19.8233 13.2625 19.9225 13.2625 20.0489C13.2625 20.1752 13.1534 20.2744 13.0252 20.2744ZM10.7661 14.3015V14.1842C10.7661 13.9451 10.8135 13.7376 10.9132 13.5571C11.0129 13.3767 11.1505 13.2368 11.3309 13.1421C11.5112 13.0474 11.7201 12.9977 11.9526 12.9977C12.1852 12.9977 12.3892 13.0474 12.5743 13.1421C12.7547 13.2368 12.8971 13.3767 12.992 13.5571C13.0917 13.7376 13.1391 13.9451 13.1391 14.1842V14.2925C13.1391 14.5316 13.0917 14.7391 12.992 14.915C12.8971 15.0955 12.7547 15.2308 12.5743 15.3301C12.394 15.4293 12.1852 15.4744 11.9526 15.4744C11.7201 15.4744 11.516 15.4248 11.3356 15.3301C11.1553 15.2353 11.0129 15.0955 10.9132 14.9195C10.8135 14.7436 10.7661 14.5316 10.7661 14.3015ZM15.2227 13.1286C15.3793 13.1962 15.5027 13.291 15.5881 13.4128C15.6735 13.5346 15.7163 13.6744 15.7163 13.8278C15.7163 14.0624 15.6213 14.2519 15.4362 14.3872C15.2511 14.5225 14.9901 14.5902 14.6579 14.5902H14.1548V15.4383H13.5805V13.0293H14.6674C14.8809 13.0293 15.0613 13.0609 15.2227 13.1286ZM9.7172 9.84886L11.9336 7.28195C11.9763 7.22781 12.0475 7.20074 12.114 7.20074C12.1852 7.20074 12.2516 7.23232 12.2943 7.28195L14.5582 9.84886C14.6199 9.91653 14.6294 10.0113 14.5914 10.088C14.5535 10.1692 14.468 10.2188 14.3779 10.2188H13.3622V12.2218C13.3622 12.3481 13.2578 12.4474 13.1249 12.4474H11.1505C11.0176 12.4474 10.9132 12.3481 10.9132 12.2218V10.2188H9.89755C9.80738 10.2188 9.72195 10.1692 9.68398 10.088C9.64601 10.0113 9.6555 9.91653 9.7172 9.84886Z" fill="url(#paint0_linear_5478_59277)"/>
<defs>
<linearGradient id="paint0_linear_5478_59277" x1="16.2858" y1="11.9962" x2="7.71436" y2="11.9962" gradientUnits="userSpaceOnUse">
<stop stop-color="#FF6A00"/>
<stop offset="1" stop-color="#EE0979"/>
</linearGradient>
</defs>
</svg>
