<svg width="24" height="24" viewBox="0 0 24 24" fill="none" xmlns="http://www.w3.org/2000/svg">
<path fill-rule="evenodd" clip-rule="evenodd" d="M6.46637 3.87639C5.98442 3.9662 5.61369 4.16834 5.24875 4.54024C4.77568 5.02233 4.58381 5.49087 4.58348 6.16465C4.58324 6.60772 4.63483 6.85117 4.80361 7.20396C5.08294 7.78777 5.66316 8.26869 6.29008 8.43606C6.59516 8.5175 7.14101 8.50958 7.46482 8.41906C8.24508 8.20094 8.87451 7.54643 9.07478 6.74495C9.14154 6.4777 9.14898 5.91834 9.08925 5.65263C9.01657 5.32924 8.77941 4.87357 8.55244 4.62121C8.11535 4.13527 7.5912 3.88468 6.96 3.85993C6.77577 3.85273 6.55366 3.86014 6.46637 3.87639ZM16.7495 3.87642C15.8903 4.03651 15.1505 4.73136 14.9311 5.58436C14.8552 5.87929 14.8534 6.44995 14.9274 6.74495C15.1286 7.54722 15.7573 8.20094 16.5375 8.41906C16.8613 8.50958 17.4072 8.5175 17.7123 8.43606C18.3392 8.26869 18.9194 7.78777 19.1987 7.20396C19.3675 6.85117 19.4191 6.60772 19.4189 6.16465C19.4185 5.49087 19.2267 5.02233 18.7536 4.54024C18.3083 4.08649 17.8608 3.88496 17.2433 3.86024C17.0591 3.85287 16.8369 3.86014 16.7495 3.87642ZM11.6175 6.20323C10.8378 6.27959 10.1832 6.60366 9.58054 7.21174C9.14499 7.65123 8.88044 8.1015 8.6944 8.72003C8.6124 8.99256 8.60557 9.06281 8.60419 9.64641C8.60289 10.2031 8.61187 10.3122 8.68023 10.568C8.92626 11.4889 9.56192 12.3032 10.3966 12.767C11.3427 13.2926 12.6596 13.2926 13.6058 12.767C14.4404 12.3032 15.0761 11.4889 15.3221 10.568C15.3905 10.3122 15.3995 10.2031 15.3982 9.64641C15.3968 9.06281 15.39 8.99256 15.308 8.72003C15.1219 8.1015 14.8574 7.65123 14.4218 7.21174C13.7989 6.58325 13.1701 6.28054 12.3194 6.19971C12.1167 6.18046 11.9434 6.16677 11.9342 6.1693C11.925 6.17182 11.7825 6.18708 11.6175 6.20323ZM4.24681 8.57345C3.79437 8.81236 3.56218 9.47369 3.45687 10.8233C3.39975 11.5548 3.42866 12.0423 3.54469 12.3058C3.71529 12.6932 4.13928 12.9983 4.66303 13.1106C4.836 13.1477 5.11031 13.1623 5.63167 13.1623H6.35901L6.57576 12.9374C7.06983 12.4247 7.67039 12.1285 8.40962 12.0328L8.72036 11.9925L8.66579 11.9077C8.38486 11.4708 8.18295 10.9726 8.08125 10.4657C8.02203 10.1702 8.01135 10.0169 8.02062 9.59347L8.03188 9.07967L7.73041 9.16105C7.31305 9.27373 6.69062 9.30104 6.31362 9.22317C5.91937 9.14176 5.51779 8.9927 5.0123 8.74006C4.54663 8.5073 4.423 8.4804 4.24681 8.57345ZM19.0002 8.73634C18.5403 8.97105 17.9769 9.17545 17.6136 9.23935C17.2769 9.29858 16.6461 9.26168 16.2719 9.16088L15.9705 9.07967L15.9817 9.59347C15.991 10.0169 15.9803 10.1702 15.9211 10.4657C15.8194 10.9726 15.6175 11.4708 15.3366 11.9077L15.282 11.9925L15.5927 12.0328C16.332 12.1285 16.9325 12.4247 17.4266 12.9374L17.6433 13.1623H18.3707C18.8921 13.1623 19.1664 13.1477 19.3393 13.1106C19.8642 12.998 20.287 12.6933 20.4585 12.3038C20.537 12.1256 20.5526 12.0364 20.5674 11.6818C20.5857 11.2454 20.5382 10.513 20.4594 10.0149C20.3612 9.3932 20.1766 8.92978 19.9408 8.71265C19.6617 8.45572 19.5443 8.45866 19.0002 8.73634ZM8.27664 12.6356C7.05687 12.8605 6.26381 13.891 5.90601 15.716C5.7738 16.3904 5.73709 16.7764 5.73019 17.5657C5.72553 18.0979 5.73601 18.2792 5.78247 18.4703C5.979 19.2783 6.59097 19.8865 7.40258 20.0806C7.64808 20.1392 7.91839 20.1429 12.0012 20.1429C16.084 20.1429 16.3543 20.1392 16.5998 20.0806C17.341 19.9034 17.9302 19.3717 18.16 18.6728C18.2763 18.3189 18.3024 17.9529 18.2658 17.1869C18.1523 14.8075 17.4373 13.2763 16.2052 12.7736C15.9436 12.6669 15.4218 12.569 15.2308 12.5909C15.1378 12.6015 14.9878 12.6753 14.7619 12.8215C14.5791 12.9398 14.3039 13.1181 14.1502 13.2177C13.9964 13.3173 13.7854 13.4318 13.6812 13.4722C12.8787 13.7832 12.6896 13.8227 12.0012 13.824C11.3829 13.8251 11.1197 13.7765 10.5318 13.5525C10.1268 13.3982 10.0925 13.3797 9.55596 13.0254C8.81274 12.5347 8.81716 12.536 8.27664 12.6356Z" fill="url(#paint0_linear_5478_41519)"/>
<defs>
<linearGradient id="paint0_linear_5478_41519" x1="-6.61235" y1="27.1225" x2="22.4651" y2="1.57479" gradientUnits="userSpaceOnUse">
<stop stop-color="#0154B8"/>
<stop offset="1" stop-color="#52C234"/>
</linearGradient>
</defs>
</svg>
