<svg width="24" height="24" viewBox="0 0 24 24" fill="none" xmlns="http://www.w3.org/2000/svg">
<path fill-rule="evenodd" clip-rule="evenodd" d="M16.4353 7.92365V9.85338C17.7711 9.85338 18.8546 10.9584 18.8571 12.3252V18.0935C18.8571 19.458 17.7761 20.5677 16.4378 20.5677H7.56212C6.22631 20.5677 5.14282 19.4603 5.14282 18.0935V12.3252C5.14282 10.963 6.22384 9.85338 7.56212 9.85338V7.92365C7.56212 7.92365 7.4038 3.4248 11.9876 3.4248C16.5689 3.4248 16.4353 7.92365 16.4353 7.92365ZM9.70436 9.85338H9.7093H14.2857V7.71515C14.2783 7.27268 14.1472 5.56998 11.995 5.56998C9.84288 5.56998 9.71178 7.26341 9.70436 7.71515V9.85338ZM13.2861 17.7206V15.9762C13.9713 15.6194 14.5947 15.0426 14.5972 14.2874C14.6021 13.1546 13.578 12.2372 12.3115 12.2372C11.0474 12.2372 10.0208 13.1546 10.0208 14.2874C10.0208 15.0426 10.6467 15.6218 11.3269 15.9762V17.7206C11.3269 18.2279 11.7648 18.638 12.3065 18.638C12.8483 18.638 13.2861 18.2279 13.2861 17.7206Z" fill="url(#paint0_linear_5478_54961)"/>
<defs>
<linearGradient id="paint0_linear_5478_54961" x1="18.816" y1="3.4248" x2="2.74123" y2="14.0984" gradientUnits="userSpaceOnUse">
<stop stop-color="#08FFFF"/>
<stop offset="1" stop-color="#007AFF"/>
</linearGradient>
</defs>
</svg>
