<svg width="24" height="24" viewBox="0 0 24 24" fill="none" xmlns="http://www.w3.org/2000/svg">
<path d="M4.28516 11.0961L5.59149 13.2135L6.77699 11.0276L4.28516 11.0961Z" fill="url(#paint0_linear_5483_55647)"/>
<path d="M20.4196 12.9039L19.1133 10.7865L17.9257 12.9725L20.4196 12.9039Z" fill="url(#paint1_linear_5483_55647)"/>
<path fill-rule="evenodd" clip-rule="evenodd" d="M4.90152 11.3766C5.22112 7.54943 8.43393 4.54297 12.352 4.54297C14.7887 4.54297 16.9453 5.71261 18.3093 7.50835C18.5098 7.77223 18.4583 8.14863 18.1944 8.34906C17.9306 8.5495 17.5542 8.49806 17.3537 8.23418C16.205 6.72189 14.3948 5.74297 12.352 5.74297C9.06122 5.74297 6.3653 8.2679 6.09736 11.4765C6.06978 11.8067 5.77973 12.0521 5.44951 12.0245C5.11929 11.9969 4.87395 11.7069 4.90152 11.3766ZM12.3437 8.61891C12.675 8.61433 12.9473 8.87923 12.9519 9.21057L13.005 13.0546L14.8577 12.314C15.1654 12.191 15.5146 12.3407 15.6376 12.6484C15.7606 12.9561 15.6108 13.3053 15.3031 13.4283L12.6398 14.4929C12.4563 14.5663 12.2485 14.5446 12.0841 14.4349C11.9197 14.3252 11.8199 14.1416 11.8172 13.9441L11.752 9.22714C11.7475 8.8958 12.0124 8.62348 12.3437 8.61891ZM19.2544 11.9757C19.5846 12.0033 19.83 12.2934 19.8024 12.6236C19.4828 16.4508 16.27 19.4572 12.3519 19.4572C9.91525 19.4572 7.7586 18.2876 6.39461 16.4919C6.19418 16.228 6.24561 15.8516 6.50949 15.6511C6.77337 15.4507 7.14977 15.5021 7.35021 15.766C8.4989 17.2783 10.3092 18.2572 12.3519 18.2572C15.6427 18.2572 18.3386 15.7323 18.6066 12.5237C18.6341 12.1935 18.9242 11.9481 19.2544 11.9757Z" fill="url(#paint2_linear_5483_55647)"/>
<defs>
<linearGradient id="paint0_linear_5483_55647" x1="20.3712" y1="4.54297" x2="5.28486" y2="18.0891" gradientUnits="userSpaceOnUse">
<stop stop-color="#08FFFF"/>
<stop offset="1" stop-color="#007AFF"/>
</linearGradient>
<linearGradient id="paint1_linear_5483_55647" x1="20.3712" y1="4.54297" x2="5.28486" y2="18.0891" gradientUnits="userSpaceOnUse">
<stop stop-color="#08FFFF"/>
<stop offset="1" stop-color="#007AFF"/>
</linearGradient>
<linearGradient id="paint2_linear_5483_55647" x1="20.3712" y1="4.54297" x2="5.28486" y2="18.0891" gradientUnits="userSpaceOnUse">
<stop stop-color="#08FFFF"/>
<stop offset="1" stop-color="#007AFF"/>
</linearGradient>
</defs>
</svg>
