<svg width="24" height="24" viewBox="0 0 24 24" fill="none" xmlns="http://www.w3.org/2000/svg">
<path d="M9.34392 10.9365C6.55287 10.9365 4.28564 13.0989 4.28564 15.7521C4.28564 18.4054 6.55287 20.5677 9.34392 20.5677C12.1309 20.5677 14.4022 18.4093 14.4022 15.7521C14.4022 13.095 12.1309 10.9365 9.34392 10.9365ZM12.4296 16.3364L9.42168 17.4857C9.37257 17.5052 9.31937 17.513 9.27026 17.513C9.1925 17.513 9.11065 17.4896 9.04517 17.4468C8.93468 17.3767 8.86511 17.2559 8.86101 17.1312L8.78735 13.3013C8.78326 13.087 8.96333 12.9078 9.18841 12.9039C9.1925 12.9039 9.1925 12.9039 9.1966 12.9039C9.41759 12.9039 9.60175 13.0754 9.60584 13.2857L9.66723 16.5507L12.1268 15.6117C12.3355 15.5299 12.5729 15.6273 12.6588 15.8299C12.7407 16.0286 12.6384 16.2585 12.4296 16.3364Z" fill="url(#paint0_linear_5478_61604)"/>
<path d="M19.6733 6.45987H16.7308V3.4248H9.31118C8.89784 3.4248 8.56226 3.74429 8.56226 4.13779V10.2118C8.82008 10.1806 9.07791 10.1573 9.34392 10.1573C11.6521 10.1573 13.6451 11.4313 14.6068 13.2781H17.7089C17.934 13.2781 18.1181 13.4534 18.1181 13.6677C18.1181 13.8819 17.934 14.0573 17.7089 14.0573H14.9424C15.1225 14.591 15.2207 15.1599 15.2207 15.7521C15.2207 16.5547 15.0406 17.3183 14.7173 18.0079H18.9653C19.3786 18.0079 19.7142 17.6884 19.7142 17.2949V6.50273L19.6733 6.45987ZM17.4797 9.36247H10.8786C10.6535 9.36247 10.4693 9.18714 10.4693 8.97286C10.4693 8.75857 10.6535 8.58325 10.8786 8.58325H17.4838C17.7089 8.58325 17.8931 8.75857 17.8931 8.97286C17.889 9.18714 17.7089 9.36247 17.4797 9.36247Z" fill="url(#paint1_linear_5478_61604)"/>
<path d="M19.7101 5.84807L17.5001 3.45586C17.4674 3.4247 17.5001 5.84807 17.5001 5.84807H19.7101Z" fill="url(#paint2_linear_5478_61604)"/>
<defs>
<linearGradient id="paint0_linear_5478_61604" x1="14.3719" y1="10.9365" x2="4.66449" y2="19.3997" gradientUnits="userSpaceOnUse">
<stop stop-color="#08FFFF"/>
<stop offset="1" stop-color="#007AFF"/>
</linearGradient>
<linearGradient id="paint1_linear_5478_61604" x1="19.6808" y1="3.4248" x2="6.25499" y2="11.9463" gradientUnits="userSpaceOnUse">
<stop stop-color="#08FFFF"/>
<stop offset="1" stop-color="#007AFF"/>
</linearGradient>
<linearGradient id="paint2_linear_5478_61604" x1="19.7034" y1="3.45557" x2="17.3488" y2="5.27267" gradientUnits="userSpaceOnUse">
<stop stop-color="#08FFFF"/>
<stop offset="1" stop-color="#007AFF"/>
</linearGradient>
</defs>
</svg>
