<svg width="24" height="24" viewBox="0 0 24 24" fill="none" xmlns="http://www.w3.org/2000/svg">
<path d="M8.82847 10.8829L5.23965 14.2582V11.2797C5.23965 10.72 4.83344 10.2646 4.33406 10.2646C3.83468 10.2646 3.42847 10.7158 3.42847 11.2756V17.8382C3.42847 18.398 3.83468 18.8533 4.33406 18.8533C4.83344 18.8533 5.23965 18.398 5.23965 17.8382V14.6968L8.82847 17.9969V16.0085H13.6806V12.8671H8.82847V10.8829Z" fill="url(#paint0_linear_5478_54941)"/>
<path d="M19.6657 5.13916C19.1663 5.13916 18.7601 5.59449 18.7601 6.15426V9.15778L15.1713 5.85767V7.84609H10.3191V10.9875H15.1713V12.9759L18.7601 9.60058V12.7211C18.7601 13.2808 19.1663 13.7362 19.6657 13.7362C20.1651 13.7362 20.5713 13.2766 20.5713 12.7169V6.15426C20.5713 5.59449 20.1651 5.13916 19.6657 5.13916Z" fill="url(#paint1_linear_5478_54941)"/>
<defs>
<linearGradient id="paint0_linear_5478_54941" x1="13.6806" y1="14.559" x2="3.42847" y2="14.559" gradientUnits="userSpaceOnUse">
<stop stop-color="#FF6A00"/>
<stop offset="1" stop-color="#EE0979"/>
</linearGradient>
<linearGradient id="paint1_linear_5478_54941" x1="20.5713" y1="9.43766" x2="10.3191" y2="9.43766" gradientUnits="userSpaceOnUse">
<stop stop-color="#FF6A00"/>
<stop offset="1" stop-color="#EE0979"/>
</linearGradient>
</defs>
</svg>
