<svg width="24" height="24" viewBox="0 0 24 24" fill="none" xmlns="http://www.w3.org/2000/svg">
<path d="M15.3189 5.37823H17.191C17.2846 5.37823 17.4251 5.3316 17.4719 5.23834C17.5187 5.09844 17.5655 5.00518 17.5187 4.91191L16.8634 3.23316C16.8166 3.1399 16.7698 3.09326 16.6762 3.04663C16.5826 3 16.489 3 16.3954 3.04663C16.2082 3.1399 16.1145 3.32642 16.2082 3.46632L16.489 4.11917L16.2082 3.97927C14.8508 3.32642 13.4467 3 11.9958 3C9.6556 3 7.36221 3.88601 5.63046 5.61139C2.5414 8.64248 2.12016 13.3989 4.64758 16.8963C4.74118 17.0362 4.9752 17.0829 5.11562 16.9896C5.25603 16.8963 5.30283 16.6632 5.20922 16.5233C2.86903 13.3057 3.29026 8.92227 6.1453 6.07772C8.62591 3.65285 12.417 3 15.5997 4.49223L16.0677 4.72539H15.3189C15.1317 4.72539 14.9912 4.86528 14.9912 5.05181C14.9912 5.23834 15.1317 5.37823 15.3189 5.37823Z" fill="url(#paint0_linear_5478_59658)"/>
<path d="M7.68982 19.8808C9.00033 20.5803 10.4981 21 11.9958 21C14.3828 21 16.6762 20.0674 18.3611 18.4352C21.4502 15.4042 21.8714 10.6477 19.3908 7.15028C19.2972 7.01038 19.0632 6.96375 18.9228 7.05702C18.7824 7.15028 18.7356 7.38344 18.8292 7.52334C21.1226 10.7409 20.7481 15.1244 17.8931 17.9223C15.2721 20.487 11.2937 21.0466 8.06425 19.3212L7.64302 19.0881H8.48549C8.5791 19.0881 8.6259 19.0881 8.71951 19.0415C8.81312 18.9948 8.85992 18.8549 8.85992 18.7617C8.85992 18.6684 8.81312 18.5751 8.76631 18.5285C8.71951 18.4819 8.6259 18.4352 8.53229 18.4352H6.70694C6.61333 18.4352 6.47292 18.4819 6.42612 18.5751C6.33251 18.6218 6.2857 18.7617 6.33251 18.8549L7.03457 20.5337C7.08137 20.7202 7.31539 20.7668 7.4558 20.7202C7.54941 20.6736 7.59621 20.6269 7.64302 20.5337C7.68982 20.4404 7.68982 20.3472 7.64302 20.2539L7.409 19.6477L7.68982 19.8808Z" fill="url(#paint1_linear_5478_59658)"/>
<path d="M9.74911 14.5647H14.2891C14.4763 14.5647 14.6167 14.4248 14.6167 14.2383V10.9741H16.1613C16.3017 10.9741 16.3953 10.8808 16.4889 10.7875C16.5357 10.6476 16.5357 10.5077 16.4421 10.4145L12.2765 5.89118C12.1361 5.75128 11.9021 5.75128 11.7617 5.89118L7.59613 10.4611C7.50252 10.5544 7.50252 10.6943 7.54933 10.8342C7.59613 10.9741 7.73654 11.0207 7.87696 11.0207H9.84272C10.0299 11.0207 10.1703 10.8808 10.1703 10.6943C10.1703 10.5077 10.0299 10.3679 9.84272 10.3679H8.62582L12.0425 6.63729L15.4592 10.3212H14.3359C14.1487 10.3212 14.0083 10.4611 14.0083 10.6476V13.9119H10.1235V12.4663C10.1235 12.2798 9.98313 12.1399 9.79592 12.1399C9.6087 12.1399 9.46829 12.2798 9.46829 12.4663V14.2383C9.42149 14.4248 9.5619 14.5647 9.74911 14.5647Z" fill="url(#paint2_linear_5478_59658)"/>
<path d="M14.2894 15.7772H9.74938C9.56216 15.7772 9.42175 15.9171 9.42175 16.1036C9.42175 16.2902 9.56216 16.4301 9.74938 16.4301H14.2894C14.4766 16.4301 14.617 16.2902 14.617 16.1036C14.617 15.9171 14.4766 15.7772 14.2894 15.7772Z" fill="url(#paint3_linear_5478_59658)"/>
<path d="M13.4 17.5492H10.6854C10.4982 17.5492 10.3578 17.6891 10.3578 17.8756C10.3578 18.0622 10.4982 18.2021 10.6854 18.2021H13.4C13.5873 18.2021 13.7277 18.0622 13.7277 17.8756C13.7277 17.6891 13.5873 17.5492 13.4 17.5492Z" fill="url(#paint4_linear_5478_59658)"/>
<path fill-rule="evenodd" clip-rule="evenodd" d="M5.4899 5.46898C7.26067 3.70501 9.60529 2.7998 11.9959 2.7998C13.4059 2.7998 14.7722 3.10185 16.0929 3.7042L16.0307 3.5595C15.9504 3.42615 15.9585 3.27681 16.015 3.15473C16.0723 3.03108 16.1791 2.93077 16.3062 2.86742C16.456 2.79281 16.6157 2.79281 16.7654 2.86742C16.8243 2.89673 16.8793 2.93145 16.9286 2.98053C16.9779 3.02963 17.0128 3.08453 17.0422 3.14326L17.0464 3.15158L17.7022 4.83183C17.7484 4.93043 17.7426 5.0247 17.7256 5.10098C17.7146 5.15039 17.694 5.20882 17.677 5.25731C17.6713 5.2734 17.666 5.28839 17.6616 5.3016L17.6571 5.31511L17.6507 5.32785C17.5983 5.43227 17.5047 5.49289 17.43 5.52594C17.3528 5.56013 17.2668 5.57804 17.1911 5.57804H15.3189C15.022 5.57804 14.7913 5.34929 14.7913 5.05161C14.7913 4.79258 14.966 4.58573 15.207 4.5364C12.1663 3.2601 8.62727 3.93161 6.28586 6.21987C3.49822 8.99789 3.09146 13.2712 5.37103 16.4055L5.37564 16.4118C5.4587 16.5359 5.47173 16.6866 5.44633 16.8131C5.42092 16.9397 5.35069 17.0734 5.22634 17.156C5.10208 17.2385 4.95154 17.2516 4.82502 17.2264C4.69969 17.2014 4.56687 17.1327 4.48371 17.0108C1.89998 13.4329 2.33218 8.56795 5.4899 5.46898ZM11.9959 3.1998C9.70628 3.1998 7.46434 4.06644 5.77168 5.75288L5.7706 5.75396C2.75144 8.71645 2.34083 13.3626 4.80974 16.779L4.81397 16.7849C4.82458 16.8007 4.85417 16.8243 4.90319 16.8341C4.95219 16.8438 4.98886 16.8336 5.00502 16.8228C5.02108 16.8122 5.04445 16.7827 5.05415 16.7344C5.06346 16.688 5.05441 16.653 5.04435 16.6363C2.64729 13.336 3.08367 8.84565 6.0042 5.93584L6.00555 5.93449C8.5459 3.45124 12.4266 2.78337 15.6847 4.31095L15.689 4.31296L16.157 4.54617L16.0678 4.92519H15.3189C15.2415 4.92519 15.1913 4.97624 15.1913 5.05161C15.1913 5.12699 15.2415 5.17804 15.3189 5.17804H17.1911C17.209 5.17804 17.24 5.17263 17.2681 5.16019C17.2791 5.15533 17.2868 5.15061 17.2917 5.147C17.2963 5.13377 17.301 5.12041 17.3052 5.10824C17.3096 5.09594 17.3135 5.08486 17.3164 5.07639C17.326 5.04813 17.3319 5.02895 17.3352 5.01391C17.3371 5.00563 17.3378 5.00046 17.338 4.99753L17.3358 4.99311L16.6808 3.31503C16.6656 3.28585 16.6548 3.27238 16.6463 3.26389C16.637 3.25469 16.6218 3.24277 16.5871 3.22545C16.5496 3.2068 16.5221 3.2068 16.4846 3.22545C16.4246 3.25537 16.3909 3.29495 16.378 3.32286C16.3675 3.34539 16.3723 3.35197 16.3741 3.35447C16.374 3.35434 16.3742 3.35463 16.3741 3.35447L16.3847 3.37019L16.8885 4.5414L16.1203 4.15872C14.7894 3.51877 13.4152 3.1998 11.9959 3.1998ZM11.6206 5.7493C11.839 5.53164 12.1993 5.53164 12.4178 5.7493L12.4238 5.75537L16.5867 10.2761C16.7581 10.4502 16.7335 10.6866 16.6786 10.8508L16.6636 10.8956L16.6301 10.929C16.6262 10.9329 16.6222 10.937 16.618 10.9412C16.5334 11.026 16.3861 11.1739 16.1613 11.1739H14.8168V14.2381C14.8168 14.5358 14.5861 14.7645 14.2892 14.7645H9.74918C9.60678 14.7645 9.46809 14.7111 9.37259 14.6053C9.27947 14.5023 9.23993 14.3626 9.26835 14.2164V12.4661C9.26835 12.1684 9.499 11.9397 9.79598 11.9397C10.093 11.9397 10.3236 12.1684 10.3236 12.4661V13.7117H13.8083V10.6474C13.8083 10.3498 14.039 10.121 14.336 10.121H15.001L12.0435 6.9322L9.08026 10.1677H9.84278C10.1398 10.1677 10.3704 10.3964 10.3704 10.6941C10.3704 10.9918 10.1398 11.2205 9.84278 11.2205H7.87702C7.70949 11.2205 7.44872 11.1634 7.35972 10.8974C7.30483 10.7334 7.28026 10.4972 7.4512 10.3231L11.6206 5.7493ZM11.9056 6.03L7.73752 10.6028C7.7291 10.6112 7.72161 10.6229 7.71931 10.6481C7.71672 10.6766 7.72142 10.7178 7.73906 10.7705C7.7435 10.7838 7.74992 10.792 7.76728 10.8007C7.7894 10.8117 7.82633 10.8205 7.87702 10.8205H9.84278C9.92024 10.8205 9.97041 10.7695 9.97041 10.6941C9.97041 10.6187 9.92024 10.5677 9.84278 10.5677H8.1715L12.0416 6.34198L15.9175 10.521H14.336C14.2585 10.521 14.2083 10.5721 14.2083 10.6474V14.1117H9.92361V12.4661C9.92361 12.3907 9.87343 12.3397 9.79598 12.3397C9.71853 12.3397 9.66835 12.3907 9.66835 12.4661V14.2628L9.66234 14.2868C9.65795 14.3043 9.65918 14.3151 9.66056 14.3208C9.66197 14.3266 9.66465 14.3319 9.66942 14.3372C9.67923 14.3481 9.70435 14.3645 9.74918 14.3645H14.2892C14.3666 14.3645 14.4168 14.3135 14.4168 14.2381V10.7739H16.1613C16.183 10.7739 16.2036 10.7678 16.232 10.749C16.2564 10.7328 16.2806 10.7114 16.3114 10.6816C16.319 10.6487 16.3209 10.6218 16.319 10.6015C16.3167 10.5763 16.3094 10.5644 16.301 10.556L16.2949 10.5499L12.133 6.03028C12.0712 5.97141 11.9676 5.97132 11.9056 6.03ZM19.5553 7.03628C19.4722 6.91385 19.3391 6.8449 19.2135 6.81987C19.087 6.79467 18.9364 6.80769 18.8122 6.89022C18.6878 6.97282 18.6176 7.10658 18.5922 7.23313C18.5668 7.35966 18.5799 7.51022 18.663 7.63437L18.6664 7.63923C20.9025 10.7766 20.538 15.0502 17.7532 17.7792C15.2702 20.2088 11.5393 20.7951 8.43941 19.2879L8.49207 19.2879C8.53369 19.2879 8.58361 19.2879 8.63532 19.2794C8.69471 19.2695 8.74896 19.2501 8.80875 19.2203C8.91328 19.1682 8.97422 19.075 9.00753 19.0003C9.04193 18.9232 9.05998 18.8372 9.05998 18.7615C9.05998 18.6114 8.98939 18.4682 8.90754 18.3866C8.82569 18.3051 8.68223 18.235 8.53236 18.235H6.707C6.63129 18.235 6.54528 18.253 6.46806 18.2871C6.40771 18.3139 6.33498 18.3586 6.28164 18.43C6.20875 18.4842 6.16154 18.5607 6.13705 18.6339C6.10757 18.722 6.10143 18.8341 6.1502 18.937L6.84512 20.5987C6.89304 20.7637 7.02084 20.8591 7.1431 20.9026C7.26524 20.9461 7.40465 20.9478 7.5189 20.9098L7.53236 20.9054L7.54505 20.899C7.60388 20.8697 7.65892 20.835 7.70819 20.7859C7.75747 20.7368 7.79236 20.6819 7.82184 20.6232C7.89473 20.4779 7.8969 20.3232 7.82834 20.1774C9.10786 20.8182 10.5499 21.1998 11.9958 21.1998C14.4345 21.1998 16.7779 20.2471 18.5003 18.5787L18.5013 18.5778C21.6596 15.4788 22.0915 10.614 19.5553 7.03628ZM7.80192 19.7137C9.08266 20.3939 10.5415 20.7998 11.9958 20.7998C14.3309 20.7998 16.5741 19.8874 18.2215 18.2919C21.2404 15.3293 21.6512 10.6826 19.2277 7.26579L19.2246 7.26135C19.214 7.24549 19.1843 7.22193 19.1353 7.21216C19.0863 7.2024 19.0496 7.21269 19.0335 7.22342C19.0174 7.23408 18.9941 7.26354 18.9844 7.31186C18.975 7.35871 18.9843 7.39394 18.9945 7.41041C21.3424 10.708 20.9574 15.1991 18.0331 18.0649C15.3495 20.691 11.2762 21.2638 7.97007 19.4975L7.96745 19.4961L6.86877 18.8879H8.48555C8.53628 18.8879 8.55404 18.8874 8.5698 18.8848C8.58062 18.883 8.59658 18.8791 8.63039 18.8622C8.62399 18.8654 8.62348 18.8676 8.62715 18.8632C8.63087 18.8587 8.63645 18.8503 8.64223 18.8374C8.65463 18.8096 8.65998 18.779 8.65998 18.7615C8.65998 18.7471 8.65605 18.7274 8.64701 18.7064C8.6427 18.6964 8.63791 18.6877 8.63341 18.6808C8.6312 18.6774 8.62924 18.6748 8.62769 18.6729L8.62587 18.6707C8.62543 18.6702 8.62586 18.6707 8.62587 18.6707C8.62588 18.6707 8.62514 18.6699 8.62496 18.6697C8.62485 18.6696 8.62516 18.6699 8.62496 18.6697L8.62231 18.6675C8.62116 18.6666 8.61977 18.6655 8.61812 18.6644C8.61696 18.6636 8.61567 18.6627 8.61426 18.6618C8.60731 18.6573 8.5985 18.6524 8.58838 18.6481C8.56714 18.6391 8.54711 18.635 8.53236 18.635H6.707C6.6891 18.635 6.65811 18.6404 6.63002 18.6529C6.61691 18.6587 6.60841 18.6643 6.60388 18.668C6.60344 18.6684 6.60306 18.6687 6.60274 18.669L6.57503 18.7242L6.52095 18.7512C6.51961 18.7532 6.51784 18.7565 6.51639 18.7608C6.51498 18.765 6.51443 18.7685 6.51427 18.7709L6.51753 18.7774L7.22495 20.4702L7.22862 20.4848C7.23145 20.4961 7.23966 20.5124 7.27719 20.5258C7.31352 20.5387 7.35449 20.5391 7.38174 20.5332C7.4061 20.52 7.41808 20.5103 7.42586 20.5026C7.43509 20.4934 7.44699 20.4783 7.46433 20.4438C7.4828 20.407 7.4828 20.3802 7.46433 20.3434L7.45999 20.3347L6.94587 19.003L7.80192 19.7137ZM9.22182 16.1035C9.22182 15.8058 9.45246 15.577 9.74944 15.577H14.2894C14.5864 15.577 14.8171 15.8058 14.8171 16.1035C14.8171 16.4011 14.5864 16.6299 14.2894 16.6299H9.74944C9.45246 16.6299 9.22182 16.4011 9.22182 16.1035ZM9.74944 15.977C9.67199 15.977 9.62181 16.0281 9.62181 16.1035C9.62181 16.1788 9.67199 16.2299 9.74944 16.2299H14.2894C14.3669 16.2299 14.4171 16.1788 14.4171 16.1035C14.4171 16.0281 14.3669 15.977 14.2894 15.977H9.74944ZM10.1578 17.8754C10.1578 17.5778 10.3885 17.349 10.6855 17.349H13.4001C13.6971 17.349 13.9277 17.5778 13.9277 17.8754C13.9277 18.1731 13.6971 18.4019 13.4001 18.4019H10.6855C10.3885 18.4019 10.1578 18.1731 10.1578 17.8754ZM10.6855 17.749C10.608 17.749 10.5578 17.8001 10.5578 17.8754C10.5578 17.9508 10.608 18.0019 10.6855 18.0019H13.4001C13.4776 18.0019 13.5277 17.9508 13.5277 17.8754C13.5277 17.8001 13.4776 17.749 13.4001 17.749H10.6855Z" fill="url(#paint5_linear_5478_59658)"/>
<defs>
<linearGradient id="paint0_linear_5478_59658" x1="20.946" y1="3" x2="2.94601" y2="17.94" gradientUnits="userSpaceOnUse">
<stop stop-color="#08FFFF"/>
<stop offset="1" stop-color="#007AFF"/>
</linearGradient>
<linearGradient id="paint1_linear_5478_59658" x1="20.946" y1="3" x2="2.94601" y2="17.94" gradientUnits="userSpaceOnUse">
<stop stop-color="#08FFFF"/>
<stop offset="1" stop-color="#007AFF"/>
</linearGradient>
<linearGradient id="paint2_linear_5478_59658" x1="20.946" y1="3" x2="2.94601" y2="17.94" gradientUnits="userSpaceOnUse">
<stop stop-color="#08FFFF"/>
<stop offset="1" stop-color="#007AFF"/>
</linearGradient>
<linearGradient id="paint3_linear_5478_59658" x1="20.946" y1="3" x2="2.94601" y2="17.94" gradientUnits="userSpaceOnUse">
<stop stop-color="#08FFFF"/>
<stop offset="1" stop-color="#007AFF"/>
</linearGradient>
<linearGradient id="paint4_linear_5478_59658" x1="20.946" y1="3" x2="2.94601" y2="17.94" gradientUnits="userSpaceOnUse">
<stop stop-color="#08FFFF"/>
<stop offset="1" stop-color="#007AFF"/>
</linearGradient>
<linearGradient id="paint5_linear_5478_59658" x1="21.1449" y1="2.7998" x2="2.74487" y2="18.0718" gradientUnits="userSpaceOnUse">
<stop stop-color="#08FFFF"/>
<stop offset="1" stop-color="#007AFF"/>
</linearGradient>
</defs>
</svg>
