<svg width="28" height="28" viewBox="0 0 28 28" fill="none" xmlns="http://www.w3.org/2000/svg">
<path fill-rule="evenodd" clip-rule="evenodd" d="M23.587 16.4796C24.0058 16.4796 24.3453 16.8191 24.3453 17.238V22.073C24.3453 22.9821 23.6354 23.7984 22.6739 23.7984H5.32609C4.90728 23.7984 4.56776 23.4589 4.56776 23.0401C4.56776 22.6213 4.90728 22.2817 5.32609 22.2817H22.6739C22.6993 22.2817 22.733 22.2718 22.7674 22.2354C22.8023 22.1984 22.8286 22.142 22.8286 22.073V17.238C22.8286 16.8191 23.1682 16.4796 23.587 16.4796Z" fill="#141B31"/>
<path fill-rule="evenodd" clip-rule="evenodd" d="M4.56776 8.53452C4.56776 8.1157 4.90728 7.77619 5.32609 7.77619H22.6739C23.6354 7.77619 24.3453 8.59248 24.3453 9.50153V13.3696C24.3453 13.7884 24.0058 14.1279 23.587 14.1279C23.1682 14.1279 22.8286 13.7884 22.8286 13.3696V9.50153C22.8286 9.43258 22.8023 9.37619 22.7674 9.33919C22.733 9.3028 22.6993 9.29285 22.6739 9.29285H5.32609C4.90728 9.29285 4.56776 8.95333 4.56776 8.53452Z" fill="#141B31"/>
<path fill-rule="evenodd" clip-rule="evenodd" d="M3.5 7.77619C3.91882 7.77619 4.25834 8.1157 4.25834 8.53452V21.1057C4.25834 21.5245 3.91882 21.8641 3.5 21.8641C3.08119 21.8641 2.74167 21.5245 2.74167 21.1057V8.53452C2.74167 8.1157 3.08119 7.77619 3.5 7.77619Z" fill="#141B31"/>
<path fill-rule="evenodd" clip-rule="evenodd" d="M2.74167 6.60063C2.74167 5.15972 3.86248 3.90826 5.32609 3.90826C5.7449 3.90826 6.08442 4.24778 6.08442 4.6666C6.08442 5.08541 5.7449 5.42493 5.32609 5.42493C4.781 5.42493 4.25834 5.91411 4.25834 6.60063C4.25834 7.28716 4.78101 7.77619 5.32609 7.77619C5.74491 7.77619 6.08442 8.11585 6.08442 8.53467C6.08442 8.95349 5.74491 9.29285 5.32609 9.29285C3.86248 9.29285 2.74167 8.04154 2.74167 6.60063Z" fill="#141B31"/>
<path fill-rule="evenodd" clip-rule="evenodd" d="M3.5 5.84222C3.91882 5.84222 4.25834 6.18182 4.25834 6.60063V9.50161C4.25834 9.92042 3.91882 10.2599 3.5 10.2599C3.08119 10.2599 2.74167 9.92042 2.74167 9.50161V6.60063C2.74167 6.18182 3.08119 5.84222 3.5 5.84222Z" fill="#141B31"/>
<path fill-rule="evenodd" clip-rule="evenodd" d="M4.56776 4.6666C4.56776 4.24778 4.90727 3.90826 5.32609 3.90826H19.9348C20.8962 3.90826 21.6062 4.72456 21.6062 5.63362V8.53467C21.6062 8.95349 21.2667 9.293 20.8478 9.293C20.429 9.293 20.0895 8.95349 20.0895 8.53467V5.63362C20.0895 5.56467 20.0632 5.50827 20.0282 5.47127C19.9939 5.43488 19.9602 5.42493 19.9348 5.42493H5.32609C4.90727 5.42493 4.56776 5.08541 4.56776 4.6666Z" fill="#141B31"/>
<path fill-rule="evenodd" clip-rule="evenodd" d="M3.5 20.3476C3.91882 20.3476 4.25834 20.6869 4.25834 21.1057C4.25834 21.7922 4.781 22.2817 5.32609 22.2817C5.74491 22.2817 6.08442 22.6211 6.08442 23.0399C6.08442 23.4587 5.74491 23.7984 5.32609 23.7984C3.86249 23.7984 2.74167 22.5466 2.74167 21.1057C2.74167 20.6869 3.08119 20.3476 3.5 20.3476Z" fill="#141B31"/>
<path fill-rule="evenodd" clip-rule="evenodd" d="M18.1087 14.1281C17.5636 14.1281 17.041 14.6172 17.041 15.3038C17.041 15.9903 17.5636 16.4795 18.1087 16.4795C18.5275 16.4795 18.8671 16.819 18.8671 17.2378C18.8671 17.6566 18.5275 17.9961 18.1087 17.9961C16.6451 17.9961 15.5243 16.7447 15.5243 15.3038C15.5243 13.8629 16.6451 12.6114 18.1087 12.6114C18.5275 12.6114 18.8671 12.9509 18.8671 13.3697C18.8671 13.7885 18.5275 14.1281 18.1087 14.1281Z" fill="#141B31"/>
<path fill-rule="evenodd" clip-rule="evenodd" d="M17.3504 13.3697C17.3504 12.9509 17.6899 12.6114 18.1087 12.6114H23.587C24.5484 12.6114 25.2584 13.4277 25.2584 14.3367V16.2708C25.2584 17.1798 24.5484 17.9961 23.587 17.9961H18.1087C17.6899 17.9961 17.3504 17.6566 17.3504 17.2378C17.3504 16.819 17.6899 16.4795 18.1087 16.4795L23.587 16.4796C23.6123 16.4796 23.6461 16.4695 23.6804 16.4331C23.7154 16.3961 23.7417 16.3397 23.7417 16.2708V14.3367C23.7417 14.2678 23.7154 14.2114 23.6804 14.1744C23.6461 14.138 23.6123 14.1279 23.587 14.1279L18.1087 14.1281C17.6899 14.1281 17.3504 13.7885 17.3504 13.3697Z" fill="#141B31"/>
</svg>
