<svg width="24" height="25" viewBox="0 0 24 25" fill="none" xmlns="http://www.w3.org/2000/svg">
<path fill-rule="evenodd" clip-rule="evenodd" d="M4.25217 4.83325C3.30051 4.83325 2.5 5.63656 2.5 6.66225V14.3192C2.5 15.35 3.30113 16.1526 4.25217 16.1526H4.85652C5.08728 16.1526 5.28806 16.3106 5.34244 16.5348L5.90648 18.8609L10.1903 16.2267C10.269 16.1783 10.3597 16.1526 10.4522 16.1526H17.0913C18.0423 16.1526 18.8435 15.35 18.8435 14.3192V6.66225C18.8435 5.63656 18.043 4.83325 17.0913 4.83325H4.25217ZM1.5 6.66225C1.5 5.11615 2.71688 3.83325 4.25217 3.83325H17.0913C18.6266 3.83325 19.8435 5.11615 19.8435 6.66225V14.3192C19.8435 15.8691 18.6272 17.1526 17.0913 17.1526H10.5936L5.84452 20.073C5.70823 20.1568 5.54007 20.1703 5.39215 20.1094C5.24422 20.0484 5.13439 19.9204 5.09669 19.7649L4.46327 17.1526H4.25217C2.71626 17.1526 1.5 15.8691 1.5 14.3192V6.66225ZM20.8752 6.27477C21.0619 6.07136 21.3782 6.05786 21.5816 6.24462C22.148 6.76459 22.5 7.51779 22.5 8.35293V16.0098C22.5 17.5559 21.2831 18.8388 19.7478 18.8388H19.5367L18.9033 21.4511C18.8656 21.6066 18.7558 21.7346 18.6079 21.7956C18.4599 21.8565 18.2918 21.843 18.1555 21.7592L13.4064 18.8388H11.1739C10.8978 18.8388 10.6739 18.615 10.6739 18.3388C10.6739 18.0627 10.8978 17.8388 11.1739 17.8388H13.5478C13.6403 17.8388 13.731 17.8645 13.8097 17.9129L18.0935 20.5471L18.6576 18.221C18.7119 17.9967 18.9127 17.8388 19.1435 17.8388H19.7478C20.6995 17.8388 21.5 17.0355 21.5 16.0098V8.35293C21.5 7.80326 21.2694 7.31553 20.9053 6.98124C20.7019 6.79448 20.6884 6.47818 20.8752 6.27477Z" fill="url(#paint0_linear_1016_53)"/>
<path d="M7.65187 10.0389H5.7823V8.56419H7.80404V7.78636H4.92578V13.1188H5.7823V10.8078H7.65187V10.0389Z" fill="url(#paint1_linear_1016_53)"/>
<path d="M9.26057 7.78636L7.50839 13.1233H8.3997L8.91274 11.5181H10.5084L11.0345 13.1233H11.9475L10.1867 7.78636H9.26057ZM10.2997 10.7718H9.11274L9.54752 9.44093C9.5997 9.27008 9.64752 9.09473 9.6997 8.9014C9.74752 9.07674 9.79535 9.26109 9.86056 9.45442L10.2997 10.7718Z" fill="url(#paint2_linear_1016_53)"/>
<path d="M16.6866 13.0964C16.3519 13.038 15.9301 12.9436 15.5214 12.8401C16.291 12.431 16.7388 11.5453 16.7388 10.4032C16.7388 8.81611 15.7823 7.70557 14.4171 7.70557C12.9997 7.70557 12.0084 8.85657 12.0084 10.5112C12.0084 12.3141 13.1562 13.1639 14.2953 13.2088C14.3736 13.2088 14.4693 13.2448 14.5606 13.2763C15.1432 13.4831 15.7997 13.6899 16.4606 13.8698L16.5562 13.8967L16.8127 13.1189L16.6866 13.0964ZM14.3953 8.46541C15.3953 8.46541 15.8475 9.48603 15.8475 10.4302C15.8475 11.4329 15.391 12.44 14.3649 12.44C14.0084 12.44 13.691 12.3006 13.4388 12.0443C13.0953 11.6846 12.8997 11.1181 12.904 10.4932C12.8997 9.81875 13.0953 9.22526 13.4432 8.86557C13.6997 8.6003 14.0214 8.46541 14.3953 8.46541Z" fill="url(#paint3_linear_1016_53)"/>
<defs>
<linearGradient id="paint0_linear_1016_53" x1="22.437" y1="3.83325" x2="4.13315" y2="21.5575" gradientUnits="userSpaceOnUse">
<stop stop-color="#00C6FF"/>
<stop offset="1" stop-color="#0072FF"/>
</linearGradient>
<linearGradient id="paint1_linear_1016_53" x1="16.7771" y1="7.70557" x2="11.1052" y2="16.7443" gradientUnits="userSpaceOnUse">
<stop stop-color="#00C6FF"/>
<stop offset="1" stop-color="#0072FF"/>
</linearGradient>
<linearGradient id="paint2_linear_1016_53" x1="16.7771" y1="7.70557" x2="11.1052" y2="16.7443" gradientUnits="userSpaceOnUse">
<stop stop-color="#00C6FF"/>
<stop offset="1" stop-color="#0072FF"/>
</linearGradient>
<linearGradient id="paint3_linear_1016_53" x1="16.7771" y1="7.70557" x2="11.1052" y2="16.7443" gradientUnits="userSpaceOnUse">
<stop stop-color="#00C6FF"/>
<stop offset="1" stop-color="#0072FF"/>
</linearGradient>
</defs>
</svg>
