<svg width="27" height="29" viewBox="0 0 27 29" fill="none" xmlns="http://www.w3.org/2000/svg">
<g id="E-Statements">
<g id="Group">
<path id="Vector" d="M20.8292 0H8.43378C7.72706 0 7.15198 0.537614 7.15198 1.1983V11.4324H14.3925C16.8036 11.4324 18.7575 13.2655 18.7575 15.5131V15.9147H22.1041C22.4852 15.9147 22.797 16.2061 22.797 16.5624C22.797 16.9186 22.4852 17.2101 22.1041 17.2101H18.7575V24.4064H24.8686C25.5754 24.4064 26.1504 23.8688 26.1504 23.2081V4.86443L26.1089 4.82557H20.8292V0ZM22.3466 8.47227C22.7277 8.47227 23.0395 8.76375 23.0395 9.12C23.0395 9.47625 22.7277 9.76773 22.3466 9.76773H10.9974C10.6163 9.76773 10.3045 9.47625 10.3045 9.12C10.3045 8.76375 10.6163 8.47227 10.9974 8.47227H22.3466Z" fill="#007AFF"/>
<path id="Vector_2" d="M14.3921 12.7278H3.47946C1.83736 12.7278 0.500122 13.978 0.500122 15.5131V25.7148C0.500122 27.2499 1.83736 28.5 3.47946 28.5H14.3921C16.0342 28.5 17.3715 27.2499 17.3715 25.7148V15.5131C17.3715 13.978 16.0342 12.7278 14.3921 12.7278ZM7.36645 19.7881V15.4677H10.5121V19.7881H12.8678L8.93234 23.8105L5.0107 19.7881H7.36645ZM13.2905 26.3755H4.58112V24.3545H13.2905V26.3755Z" fill="#007AFF"/>
</g>
<path id="Vector_3" d="M26.0531 3.66627L22.1314 0.0389944C22.076 -0.0128238 22.1314 3.66627 22.1314 3.66627H26.0531Z" fill="#007AFF"/>
</g>
</svg>
