<svg width="24" height="25" viewBox="0 0 24 25" fill="none" xmlns="http://www.w3.org/2000/svg">
<path fill-rule="evenodd" clip-rule="evenodd" d="M9.10365 3.98185C8.71665 3.98185 8.45384 4.27273 8.45384 4.56358V10.531H12.6291C14.0868 10.531 15.3203 11.6492 15.3203 13.0955V13.2026H17.1917C17.478 13.2026 17.7102 13.4347 17.7102 13.7211C17.7102 14.0075 17.478 14.2396 17.1917 14.2396H15.3203V18.2633H18.8273C19.2143 18.2633 19.4772 17.9724 19.4772 17.6815V6.81276L16.5008 3.98185H9.10365ZM15.3172 19.3003H18.8273C19.7275 19.3003 20.5142 18.6029 20.5142 17.6815V6.36791L16.9152 2.94482H9.10365C8.20345 2.94482 7.41682 3.64222 7.41682 4.56358V10.531H6.17262C4.71491 10.531 3.48145 11.6492 3.48145 13.0955V19.1758C3.48145 20.6222 4.71491 21.7404 6.17262 21.7404H12.6291C14.0447 21.7404 15.2489 20.6858 15.3172 19.3003ZM10.1019 9.2852C10.1019 8.99884 10.334 8.76669 10.6204 8.76669H17.3352C17.6215 8.76669 17.8537 8.99884 17.8537 9.2852C17.8537 9.57157 17.6215 9.80372 17.3352 9.80372H10.6204C10.334 9.80372 10.1019 9.57157 10.1019 9.2852ZM6.17262 11.568C5.2281 11.568 4.51847 12.2797 4.51847 13.0955V19.1758C4.51847 19.9917 5.2281 20.7034 6.17262 20.7034H12.6291C13.5736 20.7034 14.2833 19.9917 14.2833 19.1758V13.0955C14.2833 12.2797 13.5736 11.568 12.6291 11.568H6.17262Z" fill="url(#paint0_linear_1016_11191)"/>
<path d="M11.9776 18.3612H6.82471V19.5657H11.9776V18.3612Z" fill="url(#paint1_linear_1016_11191)"/>
<path d="M10.3337 15.6434V13.0684H8.47255V15.6434H7.07877L9.39901 18.0407L11.7233 15.6434H10.3337Z" fill="url(#paint2_linear_1016_11191)"/>
<path d="M16.4375 3.44434V6.72189H19.9998" fill="url(#paint3_linear_1016_11191)"/>
<defs>
<linearGradient id="paint0_linear_1016_11191" x1="20.4631" y1="2.94482" x2="2.09056" y2="16.7638" gradientUnits="userSpaceOnUse">
<stop stop-color="#00C6FF"/>
<stop offset="1" stop-color="#0072FF"/>
</linearGradient>
<linearGradient id="paint1_linear_1016_11191" x1="19.9603" y1="3.44434" x2="4.72077" y2="13.7816" gradientUnits="userSpaceOnUse">
<stop stop-color="#00C6FF"/>
<stop offset="1" stop-color="#0072FF"/>
</linearGradient>
<linearGradient id="paint2_linear_1016_11191" x1="19.9603" y1="3.44434" x2="4.72077" y2="13.7816" gradientUnits="userSpaceOnUse">
<stop stop-color="#00C6FF"/>
<stop offset="1" stop-color="#0072FF"/>
</linearGradient>
<linearGradient id="paint3_linear_1016_11191" x1="19.9603" y1="3.44434" x2="4.72077" y2="13.7816" gradientUnits="userSpaceOnUse">
<stop stop-color="#00C6FF"/>
<stop offset="1" stop-color="#0072FF"/>
</linearGradient>
</defs>
</svg>
