<svg width="19" height="19" viewBox="0 0 19 19" fill="none" xmlns="http://www.w3.org/2000/svg">
<path fill-rule="evenodd" clip-rule="evenodd" d="M5.67864 0C6.09709 0 6.43631 0.33922 6.43631 0.757669V1.67567H12.5055V0.757669C12.5055 0.33922 12.8447 0 13.2632 0C13.6816 0 14.0208 0.33922 14.0208 0.757669V1.67567H16.8545C18 1.67567 18.9375 2.60048 18.9375 3.75036V16.9253C18.9375 18.0752 18 19 16.8545 19H2.08755C0.942059 19 0.00456872 18.0752 0.00456872 16.9253V6.68679C0.0014418 6.65883 -0.000163968 6.63042 -0.000163968 6.60162C-0.000163968 6.57283 0.0014418 6.54442 0.00456872 6.51646V3.75036C0.00456872 2.60048 0.942059 1.67567 2.08755 1.67567H4.92098V0.757669C4.92098 0.33922 5.2602 0 5.67864 0ZM4.92098 3.19101H2.08755C1.76997 3.19101 1.51991 3.44633 1.51991 3.75036V5.84396H17.4221V3.75036C17.4221 3.44633 17.1721 3.19101 16.8545 3.19101H14.0208V3.93929C14.0208 4.35774 13.6816 4.69696 13.2632 4.69696C12.8447 4.69696 12.5055 4.35774 12.5055 3.93929V3.19101H6.43631V3.93929C6.43631 4.35774 6.09709 4.69696 5.67864 4.69696C5.2602 4.69696 4.92098 4.35774 4.92098 3.93929V3.19101ZM17.4221 7.35929H1.51991V16.9253C1.51991 17.2293 1.76997 17.4847 2.08755 17.4847H16.8545C17.1721 17.4847 17.4221 17.2293 17.4221 16.9253V7.35929Z" fill="#007AFF"/>
<path d="M11.1498 9.28726C11.1498 9.01111 10.9259 8.78726 10.6498 8.78726H8.77589C8.49975 8.78726 8.27589 9.01112 8.27589 9.28726V11.1432C8.27589 11.4193 8.49975 11.6432 8.77589 11.6432H10.6498C10.9259 11.6432 11.1498 11.4193 11.1498 11.1432V9.28726Z" fill="#007AFF"/>
<path d="M16.0709 9.28726C16.0709 9.01111 15.8471 8.78726 15.5709 8.78726H13.697C13.4209 8.78726 13.197 9.01112 13.197 9.28726V11.1432C13.197 11.4193 13.4209 11.6432 13.697 11.6432H15.5709C15.8471 11.6432 16.0709 11.4193 16.0709 11.1432V9.28726Z" fill="#007AFF"/>
<path d="M6.23324 13.5074C6.23324 13.2313 6.00938 13.0074 5.73324 13.0074H3.85934C3.5832 13.0074 3.35934 13.2313 3.35934 13.5074V15.3633C3.35934 15.6395 3.5832 15.8633 3.85934 15.8633H5.73324C6.00938 15.8633 6.23324 15.6395 6.23324 15.3633V13.5074Z" fill="#007AFF"/>
<path d="M11.1498 13.5074C11.1498 13.2313 10.9259 13.0074 10.6498 13.0074H8.77589C8.49975 13.0074 8.27589 13.2313 8.27589 13.5074V15.3633C8.27589 15.6395 8.49975 15.8633 8.77589 15.8633H10.6498C10.9259 15.8633 11.1498 15.6395 11.1498 15.3633V13.5074Z" fill="#007AFF"/>
<path d="M16.0709 13.5074C16.0709 13.2313 15.8471 13.0074 15.5709 13.0074H13.697C13.4209 13.0074 13.197 13.2313 13.197 13.5074V15.3633C13.197 15.6395 13.4209 15.8633 13.697 15.8633H15.5709C15.8471 15.8633 16.0709 15.6395 16.0709 15.3633V13.5074Z" fill="#007AFF"/>
</svg>
