<svg width="30" height="24" viewBox="0 0 30 24" fill="none" xmlns="http://www.w3.org/2000/svg">
<path d="M25.6575 8.72228V3.26333C25.6575 2.01439 24.6483 1 23.4058 1H3.25167C2.00917 1 1 2.01439 1 3.26333V14.8086C1 16.0576 2.00917 17.072 3.25167 17.072H13.9092M25.6342 3.38643H1.07584M1.07584 9.1562H16.6042M21.3643 10.6396V19.9627M25.996 15.3012H16.7268M21.341 23C25.5701 23 29.0001 19.5522 29.0001 15.2953C29.0001 11.0442 25.5701 7.59648 21.341 7.59648C17.1118 7.59648 13.6818 11.0442 13.6818 15.2953C13.676 19.5522 17.106 23 21.341 23Z" stroke="white" stroke-miterlimit="10"/>
</svg>
