<svg width="30" height="30" viewBox="0 0 30 30" fill="none" xmlns="http://www.w3.org/2000/svg">
<path d="M28.4101 27.1571H27.2524V9.06272C27.2524 8.45957 26.6735 7.85642 26.0946 7.85642H17.4117C16.8329 7.85642 16.254 8.45957 16.254 9.06272V27.1571H14.1315V0.819701C13.9386 0.819701 13.9386 0.618652 13.9386 0.618652L3.51911 5.24278C2.94026 5.64488 2.55435 6.24803 2.55435 7.05222V27.1571H1.39663C1.01072 27.1571 0.624817 27.5592 0.624817 27.9613V29.3687H29.3748V27.9613C29.3748 27.5592 28.9889 27.1571 28.4101 27.1571Z" fill="url(#paint0_linear_2145_32419)"/>
<path d="M10.4659 13.4857H5.835C5.64205 13.4857 5.4491 13.2847 5.4491 13.0836V12.0784C5.4491 11.8773 5.64205 11.6763 5.835 11.6763H10.6588C10.8518 11.6763 11.0447 11.8773 11.0447 12.0784V13.0836C11.0447 13.2847 10.8518 13.4857 10.4659 13.4857Z" fill="white"/>
<path d="M10.4654 18.9139H5.83454C5.44863 18.9139 5.25568 18.7129 5.25568 18.5118V17.5066C5.25568 17.3055 5.44863 17.1045 5.64158 17.1045H10.4654C10.6584 17.1045 10.8513 17.3055 10.8513 17.5066V18.5118C11.0443 18.7129 10.8513 18.9139 10.4654 18.9139Z" fill="white"/>
<path d="M10.4659 24.3425H5.835C5.64205 24.3425 5.4491 24.1415 5.4491 23.9404V22.7341C5.4491 22.5331 5.64205 22.332 5.835 22.332H10.6588C10.8518 22.332 11.0447 22.5331 11.0447 22.7341V23.7394C11.0447 24.1415 10.8518 24.3425 10.4659 24.3425Z" fill="white"/>
<path d="M24.1648 13.4857H19.341C19.148 13.4857 18.9551 13.2847 18.9551 13.0836V12.0784C18.9551 11.8773 19.148 11.6763 19.341 11.6763H24.1648C24.3578 11.6763 24.5507 11.8773 24.5507 12.0784V13.0836C24.5507 13.2847 24.3578 13.4857 24.1648 13.4857Z" fill="white"/>
<path d="M24.1649 18.9139H19.3411C19.1482 18.9139 18.9552 18.7129 18.9552 18.5118V17.5066C18.9552 17.3055 19.1482 17.1045 19.3411 17.1045H24.1649C24.3579 17.1045 24.5508 17.3055 24.5508 17.5066V18.5118C24.5508 18.7129 24.3579 18.9139 24.1649 18.9139Z" fill="white"/>
<path d="M24.1649 24.3425H19.3411C19.1482 24.3425 18.9552 24.1415 18.9552 23.9404V22.7341C18.9552 22.5331 19.1482 22.332 19.3411 22.332H24.1649C24.3579 22.332 24.5508 22.5331 24.5508 22.7341V23.7394C24.5508 24.1415 24.3579 24.3425 24.1649 24.3425Z" fill="white"/>
<defs>
<linearGradient id="paint0_linear_2145_32419" x1="29.2887" y1="0.618651" x2="0.538625" y2="24.4812" gradientUnits="userSpaceOnUse">
<stop stop-color="#08FFFF"/>
<stop offset="1" stop-color="#007AFF"/>
</linearGradient>
</defs>
</svg>
