<svg width="24" height="24" viewBox="0 0 24 24" fill="none" xmlns="http://www.w3.org/2000/svg">
<g id="Fill">
<g id="PDF">
<path d="M14.1184 7.68932V2.721C14.1184 2.32336 13.7645 2 13.3294 2H10.6659C10.2307 2 9.87687 2.32336 9.87687 2.721V7.68932H7.38554C7.12732 7.68932 6.99343 7.96898 7.16558 8.14376L11.9904 12.981L16.8297 8.14376C17.0018 7.96898 16.8679 7.68932 16.6097 7.68932H14.1184Z" fill="#001F7B"/>
<path d="M7.682 16.2189C7.38553 16.066 7.03645 15.9873 6.64434 15.9873H4.10041V21.9956H5.0233V19.6666H6.64434C7.03645 19.6666 7.38075 19.5923 7.682 19.4394C7.97847 19.2864 8.21278 19.0723 8.37537 18.797C8.53795 18.5217 8.62402 18.1984 8.62402 17.8313C8.62402 17.4643 8.54273 17.1409 8.37537 16.8656C8.21278 16.586 7.97847 16.3719 7.682 16.2189ZM7.55289 18.3732C7.4716 18.5305 7.35205 18.6528 7.20382 18.7359C7.05558 18.8232 6.87865 18.8626 6.67782 18.8626H5.0233V16.787H6.67782C6.87865 16.787 7.0508 16.8307 7.20382 16.9181C7.35684 17.0055 7.4716 17.1278 7.55289 17.2851C7.63418 17.4424 7.67722 17.626 7.67722 17.8313C7.67722 18.0367 7.63418 18.2159 7.55289 18.3732Z" fill="#001F7B"/>
<path d="M13.2146 16.2408C12.8416 16.0747 12.3921 15.9873 11.8613 15.9873H9.78125V21.9956H11.8566C12.3826 21.9956 12.8368 21.9126 13.2098 21.7422C13.5828 21.5761 13.8697 21.3271 14.0658 21.0081C14.2618 20.6847 14.3575 20.2958 14.3575 19.8414V18.1372C14.3575 17.6828 14.2618 17.2939 14.0658 16.9705C13.8697 16.6559 13.5876 16.4112 13.2146 16.2408ZM13.4154 19.8763C13.4154 20.2958 13.2815 20.6192 13.0138 20.8508C12.746 21.0824 12.3682 21.196 11.8852 21.196H10.6946V16.7913H11.8852C12.373 16.7913 12.746 16.905 13.0138 17.1366C13.2815 17.3681 13.4154 17.6915 13.4154 18.111V19.8763Z" fill="#001F7B"/>
<path d="M19.8996 16.7913V15.9873H15.7633V22H16.6862V19.47H19.4023V18.6659H16.6862V16.7913H19.8996Z" fill="#001F7B"/>
<path d="M19.1393 14.506H4.86073C4.38255 14.506 4 14.1521 4 13.7195C4 13.2825 4.38733 12.9329 4.86073 12.9329H19.1393C19.6175 12.9329 20 13.2869 20 13.7195C20 14.1521 19.6175 14.506 19.1393 14.506Z" fill="#001F7B"/>
</g>
</g>
</svg>
