<svg width="44" height="44" viewBox="0 0 44 44" fill="none" xmlns="http://www.w3.org/2000/svg">
<path d="M7.59838 16.3639C7.98652 16.3639 8.19677 16.1375 8.19677 15.7493V11.3989C8.19677 9.2965 9.2965 8.19677 11.3989 8.19677H15.7655C16.1536 8.19677 16.3801 7.98652 16.3801 7.59838C16.3801 7.21024 16.1536 7 15.7655 7H11.3666C8.50404 7 7 8.48787 7 11.3342V15.7493C7 16.1375 7.21024 16.3639 7.59838 16.3639ZM36.4016 16.3639C36.7898 16.3639 37 16.1375 37 15.7493V11.3342C37 8.52022 35.5121 7 32.6496 7H28.2345C27.8464 7 27.6199 7.21024 27.6199 7.59838C27.6199 7.98652 27.8464 8.19677 28.2345 8.19677H32.6011C34.6388 8.19677 35.8032 9.2965 35.8032 11.3989V15.7493C35.8032 16.1375 36.0135 16.3639 36.4016 16.3639ZM20.6819 24.1752H20.8275C22.1375 24.1752 22.8005 23.5283 22.8005 22.2022V17.2372C22.8005 16.8652 22.6226 16.6873 22.2507 16.6873C21.8949 16.6873 21.7008 16.8652 21.7008 17.2372V22.3477C21.7008 22.7844 21.345 23.0593 20.9892 23.0593H20.4394C20.1321 23.0593 19.9057 23.2857 19.9057 23.593C19.9057 23.9811 20.1482 24.1752 20.6819 24.1752ZM16.186 20.4555C16.6712 20.4555 16.9784 20.1482 16.9784 19.6631V17.5121C16.9784 17.0108 16.6712 16.7035 16.186 16.7035C15.717 16.7035 15.4097 17.027 15.4097 17.5121V19.6631C15.4097 20.1482 15.717 20.4555 16.186 20.4555ZM27.6685 20.4555C28.1375 20.4555 28.4447 20.1482 28.4447 19.6631V17.5121C28.4447 17.027 28.1375 16.7035 27.6685 16.7035C27.1833 16.7035 26.8598 17.0108 26.8598 17.5121V19.6631C26.8598 20.1482 27.1833 20.4555 27.6685 20.4555ZM21.8625 29.124C23.6415 29.124 25.4205 28.3801 26.7305 27.0701C26.8275 26.9892 26.9245 26.8437 26.9245 26.6334C26.9245 26.31 26.6819 26.0997 26.3908 26.0997C26.2129 26.0997 26.0674 26.1482 25.8571 26.3747C24.8868 27.345 23.3827 28.0404 21.8625 28.0404C20.3423 28.0404 18.8544 27.345 17.8679 26.3747C17.6739 26.1644 17.5283 26.0997 17.3342 26.0997C17.0431 26.0997 16.8005 26.31 16.8005 26.6334C16.8005 26.8275 16.8976 26.973 16.9946 27.0701C18.2722 28.3962 20.0836 29.124 21.8625 29.124ZM11.3666 37H15.7655C16.1536 37 16.3801 36.7898 16.3801 36.4016C16.3801 36.0135 16.1536 35.8032 15.7655 35.8032H11.3989C9.2965 35.8032 8.19677 34.7035 8.19677 32.5849V28.2507C8.19677 27.8625 7.98652 27.6199 7.59838 27.6199C7.21024 27.6199 7 27.8625 7 28.2507V32.6496C7 35.5121 8.50404 37 11.3666 37ZM28.2345 37H32.6496C35.5121 37 37 35.4636 37 32.6496V28.2507C37 27.8625 36.7898 27.6199 36.4016 27.6199C36.0135 27.6199 35.8032 27.8625 35.8032 28.2507V32.5849C35.8032 34.7035 34.6388 35.8032 32.6011 35.8032H28.2345C27.8464 35.8032 27.6199 36.0135 27.6199 36.4016C27.6199 36.7898 27.8464 37 28.2345 37Z" fill="url(#paint0_linear_721_383)"/>
<defs>
<linearGradient id="paint0_linear_721_383" x1="36.9101" y1="7" x2="6.91006" y2="31.9" gradientUnits="userSpaceOnUse">
<stop stop-color="#00C6FF"/>
<stop offset="1" stop-color="#0072FF"/>
</linearGradient>
</defs>
</svg>
