<svg width="24" height="20" viewBox="0 0 24 20" fill="none" xmlns="http://www.w3.org/2000/svg">
<path fill-rule="evenodd" clip-rule="evenodd" d="M20.672 11.9772C20.672 13.232 19.6517 14.2577 18.3915 14.2577V14.2522H10.055C9.95681 14.2522 9.86406 14.2795 9.77677 14.3286L4.29916 17.5912L3.56808 14.6669C3.50807 14.4214 3.28984 14.2522 3.03887 14.2522H2.28052C1.02569 14.2522 0 13.232 0 11.9717V2.68051C0 1.42568 1.02569 0.399994 2.28052 0.399994H18.3915C19.6463 0.399994 20.672 1.42023 20.672 2.68051V11.9772ZM17.9495 7.21427C17.9495 5.28838 16.7547 3.9408 15.0361 3.9408C13.2576 3.9408 12.0136 5.34294 12.0136 7.34521C12.0136 9.53298 13.454 10.5641 14.8834 10.6187C14.9816 10.6187 15.1016 10.6569 15.2162 10.7005C15.9473 10.9515 16.7711 11.2024 17.6004 11.4207L17.7204 11.4534L18.0423 10.5096L17.8841 10.4823C17.4694 10.4059 16.9402 10.2968 16.4219 10.1713C17.3821 9.68029 17.9495 8.60004 17.9495 7.21427ZM4.20095 10.515V7.71075H6.54694V6.77781H4.20095V4.98831H6.7379V4.04446H3.12617V10.515H4.20095ZM7.48534 10.515L8.12912 8.56731V8.57276H10.1314L10.7915 10.5205H11.9373L9.72767 4.04446H8.56558L6.3669 10.515H7.48534ZM16.8365 7.25244C16.8365 8.46363 16.2637 9.69118 14.9761 9.69118C14.5287 9.69118 14.125 9.5275 13.8195 9.21107C13.3885 8.77461 13.143 8.08718 13.1484 7.32337C13.143 6.51045 13.3885 5.79029 13.8249 5.34837C14.1414 5.03194 14.5397 4.86826 15.0143 4.86826C16.2637 4.86826 16.8365 6.10127 16.8365 7.25244ZM9.12201 5.39749C9.05654 5.63754 8.99653 5.85032 8.93106 6.05218L8.38548 7.66709H9.87491L9.32933 6.06309C9.24749 5.8285 9.18202 5.61026 9.12201 5.39749ZM21.7631 2.66417C22.0195 2.65872 22.3742 2.65326 22.636 2.65872C23.0452 2.67508 23.4162 2.82785 23.5308 2.92605C23.9454 3.26431 24 3.99538 24 4.73192V14.0177C24 15.2725 22.9798 16.2982 21.7195 16.2982H20.9611C20.7102 16.2982 20.4919 16.4673 20.4319 16.7128L19.7008 19.6371L14.2232 16.3746C14.1414 16.3255 14.0432 16.2982 13.945 16.2982H10.9443C10.8297 16.2982 10.4315 16.2654 10.2078 16.0527C10.0768 15.9272 10.0059 15.7417 9.99499 15.4689L10.2078 15.3434H18.3914C20.2519 15.3434 21.7631 13.8322 21.7631 11.9717V2.68054V2.66417Z" fill="white"/>
</svg>
