<svg width="24" height="22" viewBox="0 0 24 22" fill="none" xmlns="http://www.w3.org/2000/svg">
<path fill-rule="evenodd" clip-rule="evenodd" d="M5.90704 6.90225C5.90704 3.42304 8.73008 0.600006 12.2093 0.600006C15.6885 0.600006 18.5115 3.42304 18.5115 6.90225C18.5115 10.3815 15.6885 13.2045 12.2093 13.2045C8.73008 13.2045 5.90704 10.3815 5.90704 6.90225ZM14.1931 6.5055V5.83407V5.8239H11.0597V5.73234C11.0597 5.11687 11.2428 4.62856 11.604 4.25724C11.9702 3.88592 12.4585 3.7028 13.0791 3.7028C13.3182 3.7028 13.5572 3.71806 13.7963 3.75367C14.0354 3.78928 14.2694 3.83505 14.4982 3.89101L14.6203 3.03647C14.3406 2.9856 14.0761 2.94491 13.8268 2.91439C13.5776 2.88896 13.3283 2.8737 13.0791 2.8737C12.0974 2.8737 11.309 3.1382 10.7088 3.65703C10.1085 4.17585 9.80843 4.87271 9.80843 5.7476V5.82898H8.87759V6.50041H9.80843V7.39056H8.87759V8.0569H9.80843C9.80843 8.9267 10.1085 9.62355 10.7138 10.1424C11.3141 10.6612 12.1076 10.9206 13.0893 10.9206C13.3487 10.9206 13.6081 10.9105 13.8675 10.8799C14.1269 10.8545 14.3762 10.8138 14.6152 10.7579L14.4932 9.91349C14.2744 9.97453 14.0455 10.0203 13.8065 10.0508C13.5725 10.0813 13.3334 10.0966 13.0893 10.0966C12.4636 10.0966 11.9702 9.91349 11.6091 9.54726C11.2479 9.18102 11.075 8.69271 11.0902 8.08742L11.1055 8.06198H14.1931V7.39564H11.0597V6.5055H14.1931ZM23.6694 18.8659C23.4456 18.6166 23.1811 18.4284 22.8708 18.3063C22.5605 18.1843 22.1587 18.0673 21.6703 17.9554C21.3143 17.8689 21.0345 17.7875 20.826 17.7214C20.6174 17.6502 20.4496 17.5586 20.3173 17.4416C20.1851 17.3246 20.1139 17.172 20.1139 16.9838C20.1139 16.7142 20.2308 16.5006 20.4648 16.3378C20.6988 16.1751 21.0549 16.0937 21.5381 16.0937C21.8331 16.0937 22.1332 16.1395 22.4486 16.2259C22.7589 16.3124 23.059 16.4396 23.3489 16.6074L23.7304 15.6613C23.4506 15.4731 23.1149 15.3307 22.7283 15.229C22.3418 15.1272 21.9501 15.0815 21.5483 15.0815C20.9735 15.0815 20.4852 15.1679 20.0935 15.346C19.6968 15.5189 19.4017 15.758 19.2034 16.053C19.005 16.348 18.9083 16.6786 18.9083 17.0398C18.9083 17.4721 19.0202 17.8129 19.239 18.0673C19.4628 18.3216 19.7273 18.5047 20.0376 18.6268C20.3478 18.7438 20.7497 18.8659 21.2482 18.9828C21.6042 19.0693 21.884 19.1456 22.0925 19.2168C22.296 19.2829 22.4689 19.3796 22.6012 19.5017C22.7334 19.6237 22.8046 19.7763 22.8046 19.9645C22.8046 20.2189 22.6826 20.4274 22.4435 20.5851C22.2044 20.7428 21.8382 20.8191 21.3499 20.8191C20.9582 20.8191 20.5666 20.753 20.1749 20.6156C19.7832 20.4834 19.4526 20.3104 19.1881 20.0968L18.7659 21.0429C19.0406 21.282 19.4119 21.4702 19.885 21.6126C20.358 21.755 20.8463 21.8262 21.3499 21.8262C21.9247 21.8262 22.413 21.7398 22.8097 21.5617C23.2116 21.3888 23.5066 21.1548 23.705 20.8598C23.9033 20.5648 24 20.2392 24 19.8781C24.0051 19.4508 23.8932 19.1151 23.6694 18.8659ZM0.799988 21.7296H2.01568V19.2219H5.18461V18.1894H2.01568V16.1954H5.58644V15.173H0.799988V21.7296ZM7.98223 18.9015H11.1512V17.8994H7.98223V16.1954H11.553V15.173H6.76654V21.7296H11.6853V20.7072H7.98223V18.9015ZM17.4279 18.9015H14.2641V20.7072H17.962V21.7296H13.0433V15.173H17.8297V16.1954H14.2641V17.8994H17.4279V18.9015Z" fill="white"/>
</svg>
