<svg width="40" height="24" viewBox="0 0 40 24" fill="none" xmlns="http://www.w3.org/2000/svg">
<path opacity="0.6" d="M33.5118 4.89309C33.4412 5.17549 33.3959 5.39434 33.3127 5.66312L30.8453 13.2918L30.572 14.1317C30.4434 14.5458 30.2199 14.9154 29.9302 15.2241C29.5618 15.6273 29.0758 15.9133 28.5237 16.0423C28.3227 16.0931 28.1046 16.1149 27.8874 16.1149H17.3517C16.9779 16.1149 16.1696 16.0423 15.8401 15.9024C14.8128 15.4884 14.0869 14.4741 14.0869 13.2927C14.0869 13.0012 14.1313 12.7215 14.2154 12.4527L15.8401 7.4284L16.9571 3.98412C16.9797 3.91147 17.0068 3.84427 17.0295 3.77163C17.4476 2.73371 18.4587 2 19.6417 2H30.9059C32.9081 2 33.9155 3.27492 33.5118 4.89309Z" fill="#C4C4C4"/>
<path opacity="0.6" d="M26.424 10.7782C26.3534 11.0606 26.3081 11.2795 26.2248 11.5483L23.7575 19.1769L23.4841 20.0169C23.3556 20.4309 23.132 20.8005 22.8424 21.1093C22.474 21.5124 21.988 21.7985 21.4358 21.9274C21.2349 21.9783 21.0168 22.0001 20.7995 22.0001H10.2648C9.89097 22.0001 9.08269 21.9274 8.75323 21.7876C7.72591 21.3735 7 20.3592 7 19.1778C7 18.8863 7.04435 18.6066 7.12853 18.3379L8.75323 13.3135L9.87015 9.86927C9.89277 9.79662 9.92084 9.72943 9.94256 9.65678C10.3616 8.62068 11.3718 7.88697 12.5557 7.88697H23.8199C25.8212 7.88424 26.8286 9.15916 26.424 10.7782Z" fill="#86868B"/>
</svg>
