<svg width="27" height="20" viewBox="0 0 27 20" fill="none" xmlns="http://www.w3.org/2000/svg">
<path opacity="0.7" d="M26.512 2.89309C26.4414 3.17549 26.3961 3.39434 26.3129 3.66312L23.8455 11.2918L23.5721 12.1317C23.4436 12.5458 23.22 12.9154 22.9304 13.2241C22.562 13.6273 22.076 13.9133 21.5238 14.0423C21.3229 14.0931 21.1048 14.1149 20.8875 14.1149H10.3519C9.97807 14.1149 9.16979 14.0423 8.84032 13.9024C7.81301 13.4884 7.0871 12.4741 7.0871 11.2927C7.0871 11.0012 7.13145 10.7215 7.21562 10.4527L8.84032 5.4284L9.95725 1.98412C9.97988 1.91147 10.007 1.84427 10.0297 1.77163C10.4478 0.733715 11.4589 0 12.6418 0H23.9061C25.9083 0 26.9157 1.27492 26.512 2.89309Z" fill="url(#paint0_linear_773_8088)"/>
<path opacity="0.8" d="M19.424 8.77824C19.3534 9.06065 19.3081 9.27949 19.2248 9.54828L16.7575 17.1769L16.4841 18.0169C16.3556 18.4309 16.132 18.8005 15.8424 19.1093C15.474 19.5124 14.988 19.7985 14.4358 19.9274C14.2349 19.9783 14.0168 20.0001 13.7995 20.0001H3.26478C2.89097 20.0001 2.08269 19.9274 1.75323 19.7876C0.725909 19.3735 0 18.3592 0 17.1778C0 16.8863 0.0443495 16.6066 0.128526 16.3379L1.75323 11.3135L2.87015 7.86927C2.89277 7.79662 2.92084 7.72943 2.94256 7.65678C3.36163 6.62068 4.37175 5.88697 5.55565 5.88697H16.8199C18.8212 5.88424 19.8286 7.15916 19.424 8.77824Z" fill="url(#paint1_linear_773_8088)"/>
<defs>
<linearGradient id="paint0_linear_773_8088" x1="8.44512" y1="15.6176" x2="23.8582" y2="-0.146371" gradientUnits="userSpaceOnUse">
<stop stop-color="#46B2FD"/>
<stop offset="0.2132" stop-color="#5DC7FD"/>
<stop offset="0.5124" stop-color="#76DEFD"/>
<stop offset="0.7836" stop-color="#86ECFD"/>
<stop offset="1" stop-color="#8BF1FD"/>
</linearGradient>
<linearGradient id="paint1_linear_773_8088" x1="1.35752" y1="21.5023" x2="16.7706" y2="5.7383" gradientUnits="userSpaceOnUse">
<stop stop-color="#0641CB"/>
<stop offset="0.2506" stop-color="#2162D8"/>
<stop offset="1" stop-color="#6FC3FD"/>
</linearGradient>
</defs>
</svg>
