<svg width="24" height="24" viewBox="0 0 24 24" fill="none" xmlns="http://www.w3.org/2000/svg">
<path fill-rule="evenodd" clip-rule="evenodd" d="M12.1638 1.88002C6.47732 1.88002 1.87999 6.43218 1.87999 12.0322C1.87999 17.6323 6.47732 22.1844 12.1638 22.1844C17.8504 22.1844 22.4477 17.6323 22.4477 12.0322C22.4477 6.43218 17.8504 1.88002 12.1638 1.88002ZM0.679993 12.0322C0.679993 5.75572 5.82839 0.680023 12.1638 0.680023C18.4993 0.680023 23.6477 5.75572 23.6477 12.0322C23.6477 18.3087 18.4993 23.3844 12.1638 23.3844C5.82839 23.3844 0.679993 18.3087 0.679993 12.0322ZM13.5488 7.70434C13.5488 8.60805 12.8077 9.33636 11.8968 9.33636C10.982 9.33636 10.2448 8.60424 10.2448 7.70434C10.2448 6.80064 10.9859 6.07233 11.8968 6.07233C12.8115 6.07233 13.5488 6.80445 13.5488 7.70434ZM9.92041 12.5333V10.3941L13.6258 10.3369V15.6334H14.309V17.5475H9.86251V15.5762H10.7734V12.5333H9.92041Z" fill="white"/>
</svg>
