<svg width="30" height="29" viewBox="0 0 30 29" fill="none" xmlns="http://www.w3.org/2000/svg">
<path d="M11.4093 12.5142H16.9097V7.83491C15.1417 7.63146 13.3737 7.63146 11.9986 7.22457C11.6057 8.85215 11.4093 10.6832 11.4093 12.5142Z" fill="url(#paint0_linear_2145_32473)"/>
<path d="M24.3742 12.5144H29.2853C29.0888 9.86962 28.3031 7.6317 26.928 5.59722C26.1422 6.20756 24.9635 6.61446 23.5884 7.02135C24.1778 8.64893 24.3742 10.48 24.3742 12.5144Z" fill="url(#paint1_linear_2145_32473)"/>
<path d="M11.9986 18.8213C13.3737 18.4144 15.1417 18.4144 16.7133 18.211V13.7351H11.4093C11.4093 15.3627 11.6057 17.1937 11.9986 18.8213Z" fill="url(#paint2_linear_2145_32473)"/>
<path d="M13.1775 4.17297C12.7846 4.78331 12.5882 5.39365 12.3918 6.00399C13.7669 6.20744 15.142 6.41089 16.7135 6.41089V0.714355C15.3384 0.917803 14.1597 2.13849 13.1775 4.17297Z" fill="url(#paint3_linear_2145_32473)"/>
<path d="M24.3742 13.7351C24.3742 15.5661 24.1778 17.3972 23.5884 19.0247C24.9635 19.4316 26.1422 19.8385 26.928 20.4489C28.3031 18.6178 29.0888 16.1765 29.2853 13.7351H24.3742Z" fill="url(#paint4_linear_2145_32473)"/>
<path d="M21.4277 4.17297C20.4455 2.13849 19.2669 0.917803 17.8918 0.714355V6.61434C19.4633 6.61434 20.8384 6.41089 22.2135 6.20744C22.0171 5.39365 21.8206 4.78331 21.4277 4.17297Z" fill="url(#paint5_linear_2145_32473)"/>
<path d="M23.3925 5.80054C24.5711 5.39364 25.5533 5.19019 26.3391 4.57985C24.7676 2.95227 22.9996 1.52814 20.8387 0.917794C21.428 1.52814 22.0174 2.34193 22.6067 3.56261C22.8031 4.17296 23.196 4.98675 23.3925 5.80054Z" fill="url(#paint6_linear_2145_32473)"/>
<path d="M10.2308 13.7351H5.31974C5.31974 16.1765 6.10551 18.6178 7.48061 20.4489C8.26638 19.8385 9.44503 19.4316 10.8201 19.0247C10.4272 17.3972 10.2308 15.5661 10.2308 13.7351Z" fill="url(#paint7_linear_2145_32473)"/>
<path d="M23.3925 23.2972C22.4103 24.111 21.8209 24.3144 20.8387 24.9248C22.9996 24.3144 24.964 22.8903 26.5355 21.2627C26.5355 21.2627 26.5355 21.2627 25.3569 20.8558C25.1604 21.6696 24.7676 22.2799 23.3925 23.2972Z" fill="url(#paint8_linear_2145_32473)"/>
<path d="M10.8201 7.02135C9.64148 6.61446 8.46282 6.20756 7.67705 5.59722C6.30195 7.6317 5.51618 9.86962 5.31974 12.5144H10.2308C10.2308 10.48 10.4272 8.64893 10.8201 7.02135Z" fill="url(#paint9_linear_2145_32473)"/>
<path d="M23.392 13.7351H17.8916V18.211C19.6596 18.211 21.2311 18.4144 22.6062 18.8213C22.9991 17.1937 23.1955 15.3627 23.392 13.7351Z" fill="url(#paint10_linear_2145_32473)"/>
<path d="M12.195 3.56244C12.5879 2.5452 13.3737 1.73141 13.963 1.12107C11.8021 1.73141 9.83771 2.9521 8.26617 4.57968C9.05194 5.19002 10.0342 5.59692 11.2128 5.80036C11.4093 4.98657 11.8021 4.37623 12.195 3.56244Z" fill="url(#paint11_linear_2145_32473)"/>
<path d="M22.6062 7.22457C21.2311 7.63146 19.6596 7.63146 17.8916 7.83491V12.5142H23.392C23.1955 10.6832 22.9991 8.85215 22.6062 7.22457Z" fill="url(#paint12_linear_2145_32473)"/>
<path fill-rule="evenodd" clip-rule="evenodd" d="M4.62685 9.18343C4.8513 9.31786 4.95343 9.58929 4.87327 9.83834C4.68844 10.4126 4.50111 11.1834 4.30711 11.987C4.28598 12.2135 4.18376 12.3941 4.12325 12.4881C4.09422 12.5332 4.06558 12.5722 4.0409 12.6037C3.14587 14.8778 3.1587 16.9299 3.8678 18.7893C4.77623 20.4621 6.3952 21.7589 8.55879 22.1323C8.58038 22.1361 8.60172 22.1411 8.62272 22.1473C9.61613 22.4412 10.8852 22.3839 12.1509 22.1394L11.3824 21.2298C11.275 21.1132 11.1885 20.9611 11.1649 20.778C11.14 20.5841 11.1927 20.4079 11.2806 20.2714C11.4417 20.0211 11.7238 19.8884 11.9925 19.8862L22.9895 19.6829C23.2223 19.6786 23.4337 19.8182 23.5212 20.034C23.6086 20.2498 23.5541 20.4972 23.3839 20.6562L15.3381 28.1761C15.2255 28.2885 15.0714 28.386 14.8784 28.4127C14.6743 28.4409 14.492 28.3805 14.356 28.2866C14.1186 28.1227 14.0009 27.8519 13.991 27.6036L13.8571 26.2164C11.3821 26.682 8.80121 26.4554 6.73868 25.8728C6.72837 25.8699 6.71815 25.8667 6.70802 25.8632C3.61715 24.7961 1.51431 22.6461 0.665425 20.0297C-0.395097 17.3719 0.26853 14.338 1.90042 11.8029C1.90598 11.7943 1.91179 11.7858 1.91782 11.7774L1.92578 11.7665C2.51083 10.9586 3.11975 10.1177 3.93317 9.27528C4.1149 9.08707 4.4024 9.049 4.62685 9.18343ZM2.97885 12.2305C2.93202 12.295 2.88515 12.3597 2.83814 12.4247C1.33713 14.7632 0.824889 17.412 1.71659 19.6284C1.72157 19.6408 1.72611 19.6533 1.73019 19.666C2.45556 21.9197 4.27361 23.828 7.05998 24.7945C9.14105 25.3796 11.7856 25.571 14.2256 24.9878C14.3839 24.95 14.5508 24.9826 14.6832 25.0771C14.8156 25.1716 14.9007 25.3189 14.9163 25.4809L15.0535 26.9022L21.5453 20.8348L12.6602 20.9991L13.6074 22.1202C13.7322 22.2679 13.7724 22.4694 13.7138 22.6537C13.6551 22.838 13.506 22.9793 13.3187 23.0277C11.7283 23.4395 9.85378 23.6737 8.33545 23.2354C5.81352 22.7899 3.91464 21.2567 2.85993 19.2905C2.84895 19.27 2.83925 19.2489 2.83089 19.2273C2.00372 17.0856 1.9993 14.7436 2.97885 12.2305Z" fill="url(#paint13_linear_2145_32473)"/>
<defs>
<linearGradient id="paint0_linear_2145_32473" x1="29.1979" y1="0.714354" x2="1.26918" y2="25.0903" gradientUnits="userSpaceOnUse">
<stop stop-color="#08FFFF"/>
<stop offset="1" stop-color="#007AFF"/>
</linearGradient>
<linearGradient id="paint1_linear_2145_32473" x1="29.1979" y1="0.714354" x2="1.26918" y2="25.0903" gradientUnits="userSpaceOnUse">
<stop stop-color="#08FFFF"/>
<stop offset="1" stop-color="#007AFF"/>
</linearGradient>
<linearGradient id="paint2_linear_2145_32473" x1="29.1979" y1="0.714354" x2="1.26918" y2="25.0903" gradientUnits="userSpaceOnUse">
<stop stop-color="#08FFFF"/>
<stop offset="1" stop-color="#007AFF"/>
</linearGradient>
<linearGradient id="paint3_linear_2145_32473" x1="29.1979" y1="0.714354" x2="1.26918" y2="25.0903" gradientUnits="userSpaceOnUse">
<stop stop-color="#08FFFF"/>
<stop offset="1" stop-color="#007AFF"/>
</linearGradient>
<linearGradient id="paint4_linear_2145_32473" x1="29.1979" y1="0.714354" x2="1.26918" y2="25.0903" gradientUnits="userSpaceOnUse">
<stop stop-color="#08FFFF"/>
<stop offset="1" stop-color="#007AFF"/>
</linearGradient>
<linearGradient id="paint5_linear_2145_32473" x1="29.1979" y1="0.714354" x2="1.26918" y2="25.0903" gradientUnits="userSpaceOnUse">
<stop stop-color="#08FFFF"/>
<stop offset="1" stop-color="#007AFF"/>
</linearGradient>
<linearGradient id="paint6_linear_2145_32473" x1="29.1979" y1="0.714354" x2="1.26918" y2="25.0903" gradientUnits="userSpaceOnUse">
<stop stop-color="#08FFFF"/>
<stop offset="1" stop-color="#007AFF"/>
</linearGradient>
<linearGradient id="paint7_linear_2145_32473" x1="29.1979" y1="0.714354" x2="1.26918" y2="25.0903" gradientUnits="userSpaceOnUse">
<stop stop-color="#08FFFF"/>
<stop offset="1" stop-color="#007AFF"/>
</linearGradient>
<linearGradient id="paint8_linear_2145_32473" x1="29.1979" y1="0.714354" x2="1.26918" y2="25.0903" gradientUnits="userSpaceOnUse">
<stop stop-color="#08FFFF"/>
<stop offset="1" stop-color="#007AFF"/>
</linearGradient>
<linearGradient id="paint9_linear_2145_32473" x1="29.1979" y1="0.714354" x2="1.26918" y2="25.0903" gradientUnits="userSpaceOnUse">
<stop stop-color="#08FFFF"/>
<stop offset="1" stop-color="#007AFF"/>
</linearGradient>
<linearGradient id="paint10_linear_2145_32473" x1="29.1979" y1="0.714354" x2="1.26918" y2="25.0903" gradientUnits="userSpaceOnUse">
<stop stop-color="#08FFFF"/>
<stop offset="1" stop-color="#007AFF"/>
</linearGradient>
<linearGradient id="paint11_linear_2145_32473" x1="29.1979" y1="0.714354" x2="1.26918" y2="25.0903" gradientUnits="userSpaceOnUse">
<stop stop-color="#08FFFF"/>
<stop offset="1" stop-color="#007AFF"/>
</linearGradient>
<linearGradient id="paint12_linear_2145_32473" x1="29.1979" y1="0.714354" x2="1.26918" y2="25.0903" gradientUnits="userSpaceOnUse">
<stop stop-color="#08FFFF"/>
<stop offset="1" stop-color="#007AFF"/>
</linearGradient>
<linearGradient id="paint13_linear_2145_32473" x1="29.1979" y1="0.714354" x2="1.26918" y2="25.0903" gradientUnits="userSpaceOnUse">
<stop stop-color="#08FFFF"/>
<stop offset="1" stop-color="#007AFF"/>
</linearGradient>
</defs>
</svg>
