<svg width="46" height="46" viewBox="0 0 46 46" fill="none" xmlns="http://www.w3.org/2000/svg">
<path d="M1.57129 23.3334H44.4284M1.57129 23.3334C1.57129 35.168 11.1651 44.7619 22.9998 44.7619M1.57129 23.3334C1.57129 11.4987 11.1651 1.90479 22.9998 1.90479M44.4284 23.3334C44.4284 35.168 34.8344 44.7619 22.9998 44.7619M44.4284 23.3334C44.4284 11.4987 34.8344 1.90479 22.9998 1.90479M22.9998 44.7619C28.7572 44.7619 33.4245 35.168 33.4245 23.3334C33.4245 11.4987 28.7572 1.90479 22.9998 1.90479M22.9998 44.7619C17.2424 44.7619 12.5751 35.168 12.5751 23.3334C12.5751 11.4987 17.2424 1.90479 22.9998 1.90479M22.9998 44.7619V1.90479M4.58852 12.6191H41.3646M4.58852 34.0476H41.3646" stroke="white" stroke-width="2" stroke-miterlimit="10" stroke-linecap="round"/>
</svg>
