<svg width="24" height="24" viewBox="0 0 24 24" fill="none" xmlns="http://www.w3.org/2000/svg">
<mask id="mask0_169_13145" style="mask-type:alpha" maskUnits="userSpaceOnUse" x="2" y="2" width="20" height="20">
<path fill-rule="evenodd" clip-rule="evenodd" d="M12 22C17.5228 22 22 17.5228 22 12C22 6.47715 17.5228 2 12 2C6.47715 2 2 6.47715 2 12C2 17.5228 6.47715 22 12 22Z" fill="white"/>
</mask>
<g mask="url(#mask0_169_13145)">
<path d="M27.3844 2.00018H-3.38477V22H27.3844V2.00018Z" fill="#F2F2F2"/>
<path d="M13.9229 2H10.0767V10.1248H-3.38477V13.8747H10.0767V21.9995H13.9229V13.8747H27.3844V10.1248H13.9229V2Z" fill="#B5010A"/>
<path d="M20.2798 15.478L27.384 19.3262V15.478H20.2798Z" fill="#0052B4"/>
<path d="M15.3442 15.4781L27.3843 21.9997V20.1556L18.749 15.4781H15.3442Z" fill="#0052B4"/>
<path d="M24.1773 21.9994L15.3442 17.2145V21.9994H24.1773Z" fill="#0052B4"/>
<path d="M15.3442 15.4778L27.3843 21.9994V20.1552L18.749 15.4778H15.3442Z" fill="#F2F2F2"/>
<path d="M15.3442 15.4778L27.3843 21.9994V20.1552L18.749 15.4778H15.3442Z" fill="#B5010A"/>
<path d="M2.04437 15.4778L-3.38477 18.4185V15.4778H2.04437Z" fill="#0052B4"/>
<path d="M8.65567 16.3071V21.9995H-1.85254L8.65567 16.3071Z" fill="#0052B4"/>
<path d="M5.25061 15.4778L-3.38477 20.1552V21.9994L8.65535 15.4778H5.25061Z" fill="#B5010A"/>
<path d="M3.71948 8.5214L-3.38477 4.67328V8.5214H3.71948Z" fill="#0052B4"/>
<path d="M8.65535 8.52159L-3.38477 2V3.84414L5.25061 8.52159H8.65535Z" fill="#0052B4"/>
<path d="M-0.177246 2L8.65578 6.7849V2H-0.177246Z" fill="#0052B4"/>
<path d="M8.65535 8.52159L-3.38477 2V3.84414L5.25061 8.52159H8.65535Z" fill="#F2F2F2"/>
<path d="M8.65535 8.52159L-3.38477 2V3.84414L5.25061 8.52159H8.65535Z" fill="#B5010A"/>
<path d="M21.9551 8.52151L27.3842 5.58075V8.52151H21.9551Z" fill="#0052B4"/>
<path d="M15.3442 7.69233V2H25.8524L15.3442 7.69233Z" fill="#0052B4"/>
<path d="M18.749 8.52159L27.3843 3.84414V2L15.3442 8.52159H18.749Z" fill="#B5010A"/>
</g>
</svg>
