<svg width="24" height="24" viewBox="0 0 24 24" fill="none" xmlns="http://www.w3.org/2000/svg">
<path d="M10.9116 10.7193L7.47109 7.36791C6.99815 6.9072 6.99815 6.15767 7.47109 5.69696L10.9116 2.34553C11.3845 1.88482 12.154 1.88482 12.6269 2.34553L16.0674 5.69696C16.5403 6.15767 16.5403 6.9072 16.0674 7.36791L12.6269 10.7193C12.1515 11.1824 11.387 11.1824 10.9116 10.7193Z" fill="url(#paint0_linear_169_13154)"/>
<path d="M17.028 16.6775L13.5875 13.3261C13.1145 12.8654 13.1145 12.1158 13.5875 11.6551L17.028 8.30368C17.5009 7.84298 18.2703 7.84298 18.7433 8.30368L22.1838 11.6551C22.6567 12.1158 22.6567 12.8654 22.1838 13.3261L18.7433 16.6775C18.2679 17.1406 17.5009 17.1382 17.028 16.6775Z" fill="url(#paint1_linear_169_13154)"/>
<path d="M4.79518 16.6774L1.35471 13.326C0.881765 12.8653 0.881765 12.1157 1.35471 11.655L4.79518 8.30359C5.26812 7.84288 6.03757 7.84288 6.51051 8.30359L9.95098 11.655C10.4239 12.1157 10.4239 12.8653 9.95098 13.326L6.51051 16.6774C6.03757 17.1381 5.27057 17.1405 4.79518 16.6774Z" fill="url(#paint2_linear_169_13154)"/>
<path d="M9.19128 20.9598C7.76755 19.573 7.76755 17.3243 9.19128 15.9375C10.615 14.5506 12.9234 14.5506 14.3471 15.9375C15.7708 17.3243 15.7708 19.573 14.3471 20.9598C12.9234 22.3467 10.615 22.3467 9.19128 20.9598Z" fill="url(#paint3_linear_169_13154)"/>
<defs>
<linearGradient id="paint0_linear_169_13154" x1="22.4739" y1="2" x2="2.25316" y2="20.0742" gradientUnits="userSpaceOnUse">
<stop stop-color="#00C6FF"/>
<stop offset="1" stop-color="#0072FF"/>
</linearGradient>
<linearGradient id="paint1_linear_169_13154" x1="22.4739" y1="2" x2="2.25316" y2="20.0742" gradientUnits="userSpaceOnUse">
<stop stop-color="#00C6FF"/>
<stop offset="1" stop-color="#0072FF"/>
</linearGradient>
<linearGradient id="paint2_linear_169_13154" x1="22.4739" y1="2" x2="2.25316" y2="20.0742" gradientUnits="userSpaceOnUse">
<stop stop-color="#00C6FF"/>
<stop offset="1" stop-color="#0072FF"/>
</linearGradient>
<linearGradient id="paint3_linear_169_13154" x1="22.4739" y1="2" x2="2.25316" y2="20.0742" gradientUnits="userSpaceOnUse">
<stop stop-color="#00C6FF"/>
<stop offset="1" stop-color="#0072FF"/>
</linearGradient>
</defs>
</svg>
