<svg width="24" height="24" viewBox="0 0 24 24" fill="none" xmlns="http://www.w3.org/2000/svg">
<g id="Kind=Notification settings">
<path id="Notification settings (Stroke)" fill-rule="evenodd" clip-rule="evenodd" d="M10.9518 2.95357H14.3415L14.4524 4.62644C15.0705 4.79971 15.6563 5.05877 16.1948 5.39065L17.3897 4.287L19.7652 6.80769L18.7333 8.06559C19.0574 8.64982 19.3089 9.28301 19.4749 9.95289L21.0465 10.0702V13.6014L19.475 13.7188C19.3092 14.3885 19.0579 15.0235 18.7337 15.6065L19.7652 16.864L17.3897 19.3847L16.1943 18.2806C15.6549 18.6123 15.0707 18.8717 14.4524 19.0452L14.3411 20.7236L13.8911 20.718L13.8751 20.7178L13.8311 20.7171C13.793 20.7164 13.7377 20.7152 13.6683 20.7135C13.559 20.7107 13.4144 20.7064 13.2462 20.6998C13.0535 20.9105 12.7805 21.0464 12.4659 21.0464H4.03234C3.4066 21.0464 2.95361 20.5162 2.95361 19.9308V14.7267C2.95361 14.1413 3.4066 13.6111 4.03234 13.6111H4.26815L4.25051 13.6101V10.0702L5.822 9.95289C5.98779 9.28317 6.23905 8.64815 6.56328 8.06512L5.5321 6.80804L7.90322 4.28666L9.09896 5.39109C9.63837 5.05934 10.2225 4.79999 10.8409 4.62649L10.9518 2.95357ZM6.5465 13.6111H7.88948C7.87562 13.5702 7.86173 13.529 7.84829 13.4886C7.78227 13.2904 7.70629 13.0528 7.67698 12.905L7.67642 12.9022C7.12535 10.0343 8.86339 7.20013 11.6231 6.59865C14.3941 5.99912 17.053 7.89924 17.6092 10.7728C17.8858 12.2118 17.5802 13.7624 16.8054 14.9766C16.0952 16.0899 14.9776 16.9367 13.5446 17.1322V18.3771L13.5508 18.2833L13.8975 18.2057C14.6476 18.0377 15.348 17.7233 15.9745 17.2899L16.2875 17.0734L17.3433 18.0486L18.5008 16.8205L17.5742 15.6909L17.7525 15.4023C18.1622 14.739 18.4619 13.9855 18.6224 13.1787L18.6928 12.8245L20.0965 12.7197V10.9519L18.6928 10.8471L18.6224 10.493C18.4621 9.68685 18.1625 8.93682 17.7518 8.26839L17.5747 7.98009L18.5008 6.85118L17.3433 5.62301L16.2867 6.59891L15.9735 6.38102C15.3519 5.94863 14.6483 5.6341 13.8975 5.46598L13.5508 5.38836L13.4524 3.90357H11.8409L11.7424 5.38836L11.3958 5.46598C10.6456 5.63395 9.94524 5.94831 9.31872 6.38172L9.00576 6.59823L7.95028 5.62335L6.79593 6.85084L7.72282 7.98078L7.54452 8.26939C7.13473 8.93269 6.83505 9.68619 6.67461 10.493L6.60419 10.8471L5.20051 10.9519V12.7111L6.43223 12.7791L6.5465 13.6111ZM13.5446 16.1708C14.6043 15.9862 15.4446 15.3433 16.0046 14.4656C16.6496 13.4546 16.9067 12.1517 16.6766 10.9533C16.2117 8.55163 14.0254 7.05107 11.8251 7.52694C9.61404 8.00905 8.14744 10.3147 8.60906 12.7214C8.62479 12.7997 8.67905 12.9765 8.74962 13.1885C8.79351 13.3202 8.83558 13.442 8.87072 13.5437C8.87886 13.5673 8.88663 13.5898 8.89397 13.6111H12.4659C13.0842 13.6111 13.5446 14.1334 13.5446 14.7267V16.1708ZM4.52166 14.5611L8.24033 17.9151L11.9745 14.5611H4.52166ZM12.5946 15.281L8.23901 19.1933L6.96309 18.0425L4.67325 20.0964H12.4659C12.4897 20.0964 12.5188 20.0867 12.5464 20.0573C12.5744 20.0276 12.5946 19.9834 12.5946 19.9308V15.281ZM3.90361 19.5106L6.25368 17.4026L3.90361 15.2829V19.5106Z" fill="url(#paint0_linear_358_83481)"/>
</g>
<defs>
<linearGradient id="paint0_linear_358_83481" x1="20.9922" y1="2.95357" x2="2.89937" y2="17.9706" gradientUnits="userSpaceOnUse">
<stop stop-color="#08FFFF"/>
<stop offset="1" stop-color="#007AFF"/>
</linearGradient>
</defs>
</svg>
