<svg width="18" height="13" viewBox="0 0 18 13" fill="none" xmlns="http://www.w3.org/2000/svg">
<g id="Set up transactions limit">
<path id="Vector (Stroke)" fill-rule="evenodd" clip-rule="evenodd" d="M11.9634 0.358526C12.1412 0.277094 12.3502 0.306779 12.4982 0.434507L16.3256 3.73601C16.435 3.8304 16.4982 3.9675 16.499 4.112C16.4997 4.2565 16.4379 4.39426 16.3295 4.48978L12.5022 7.86178C12.3547 7.99168 12.1449 8.02317 11.9658 7.94228C11.7867 7.86139 11.6716 7.68311 11.6716 7.48661V6.12242H7.31947C7.04333 6.12242 6.81947 5.89856 6.81947 5.62242V2.6773C6.81947 2.40116 7.04333 2.1773 7.31947 2.1773H11.6716V0.81311C11.6716 0.617561 11.7856 0.439958 11.9634 0.358526ZM12.6716 1.90474V2.6773C12.6716 2.95345 12.4478 3.1773 12.1716 3.1773H7.81947V5.12242H12.1716C12.4478 5.12242 12.6716 5.34628 12.6716 5.62242V6.37972L15.2381 4.1186L12.6716 1.90474ZM6.03463 5.07239C6.2137 5.15328 6.32879 5.33156 6.32879 5.52806V6.89225H10.681C10.9571 6.89225 11.181 7.11611 11.181 7.39225V10.3335C11.181 10.6096 10.9571 10.8335 10.681 10.8335H6.32879V12.1976C6.32879 12.3931 6.21486 12.5707 6.03714 12.6522C5.85943 12.7336 5.65053 12.704 5.50243 12.5764L1.6751 9.27885C1.56559 9.1845 1.50227 9.04737 1.50147 8.90282C1.50067 8.75827 1.56247 8.62045 1.67093 8.52489L5.49826 5.15289C5.6457 5.023 5.85555 4.9915 6.03463 5.07239ZM2.7626 8.89585L5.32879 11.1069V10.3335C5.32879 10.0573 5.55265 9.83345 5.82879 9.83345H10.181V7.89225H5.82879C5.55265 7.89225 5.32879 7.6684 5.32879 7.39225V6.63495L2.7626 8.89585Z" fill="url(#paint0_linear_358_83474)"/>
<g id="Vector">
<path d="M16.666 8.19884C16.1666 8.19884 15.7604 7.77195 15.7604 7.24716V1.09454C15.7604 0.569741 16.1666 0.142857 16.666 0.142857C17.1654 0.142857 17.5716 0.569741 17.5716 1.09454V7.24716C17.5716 7.77195 17.1654 8.19884 16.666 8.19884Z" fill="url(#paint1_linear_358_83474)"/>
<path d="M1.3343 13C0.834922 13 0.428711 12.577 0.428711 12.0483V5.89569C0.428711 5.3709 0.834922 4.94401 1.3343 4.94401C1.83368 4.94401 2.23989 5.3709 2.23989 5.89569V12.0483C2.23989 12.577 1.83368 13 1.3343 13Z" fill="url(#paint2_linear_358_83474)"/>
</g>
</g>
<defs>
<linearGradient id="paint0_linear_358_83474" x1="16.454" y1="0.313102" x2="3.85402" y2="12.9776" gradientUnits="userSpaceOnUse">
<stop stop-color="#08FFFF"/>
<stop offset="1" stop-color="#007AFF"/>
</linearGradient>
<linearGradient id="paint1_linear_358_83474" x1="17.5202" y1="0.142856" x2="4.5061" y2="14.5451" gradientUnits="userSpaceOnUse">
<stop stop-color="#08FFFF"/>
<stop offset="1" stop-color="#007AFF"/>
</linearGradient>
<linearGradient id="paint2_linear_358_83474" x1="17.5202" y1="0.142856" x2="4.5061" y2="14.5451" gradientUnits="userSpaceOnUse">
<stop stop-color="#08FFFF"/>
<stop offset="1" stop-color="#007AFF"/>
</linearGradient>
</defs>
</svg>
