<svg width="16" height="20" viewBox="0 0 16 20" fill="none" xmlns="http://www.w3.org/2000/svg">
<path d="M13.3676 8.96485V6.68918C13.3676 4.08377 10.9469 1.95134 7.98926 1.95134C5.03164 1.95134 2.61093 4.08377 2.61093 6.68918V8.96485C2.61093 14.3919 0 14.3432 0 16.8027C0 18 1.14439 17.8324 2.5465 17.8324H13.4535C14.8525 17.8324 16 18.0378 16 16.8027C16 14.327 13.3676 14.3919 13.3676 8.96485Z" fill="url(#paint0_linear_786_12774)"/>
<path d="M10.4469 17.8459C10.4469 19.0351 9.35155 20 8.0016 20C6.65165 20 5.55635 19.0351 5.55635 17.8459" fill="url(#paint1_linear_786_12774)"/>
<path d="M6.23429 2.14595V1.45405C6.23429 0.651351 6.97369 0 7.88491 0H8.11502C9.02623 0 9.76564 0.651351 9.76564 1.45405V2.14324" fill="url(#paint2_linear_786_12774)"/>
<defs>
<linearGradient id="paint0_linear_786_12774" x1="15.952" y1="-1.1279e-06" x2="-2.80186" y2="12.4526" gradientUnits="userSpaceOnUse">
<stop stop-color="#00C6FF"/>
<stop offset="1" stop-color="#0072FF"/>
</linearGradient>
<linearGradient id="paint1_linear_786_12774" x1="15.952" y1="-1.1279e-06" x2="-2.80186" y2="12.4526" gradientUnits="userSpaceOnUse">
<stop stop-color="#00C6FF"/>
<stop offset="1" stop-color="#0072FF"/>
</linearGradient>
<linearGradient id="paint2_linear_786_12774" x1="15.952" y1="-1.1279e-06" x2="-2.80186" y2="12.4526" gradientUnits="userSpaceOnUse">
<stop stop-color="#00C6FF"/>
<stop offset="1" stop-color="#0072FF"/>
</linearGradient>
</defs>
</svg>
