<svg width="24" height="24" viewBox="0 0 24 24" fill="none" xmlns="http://www.w3.org/2000/svg">
<g id="Kind=Notification">
<path id="Notification (Stroke)" fill-rule="evenodd" clip-rule="evenodd" d="M12.7585 3.92857C12.1921 3.92857 11.8437 4.3207 11.8437 4.6749V4.69097C12.1699 4.632 12.5059 4.60115 12.8479 4.60115C13.1964 4.60115 13.5386 4.63317 13.8705 4.69432V4.6749C13.8705 4.3207 13.5221 3.92857 12.9557 3.92857H12.7585ZM14.8705 4.97721V4.6749C14.8705 3.65304 13.9514 2.92857 12.9557 2.92857H12.7585C11.7628 2.92857 10.8437 3.65304 10.8437 4.6749V4.97014C9.04339 5.66085 7.73794 7.25301 7.73794 9.16215V11.1127C7.73794 13.3376 7.20897 14.3935 6.70366 15.1472C6.61419 15.2807 6.51775 15.4127 6.41979 15.5468C5.97557 16.1548 5.5 16.8058 5.5 17.8309C5.5 18.1669 5.58142 18.4778 5.79038 18.7247C5.9957 18.9674 6.27036 19.084 6.52694 19.1439C6.78046 19.2031 7.0611 19.2172 7.32973 19.2199C7.47141 19.2213 7.63929 19.2191 7.80652 19.2169C7.9365 19.2152 8.0661 19.2135 8.18271 19.2135H10.3177C10.5703 20.3106 11.6579 21.0714 12.8585 21.0714C14.0592 21.0714 15.1467 20.3106 15.3994 19.2135H17.5316C17.676 19.2135 17.8179 19.2161 17.96 19.2189L17.976 19.2192C18.1111 19.2218 18.2475 19.2245 18.3786 19.2245C18.6456 19.2244 18.9271 19.214 19.1815 19.1572C19.4399 19.0995 19.7179 18.9838 19.9251 18.7366C20.1345 18.4867 20.2143 18.1714 20.2143 17.8309C20.2143 16.7973 19.7332 16.1449 19.2844 15.5363C19.1863 15.4033 19.0897 15.2724 19.0001 15.1401C18.4909 14.3882 17.9579 13.3365 17.9579 11.1127V9.16215C17.9579 7.2595 16.6613 5.67167 14.8705 4.97721ZM14.3429 19.2135H11.3741C11.5989 19.6939 12.1462 20.0714 12.8585 20.0714C13.5708 20.0714 14.1181 19.6939 14.3429 19.2135ZM12.8479 5.60115C10.5275 5.60115 8.73794 7.26278 8.73794 9.16215V11.1127C8.73794 13.5396 8.14794 14.7887 7.53428 15.7041C7.40151 15.9021 7.27841 16.0734 7.16686 16.2286C6.75436 16.8024 6.5 17.1563 6.5 17.8309C6.5 18.008 6.54119 18.0639 6.55371 18.0787C6.56987 18.0978 6.61555 18.1377 6.75441 18.1701C6.89635 18.2033 7.08628 18.2174 7.33958 18.2199C7.48495 18.2214 7.62125 18.2194 7.76823 18.2173C7.89436 18.2154 8.02836 18.2135 8.18271 18.2135H17.5316C17.687 18.2135 17.8381 18.2164 17.9793 18.2191L17.9911 18.2193C18.1296 18.222 18.2573 18.2245 18.3785 18.2245C18.6331 18.2244 18.8224 18.2127 18.9637 18.1812C19.1011 18.1505 19.1439 18.1118 19.1587 18.0942C19.1712 18.0793 19.2143 18.0197 19.2143 17.8309C19.2143 17.1503 18.9567 16.7952 18.5392 16.2198C18.4277 16.0661 18.3047 15.8965 18.1721 15.7008C17.5532 14.787 16.9579 13.5407 16.9579 11.1127V9.16215C16.9579 7.26278 15.1684 5.60115 12.8479 5.60115Z" fill="url(#paint0_linear_358_83478)"/>
</g>
<defs>
<linearGradient id="paint0_linear_358_83478" x1="20.1702" y1="2.92857" x2="3.0685" y2="14.4405" gradientUnits="userSpaceOnUse">
<stop stop-color="#08FFFF"/>
<stop offset="1" stop-color="#007AFF"/>
</linearGradient>
</defs>
</svg>
