<svg width="18" height="20" viewBox="0 0 18 20" fill="none" xmlns="http://www.w3.org/2000/svg">
<path d="M8.99998 8.67831C11.5289 8.67831 13.5789 6.7356 13.5789 4.33915C13.5789 1.94271 11.5289 0 8.99998 0C6.4711 0 4.42103 1.94271 4.42103 4.33915C4.42103 6.7356 6.4711 8.67831 8.99998 8.67831Z" fill="#C5C5C5"/>
<path d="M18 16.4589C17.8421 11.2219 17.2105 9.72568 11.6842 8.82792C11.6842 8.82792 10.8947 9.72568 9 9.72568C7.10526 9.72568 6.31579 8.82792 6.31579 8.82792C0.789474 9.72568 0 11.2219 0 16.3092C0 16.6085 0 16.9077 0 17.207C0 17.207 0.473684 18.2544 2.84211 19.0025C2.84211 19.0025 8.21053 21.2469 15.1579 19.0025C17.5263 18.2544 18 17.207 18 17.207V16.4589Z" fill="#C5C5C5"/>
</svg>
