<svg width="29" height="30" viewBox="0 0 29 30" fill="none" xmlns="http://www.w3.org/2000/svg">
<path d="M13.7111 22.6572C13.7111 23.6092 13.9007 24.3708 14.0902 25.1324C8.21288 25.7036 3.66266 24.1804 3.66266 24.1804C0.818777 23.2284 0.25 21.8956 0.25 21.8956V20.7533C0.25 14.2798 1.19796 12.3758 7.45451 11.2334C7.8337 11.2334 8.21288 11.2334 8.40248 11.4238C8.97125 11.8046 9.72962 12.1854 11.2464 12.1854C12.7631 12.1854 13.5215 11.8046 14.0902 11.4238C14.2798 11.2334 14.659 11.043 15.0382 11.2334C17.3133 11.6142 19.0196 12.1854 19.9676 13.1374C20.726 13.7086 20.5364 15.0413 19.5884 15.2317C16.1758 15.9933 13.7111 19.0397 13.7111 22.6572Z" fill="url(#paint0_linear_2145_32394)"/>
<path d="M11.246 11.043C14.2826 11.043 16.7442 8.57095 16.7442 5.52151C16.7442 2.47206 14.2826 0 11.246 0C8.20948 0 5.74786 2.47206 5.74786 5.52151C5.74786 8.57095 8.20948 11.043 11.246 11.043Z" fill="url(#paint1_linear_2145_32394)"/>
<path d="M22.6215 19.4205V18.6589C22.6215 18.4685 22.432 18.2781 22.2424 18.2781H21.6736C21.484 18.2781 21.2944 18.4685 21.2944 18.6589V19.4205C20.7256 19.6109 20.3464 19.6109 19.9672 19.9916C19.3985 20.3724 19.2089 20.7532 19.2089 21.3244C19.2089 21.8956 19.3985 22.2764 19.7777 22.4668C20.1568 22.8476 20.7256 23.038 21.484 23.2284C22.2424 23.4188 22.8111 23.6092 23.0007 23.6092C23.1903 23.7996 23.3799 23.99 23.3799 24.1804C23.3799 24.7516 23.0007 25.1324 22.0528 25.1324C21.2944 25.1324 20.7256 24.942 20.536 24.3708C20.3464 24.1804 20.1568 23.99 19.9672 23.99H19.3985C19.2089 23.99 19.2089 23.99 19.0193 24.1804V24.3708C19.3985 25.3228 20.1568 25.7036 21.1048 25.894V26.6555C21.1048 26.8459 21.2944 27.0363 21.484 27.0363H22.0528C22.2424 27.0363 22.432 26.8459 22.432 26.6555V25.894C23.0007 25.894 23.3799 25.5132 23.7591 25.3228C24.3279 24.942 24.5175 24.5612 24.5175 23.7996C24.5175 23.2284 24.3279 22.8476 23.9487 22.4668C23.7591 22.2764 23.1903 21.8956 22.6215 21.8956H22.432C21.6736 21.7052 21.1048 21.5148 20.9152 21.5148C20.536 21.3244 20.536 21.3244 20.536 20.9436C20.536 20.5628 20.9152 20.3724 21.6736 20.3724C22.0528 20.3724 22.2424 20.3724 22.432 20.5628C22.6215 20.5628 22.6215 20.7532 22.6215 20.7532C22.6215 20.9436 23.0007 20.9436 23.0007 20.9436H23.7591C24.1383 20.9436 24.3279 20.7532 24.1383 20.3724C24.1383 19.9916 23.5695 19.6109 22.6215 19.4205Z" fill="url(#paint2_linear_2145_32394)"/>
<path fill-rule="evenodd" clip-rule="evenodd" d="M14.8571 22.6572C14.8571 18.9937 17.8598 16.0049 21.6741 16.0049H22.265L22.2871 16.0062C25.9213 16.2209 28.5031 19.0445 28.3014 22.8684C28.29 26.5224 25.2915 29.4999 21.4845 29.4999C18.661 29.4999 16.3436 27.5501 15.303 25.2512L15.275 25.1892L15.2486 25.0834C15.0657 24.3488 14.8571 23.5113 14.8571 22.6572ZM21.6741 17.5049C18.663 17.5049 16.3571 19.8471 16.3571 22.6572C16.3571 23.2917 16.5108 23.9425 16.6972 24.6928C17.5644 26.5538 19.4009 27.9999 21.4845 27.9999C24.4955 27.9999 26.8014 25.6576 26.8014 22.8476V22.8269L26.8026 22.8062C26.9692 19.7939 25.0141 17.6801 22.2201 17.5049H21.6741Z" fill="url(#paint3_linear_2145_32394)"/>
<defs>
<linearGradient id="paint0_linear_2145_32394" x1="20.375" y1="11.1545" x2="6.23326" y2="27.9511" gradientUnits="userSpaceOnUse">
<stop stop-color="#08FFFF"/>
<stop offset="1" stop-color="#007AFF"/>
</linearGradient>
<linearGradient id="paint1_linear_2145_32394" x1="16.7113" y1="-6.22773e-07" x2="5.67694" y2="9.11978" gradientUnits="userSpaceOnUse">
<stop stop-color="#08FFFF"/>
<stop offset="1" stop-color="#007AFF"/>
</linearGradient>
<linearGradient id="paint2_linear_2145_32394" x1="24.501" y1="18.2781" x2="17.1979" y2="22.0834" gradientUnits="userSpaceOnUse">
<stop stop-color="#08FFFF"/>
<stop offset="1" stop-color="#007AFF"/>
</linearGradient>
<linearGradient id="paint3_linear_2145_32394" x1="28.2721" y1="16.0049" x2="14.7845" y2="27.1667" gradientUnits="userSpaceOnUse">
<stop stop-color="#08FFFF"/>
<stop offset="1" stop-color="#007AFF"/>
</linearGradient>
</defs>
</svg>
