<svg width="24" height="24" viewBox="0 0 24 24" fill="none" xmlns="http://www.w3.org/2000/svg">
<path d="M21.5327 17.7017L21.4336 17.4114C21.2117 16.7405 20.4673 16.0405 19.7844 15.8527L17.2576 15.1646C16.5747 14.9768 15.5981 15.2278 15.0928 15.728L14.1811 16.6414C12.5485 16.1984 11.0602 15.3359 9.86398 14.1397C8.66778 12.9435 7.80531 11.4552 7.36223 9.82256L8.27562 8.90917C8.77586 8.40893 9.02683 7.43408 8.83903 6.74604L8.14587 4.2261C7.96148 3.54318 7.25808 2.80052 6.58542 2.57516L6.29859 2.48126C5.54739 2.27638 4.74497 2.46418 4.16449 2.9849L2.79867 4.35073C2.55624 4.59316 2.40087 5.28632 2.40087 5.28973C2.35648 9.62964 4.05694 13.8091 7.12492 16.8788C10.1844 19.9519 14.3467 21.6369 18.673 21.5994C18.6969 21.5994 19.4139 21.4457 19.67 21.2033L21.0358 19.8375C21.5548 19.257 21.7426 18.4546 21.5395 17.7068L21.5344 17.7L21.5327 17.7017Z" fill="white"/>
</svg>
