<svg width="25" height="24" viewBox="0 0 25 24" fill="none" xmlns="http://www.w3.org/2000/svg">
<mask id="path-1-outside-1_1692_8810" maskUnits="userSpaceOnUse" x="3.5" y="3" width="18" height="18" fill="black">
<rect fill="white" x="3.5" y="3" width="18" height="18"/>
<path d="M19.4509 16.1575L19.3787 15.9458C19.2168 15.4566 18.6741 14.9462 18.1761 14.8092L16.3337 14.3076C15.8357 14.1706 15.1236 14.3536 14.7551 14.7184L14.0904 15.3844C12.8999 15.0613 11.8147 14.4324 10.9425 13.5602C10.0702 12.688 9.44136 11.6027 9.11827 10.4123L9.78429 9.74627C10.149 9.38152 10.332 8.67068 10.1951 8.16899L9.68968 6.33153C9.55523 5.83358 9.04234 5.29205 8.55185 5.12772L8.34271 5.05925C7.79495 4.90987 7.20985 5.0468 6.78659 5.4265L5.79068 6.42241C5.6139 6.59918 5.50062 7.10461 5.50062 7.1071C5.46825 10.2716 6.70816 13.3191 8.94523 15.5574C11.1761 17.7982 14.2111 19.0269 17.3657 18.9996C17.3831 18.9996 17.906 18.8875 18.0927 18.7107L19.0886 17.7148C19.4671 17.2916 19.604 16.7065 19.4559 16.1612L19.4521 16.1562L19.4509 16.1575Z"/>
</mask>
<path d="M19.4509 16.1575L19.3787 15.9458C19.2168 15.4566 18.6741 14.9462 18.1761 14.8092L16.3337 14.3076C15.8357 14.1706 15.1236 14.3536 14.7551 14.7184L14.0904 15.3844C12.8999 15.0613 11.8147 14.4324 10.9425 13.5602C10.0702 12.688 9.44136 11.6027 9.11827 10.4123L9.78429 9.74627C10.149 9.38152 10.332 8.67068 10.1951 8.16899L9.68968 6.33153C9.55523 5.83358 9.04234 5.29205 8.55185 5.12772L8.34271 5.05925C7.79495 4.90987 7.20985 5.0468 6.78659 5.4265L5.79068 6.42241C5.6139 6.59918 5.50062 7.10461 5.50062 7.1071C5.46825 10.2716 6.70816 13.3191 8.94523 15.5574C11.1761 17.7982 14.2111 19.0269 17.3657 18.9996C17.3831 18.9996 17.906 18.8875 18.0927 18.7107L19.0886 17.7148C19.4671 17.2916 19.604 16.7065 19.4559 16.1612L19.4521 16.1562L19.4509 16.1575Z" stroke="#86868B" stroke-width="3" mask="url(#path-1-outside-1_1692_8810)"/>
</svg>
