<svg width="32" height="24" viewBox="0 0 32 24" fill="none" xmlns="http://www.w3.org/2000/svg">
<path d="M31.4947 9.10077V20.9888C31.4947 22.4312 30.3251 23.6 28.8827 23.6H8.96906C7.52666 23.6 6.35706 22.4312 6.35706 20.9888V19.3744H24.0155C25.5475 19.3744 26.7883 18.1328 26.7883 16.6008V6.48877H28.8827C30.3251 6.48877 31.4947 7.65837 31.4947 9.10077Z" fill="url(#paint0_linear_2145_32477)"/>
<path d="M22.9123 0.47998H2.91788C1.58508 0.47998 0.503479 1.56078 0.503479 2.89438V15.4184C0.503479 16.7512 1.58428 17.8328 2.91788 17.8328H22.9115C24.2443 17.8328 25.3259 16.752 25.3259 15.4184V2.89438C25.3267 1.56078 24.2451 0.47998 22.9123 0.47998ZM5.34428 4.92238C5.34428 4.39118 5.77548 3.96078 6.30668 3.96078H8.56748C9.09868 3.96078 9.52908 4.39198 9.52908 4.92238V5.83998C9.52908 6.37198 9.09788 6.80238 8.56748 6.80238H6.30668C5.77468 6.80238 5.34428 6.37118 5.34428 5.83998V4.92238ZM20.3339 11.3464C20.1883 11.4912 19.9875 11.5808 19.7667 11.5808H6.10028C5.65708 11.5808 5.29788 11.2216 5.29788 10.7784C5.29788 10.5568 5.38748 10.3568 5.53228 10.2112C5.67788 10.0664 5.87788 9.97678 6.09948 9.97678H19.7651C20.2083 9.97678 20.5675 10.336 20.5675 10.7792C20.5683 11.0008 20.4787 11.2008 20.3339 11.3464Z" fill="url(#paint1_linear_2145_32477)"/>
<defs>
<linearGradient id="paint0_linear_2145_32477" x1="0.675871" y1="-3.20572" x2="29.1306" y2="25.249" gradientUnits="userSpaceOnUse">
<stop offset="0.00558659" stop-color="#08FFFF"/>
<stop offset="1" stop-color="#0051E3"/>
</linearGradient>
<linearGradient id="paint1_linear_2145_32477" x1="0.614399" y1="-3.14423" x2="29.0691" y2="25.3105" gradientUnits="userSpaceOnUse">
<stop offset="0.00558659" stop-color="#08FFFF"/>
<stop offset="1" stop-color="#0051E3"/>
</linearGradient>
</defs>
</svg>
