<svg width="18" height="19" viewBox="0 0 18 19" fill="none" xmlns="http://www.w3.org/2000/svg">
<path d="M14.3289 5.9375C12.7061 5.9375 11.3847 4.60591 11.3847 2.96875C11.3847 1.33159 12.7061 0 14.3289 0C15.9518 0 17.2732 1.33159 17.2732 2.96875C17.2732 4.60591 15.9518 5.9375 14.3289 5.9375ZM14.3289 1.1875C13.3554 1.1875 12.5624 1.98622 12.5624 2.96875C12.5624 3.95128 13.3554 4.75 14.3289 4.75C15.3025 4.75 16.0955 3.95128 16.0955 2.96875C16.0955 1.98622 15.3025 1.1875 14.3289 1.1875Z" fill="#001F7B"/>
<path d="M14.3289 19C12.7061 19 11.3847 17.6684 11.3847 16.0312C11.3847 14.3941 12.7061 13.0625 14.3289 13.0625C15.9518 13.0625 17.2732 14.3941 17.2732 16.0312C17.2732 17.6684 15.9518 19 14.3289 19ZM14.3289 14.25C13.3554 14.25 12.5624 15.0487 12.5624 16.0312C12.5624 17.0138 13.3554 17.8125 14.3289 17.8125C15.3025 17.8125 16.0955 17.0138 16.0955 16.0312C16.0955 15.0487 15.3025 14.25 14.3289 14.25Z" fill="#001F7B"/>
<path d="M2.94466 12.4688C1.32174 12.4688 0.000427246 11.1372 0.000427246 9.5C0.000427246 7.86284 1.32174 6.53125 2.94466 6.53125C4.56759 6.53125 5.8889 7.86284 5.8889 9.5C5.8889 11.1372 4.56759 12.4688 2.94466 12.4688ZM2.94466 7.71875C1.97111 7.71875 1.17812 8.51747 1.17812 9.5C1.17812 10.4825 1.97111 11.2812 2.94466 11.2812C3.91822 11.2812 4.71121 10.4825 4.71121 9.5C4.71121 8.51747 3.91822 7.71875 2.94466 7.71875Z" fill="#001F7B"/>
<path d="M4.99436 8.9221C4.78935 8.9221 4.58996 8.8144 4.48242 8.62291C4.32141 8.33792 4.4196 7.97524 4.70224 7.81303L11.9875 3.62503C12.2693 3.46123 12.6297 3.56096 12.7898 3.84682C12.9508 4.13181 12.8526 4.49435 12.57 4.6567L5.28476 8.84455C5.19289 8.89674 5.09327 8.9221 4.99436 8.9221Z" fill="#001F7B"/>
<path d="M12.2794 15.4532C12.1805 15.4532 12.0808 15.4278 11.9889 15.3749L4.70364 11.1869C4.42101 11.0247 4.32296 10.662 4.48383 10.377C4.64398 10.0913 5.00367 9.99233 5.28631 10.1554L12.5714 14.3433C12.8541 14.5056 12.9522 14.8681 12.7914 15.1531C12.683 15.3455 12.4836 15.4532 12.2794 15.4532Z" fill="#001F7B"/>
</svg>
