<svg width="21" height="17" viewBox="0 0 21 17" fill="none" xmlns="http://www.w3.org/2000/svg">
<path d="M17.5277 12.4553L17.5998 16L13.3662 12.4553H3.39686C2.21128 12.4553 1.25 11.494 1.25 10.3084V3.14686C1.25 1.96128 2.21128 1 3.39686 1H17.5237C18.7133 1 19.6746 1.96128 19.6746 3.14686V10.3084C19.6746 11.494 18.7133 12.4553 17.5277 12.4553Z" stroke="#001F7B" stroke-width="1.3" stroke-miterlimit="10" stroke-linecap="round" stroke-linejoin="round"/>
<path d="M6.26431 8.13357C7.11375 8.13357 7.80236 7.44496 7.80236 6.59552C7.80236 5.74607 7.11375 5.05746 6.26431 5.05746C5.41487 5.05746 4.72626 5.74607 4.72626 6.59552C4.72626 7.44496 5.41487 8.13357 6.26431 8.13357Z" fill="#001F7B"/>
<path d="M10.4618 8.13357C11.3112 8.13357 11.9998 7.44496 11.9998 6.59552C11.9998 5.74607 11.3112 5.05746 10.4618 5.05746C9.61235 5.05746 8.92374 5.74607 8.92374 6.59552C8.92374 7.44496 9.61235 8.13357 10.4618 8.13357Z" fill="#001F7B"/>
<path d="M14.6595 8.13357C15.5089 8.13357 16.1975 7.44496 16.1975 6.59552C16.1975 5.74607 15.5089 5.05746 14.6595 5.05746C13.8101 5.05746 13.1214 5.74607 13.1214 6.59552C13.1214 7.44496 13.8101 8.13357 14.6595 8.13357Z" fill="#001F7B"/>
</svg>
