<svg width="18" height="20" viewBox="0 0 18 20" fill="none" xmlns="http://www.w3.org/2000/svg">
<path d="M4 20H0V6.38356C0 6.19178 0.205128 6 0.410256 6H3.58974C3.79487 6 4 6.19178 4 6.38356V20Z" fill="url(#paint0_linear_773_10036)"/>
<path d="M10.8974 20H7V0.384615C7 0.192308 7.20513 0 7.41026 0H10.5897C10.7949 0 11 0.192308 11 0.384615V20H10.8974Z" fill="url(#paint1_linear_773_10036)"/>
<path d="M18 20H14V10.3846C14 10.1923 14.2051 10 14.4103 10H17.5897C17.7949 10 18 10.1923 18 10.3846V20Z" fill="url(#paint2_linear_773_10036)"/>
<defs>
<linearGradient id="paint0_linear_773_10036" x1="3.98801" y1="6" x2="-2.40791" y2="7.51674" gradientUnits="userSpaceOnUse">
<stop stop-color="#00C6FF"/>
<stop offset="1" stop-color="#0072FF"/>
</linearGradient>
<linearGradient id="paint1_linear_773_10036" x1="10.988" y1="-1.1279e-06" x2="4.41357" y2="1.09136" gradientUnits="userSpaceOnUse">
<stop stop-color="#00C6FF"/>
<stop offset="1" stop-color="#0072FF"/>
</linearGradient>
<linearGradient id="paint2_linear_773_10036" x1="17.988" y1="10" x2="11.9031" y2="12.0202" gradientUnits="userSpaceOnUse">
<stop stop-color="#00C6FF"/>
<stop offset="1" stop-color="#0072FF"/>
</linearGradient>
</defs>
</svg>
