<svg width="16" height="16" viewBox="0 0 16 16" fill="none" xmlns="http://www.w3.org/2000/svg">
<path fill-rule="evenodd" clip-rule="evenodd" d="M7.83341 1.6665C4.42766 1.6665 1.66675 4.42741 1.66675 7.83317C1.66675 11.2389 4.42766 13.9998 7.83341 13.9998C11.2392 13.9998 14.0001 11.2389 14.0001 7.83317C14.0001 4.42741 11.2392 1.6665 7.83341 1.6665ZM0.666748 7.83317C0.666748 3.87513 3.87537 0.666504 7.83341 0.666504C11.7915 0.666504 15.0001 3.87513 15.0001 7.83317C15.0001 11.7912 11.7915 14.9998 7.83341 14.9998C3.87537 14.9998 0.666748 11.7912 0.666748 7.83317Z" fill="#9EA7B8"/>
<path fill-rule="evenodd" clip-rule="evenodd" d="M7.99992 11.3335C8.36811 11.3335 8.66659 11.1436 8.66659 10.9093V7.09107C8.66659 6.85677 8.36811 6.66683 7.99992 6.66683C7.63173 6.66683 7.33325 6.85677 7.33325 7.09107V10.9093C7.33325 11.1436 7.63173 11.3335 7.99992 11.3335Z" fill="#9EA7B8"/>
<path d="M8.66659 5.33333C8.66659 4.96514 8.36811 4.66667 7.99992 4.66667C7.63173 4.66667 7.33325 4.96514 7.33325 5.33333C7.33325 5.70152 7.63173 6 7.99992 6C8.36811 6 8.66659 5.70152 8.66659 5.33333Z" fill="#9EA7B8"/>
</svg>
