<svg width="24" height="18" viewBox="0 0 24 18" fill="none" xmlns="http://www.w3.org/2000/svg">
<g id="Set up transactions limit">
<path id="Vector (Stroke)" fill-rule="evenodd" clip-rule="evenodd" d="M15.9513 1.14479C16.1884 1.03622 16.467 1.0758 16.6644 1.2461L21.7675 5.64811C21.9134 5.77395 21.9977 5.95676 21.9987 6.14942C21.9997 6.34209 21.9173 6.52576 21.7728 6.65313L16.6697 11.1491C16.4731 11.3223 16.1933 11.3643 15.9545 11.2565C15.7157 11.1486 15.5623 10.9109 15.5623 10.6489V8.82998H9.75939C9.3912 8.82998 9.09272 8.53151 9.09272 8.16332V4.2365C9.09272 3.86831 9.3912 3.56983 9.75939 3.56983H15.5623V1.75091C15.5623 1.49017 15.7143 1.25337 15.9513 1.14479ZM16.8956 3.20641V4.2365C16.8956 4.60469 16.5971 4.90316 16.229 4.90316H10.4261V7.49665H16.229C16.5971 7.49665 16.8956 7.79513 16.8956 8.16332V9.17305L20.3176 6.15822L16.8956 3.20641ZM8.04626 7.42995C8.28503 7.5378 8.43848 7.77551 8.43848 8.0375V9.85643H14.2414C14.6096 9.85643 14.908 10.1549 14.908 10.5231V14.4447C14.908 14.8129 14.6096 15.1114 14.2414 15.1114H8.43848V16.9303C8.43848 17.1909 8.28657 17.4277 8.04961 17.5363C7.81266 17.6449 7.53414 17.6055 7.33666 17.4353L2.23356 13.0386C2.08754 12.9128 2.00312 12.7299 2.00205 12.5372C2.00099 12.3445 2.08339 12.1607 2.228 12.0333L7.33111 7.53728C7.52769 7.36409 7.80749 7.32209 8.04626 7.42995ZM3.68355 12.5279L7.10515 15.4759V14.4447C7.10515 14.0765 7.40363 13.778 7.77182 13.778H13.5747V11.1898H7.77182C7.40363 11.1898 7.10515 10.8913 7.10515 10.5231V9.51336L3.68355 12.5279Z" fill="url(#paint0_linear_3766_22298)"/>
<g id="Vector">
<path d="M22.2211 11.5985C21.5553 11.5985 21.0137 11.0293 21.0137 10.3296V2.12608C21.0137 1.42636 21.5553 0.857178 22.2211 0.857178C22.887 0.857178 23.4286 1.42636 23.4286 2.12608V10.3296C23.4286 11.0293 22.887 11.5985 22.2211 11.5985Z" fill="url(#paint1_linear_3766_22298)"/>
<path d="M1.77888 18C1.11304 18 0.571428 17.4361 0.571428 16.7311V8.52762C0.571428 7.8279 1.11304 7.25872 1.77888 7.25872C2.44472 7.25872 2.98633 7.8279 2.98633 8.52762V16.7311C2.98633 17.4361 2.44472 18 1.77888 18Z" fill="url(#paint2_linear_3766_22298)"/>
</g>
</g>
<defs>
<linearGradient id="paint0_linear_3766_22298" x1="21.9388" y1="1.08423" x2="5.13878" y2="17.9702" gradientUnits="userSpaceOnUse">
<stop stop-color="#08FFFF"/>
<stop offset="1" stop-color="#007AFF"/>
</linearGradient>
<linearGradient id="paint1_linear_3766_22298" x1="23.36" y1="0.857177" x2="6.00795" y2="20.0602" gradientUnits="userSpaceOnUse">
<stop stop-color="#08FFFF"/>
<stop offset="1" stop-color="#007AFF"/>
</linearGradient>
<linearGradient id="paint2_linear_3766_22298" x1="23.36" y1="0.857177" x2="6.00795" y2="20.0602" gradientUnits="userSpaceOnUse">
<stop stop-color="#08FFFF"/>
<stop offset="1" stop-color="#007AFF"/>
</linearGradient>
</defs>
</svg>
