<svg width="16" height="22" viewBox="0 0 16 22" fill="none" xmlns="http://www.w3.org/2000/svg">
<path fill-rule="evenodd" clip-rule="evenodd" d="M0.00472736 16.928L0 2.91164C0 1.63528 1.03527 0.600006 2.31164 0.600006H15.756V15.9778H2.30691C1.404 15.9778 0.590909 16.3371 0.00472736 16.928ZM13.3073 4.78364C13.4869 4.59927 13.4822 4.30146 13.2978 4.11709C13.1134 3.93746 12.8109 3.94218 12.6313 4.12182L8.32472 8.52291L7.1949 7.02436C7.03891 6.81636 6.74109 6.77382 6.53309 6.92982C6.32509 7.08582 6.28254 7.38363 6.43854 7.59163L7.89927 9.53454C7.97963 9.648 8.10727 9.71418 8.24436 9.72363H8.27745C8.40036 9.72363 8.52327 9.67163 8.61308 9.58181L13.3073 4.78364ZM8.72654 3.28037C8.72654 3.02037 8.51381 2.80764 8.25381 2.80764C5.28036 2.80764 2.86 5.22327 2.86 8.20145C2.86 11.1796 5.28036 13.5953 8.25381 13.5953C11.2273 13.5953 13.6476 11.1749 13.6476 8.20145C13.6476 7.94145 13.4349 7.72873 13.1749 7.72873C12.9149 7.72873 12.7022 7.94145 12.7022 8.20145C12.7022 10.6549 10.7073 12.6498 8.25381 12.6498C5.80036 12.6498 3.80545 10.6549 3.80545 8.20145C3.80545 5.748 5.80036 3.75309 8.25381 3.75309C8.51381 3.75309 8.72654 3.54037 8.72654 3.28037ZM0.00472736 19.1451C0.052 17.8971 1.05418 16.9233 2.30691 16.9233V16.9186H15.028C14.5458 17.5567 14.2764 18.3367 14.2764 19.1593C14.2764 19.9818 14.5458 20.7665 15.028 21.4H2.30691C1.04473 21.4 0.0330908 20.412 0 19.1782V19.1735C0 19.1711 0.00118208 19.1675 0.00236416 19.164C0.00354576 19.1605 0.00472736 19.1569 0.00472736 19.1545V19.1451Z" fill="white"/>
</svg>
