<svg width="40" height="40" viewBox="0 0 40 40" fill="none" xmlns="http://www.w3.org/2000/svg">
<g clip-path="url(#clip0_5478_78018)">
<path d="M27.5224 5.70801H15.0959C14.3874 5.70801 13.8109 6.24697 13.8109 6.90931V17.169H21.0695C23.4867 17.169 25.4455 19.0067 25.4455 21.26V21.6626H28.8005C29.1825 21.6626 29.4951 21.9548 29.4951 22.3119C29.4951 22.669 29.1825 22.9613 28.8005 22.9613H25.4455V30.1755H31.5719C32.2804 30.1755 32.857 29.6366 32.857 28.9742V10.5846L32.8153 10.5457H27.5224V5.70801ZM29.0436 14.2015C29.4256 14.2015 29.7382 14.4937 29.7382 14.8509C29.7382 15.208 29.4256 15.5002 29.0436 15.5002H17.666C17.2839 15.5002 16.9713 15.208 16.9713 14.8509C16.9713 14.4937 17.2839 14.2015 17.666 14.2015H29.0436Z" fill="url(#paint0_linear_5478_78018)"/>
<path d="M21.0697 18.4678H10.1297C8.48344 18.4678 7.14286 19.721 7.14286 21.26V31.4873C7.14286 33.0262 8.48344 34.2795 10.1297 34.2795H21.0697C22.7159 34.2795 24.0565 33.0262 24.0565 31.4873V21.26C24.0565 19.721 22.7159 18.4678 21.0697 18.4678ZM14.0264 25.5457V21.2145H17.1799V25.5457H19.5416L15.5962 29.5782L11.6647 25.5457H14.0264V25.5457ZM19.9653 32.1496H11.2341V30.1236H19.9653V32.1496Z" fill="url(#paint1_linear_5478_78018)"/>
<path d="M32.76 9.383L28.8285 5.74664C28.7729 5.69469 28.8285 9.383 28.8285 9.383H32.76Z" fill="url(#paint2_linear_5478_78018)"/>
</g>
<defs>
<linearGradient id="paint0_linear_5478_78018" x1="32.7999" y1="5.70801" x2="10.1061" y2="20.3702" gradientUnits="userSpaceOnUse">
<stop stop-color="#08FFFF"/>
<stop offset="1" stop-color="#007AFF"/>
</linearGradient>
<linearGradient id="paint1_linear_5478_78018" x1="24.0058" y1="18.4678" x2="8.03198" y2="32.65" gradientUnits="userSpaceOnUse">
<stop stop-color="#08FFFF"/>
<stop offset="1" stop-color="#007AFF"/>
</linearGradient>
<linearGradient id="paint2_linear_5478_78018" x1="32.7481" y1="5.74609" x2="29.0671" y2="9.06951" gradientUnits="userSpaceOnUse">
<stop stop-color="#08FFFF"/>
<stop offset="1" stop-color="#007AFF"/>
</linearGradient>
<clipPath id="clip0_5478_78018">
<rect width="40" height="40" fill="white"/>
</clipPath>
</defs>
</svg>
