<svg width="40" height="40" viewBox="0 0 40 40" fill="none" xmlns="http://www.w3.org/2000/svg">
<g clip-path="url(#clip0_5478_78016)">
<path d="M24.8399 26.7764C24.7885 26.7764 24.7371 26.795 24.6793 26.795C24.6215 26.795 24.5765 26.7826 24.5187 26.7764C22.4117 26.8447 20.6773 28.2236 20.3433 30.031H29.0089C28.6813 28.2236 26.9468 26.8447 24.8399 26.7764Z" fill="url(#paint0_linear_5478_78016)"/>
<path d="M15.0312 25.6024H10.2712C9.9179 25.6024 9.62883 25.3229 9.62883 24.9813C9.62883 24.6397 9.9179 24.3602 10.2712 24.3602H15.2046C15.6928 22.1117 17.0354 20.1676 18.879 18.8447H10.2712C9.9179 18.8447 9.62883 18.5652 9.62883 18.2235C9.62883 17.8819 9.9179 17.6024 10.2712 17.6024H21.1979C21.2044 17.6024 21.2172 17.6086 21.2236 17.6086C22.2707 17.2297 23.3948 17.0124 24.5704 17.0124C24.9365 17.0124 25.2963 17.0372 25.6496 17.0745V7.27323C25.6496 6.40987 24.9751 5.70801 24.1464 5.70801H8.646C7.81734 5.70801 7.14285 6.40987 7.14285 7.27323V28.6521C7.14285 29.5155 7.81734 30.2173 8.646 30.2173H15.9305C15.3395 29.0186 14.9991 27.6832 14.9991 26.267C14.9991 26.0434 15.0183 25.826 15.0312 25.6024ZM10.2712 10.8447H23.3499C23.7032 10.8447 23.9923 11.1242 23.9923 11.4658C23.9923 11.8074 23.7032 12.0869 23.3499 12.0869H10.2712C9.9179 12.0869 9.62883 11.8074 9.62883 11.4658C9.62883 11.1242 9.91147 10.8447 10.2712 10.8447Z" fill="url(#paint1_linear_5478_78016)"/>
<path d="M24.4805 25.5275C24.5448 25.5275 24.609 25.5213 24.6797 25.5213C24.7439 25.5213 24.8146 25.5275 24.8788 25.5275C25.8937 25.4281 26.6967 24.6082 26.6967 23.5958C26.6967 22.5213 25.791 21.6455 24.6797 21.6455C23.5684 21.6455 22.6626 22.5213 22.6626 23.5958C22.6626 24.6082 23.4656 25.4281 24.4805 25.5275Z" fill="url(#paint2_linear_5478_78016)"/>
<path d="M24.5705 18.2544C20.0032 18.2544 16.2839 21.8507 16.2839 26.2668C16.2839 30.683 20.0032 34.2792 24.5705 34.2792C29.1377 34.2792 32.8571 30.683 32.8571 26.2668C32.8571 21.8507 29.1377 18.2544 24.5705 18.2544ZM29.7094 31.2668H19.6499C19.2966 31.2668 19.0075 30.9873 19.0075 30.6457C19.0075 28.5339 20.4272 26.7202 22.4506 25.9314C21.7954 25.3476 21.3843 24.5215 21.3843 23.596C21.3843 21.8382 22.8682 20.4035 24.6861 20.4035C26.504 20.4035 27.9879 21.8382 27.9879 23.596C27.9879 24.5215 27.5703 25.3476 26.9215 25.9314C28.945 26.714 30.3647 28.5339 30.3647 30.6457C30.3518 30.9873 30.0627 31.2668 29.7094 31.2668Z" fill="url(#paint3_linear_5478_78016)"/>
</g>
<defs>
<linearGradient id="paint0_linear_5478_78016" x1="28.9829" y1="26.7764" x2="26.4954" y2="32.2734" gradientUnits="userSpaceOnUse">
<stop stop-color="#08FFFF"/>
<stop offset="1" stop-color="#007AFF"/>
</linearGradient>
<linearGradient id="paint1_linear_5478_78016" x1="25.5941" y1="5.70801" x2="3.15269" y2="19.7726" gradientUnits="userSpaceOnUse">
<stop stop-color="#08FFFF"/>
<stop offset="1" stop-color="#007AFF"/>
</linearGradient>
<linearGradient id="paint2_linear_5478_78016" x1="26.6846" y1="21.6455" x2="22.7779" y2="25.0152" gradientUnits="userSpaceOnUse">
<stop stop-color="#08FFFF"/>
<stop offset="1" stop-color="#007AFF"/>
</linearGradient>
<linearGradient id="paint3_linear_5478_78016" x1="32.8074" y1="18.2544" x2="16.6918" y2="32.0881" gradientUnits="userSpaceOnUse">
<stop stop-color="#08FFFF"/>
<stop offset="1" stop-color="#007AFF"/>
</linearGradient>
<clipPath id="clip0_5478_78016">
<rect width="40" height="40" fill="white"/>
</clipPath>
</defs>
</svg>
