<svg width="40" height="40" viewBox="0 0 40 40" fill="none" xmlns="http://www.w3.org/2000/svg">
<path fill-rule="evenodd" clip-rule="evenodd" d="M20 7.1875C18.4159 7.1875 16.9962 7.31931 15.7334 7.57869C15.2262 7.68286 14.7306 7.35615 14.6264 6.84897C14.5223 6.34179 14.849 5.8462 15.3562 5.74203C16.7656 5.45254 18.3144 5.3125 20 5.3125C21.6856 5.3125 23.2344 5.45254 24.6438 5.74203C25.151 5.8462 25.4777 6.34179 25.3736 6.84897C25.2694 7.35615 24.7738 7.68286 24.2666 7.57869C23.0038 7.31931 21.5841 7.1875 20 7.1875ZM6.84897 14.6264C7.35615 14.7306 7.68286 15.2262 7.57869 15.7334C7.31931 16.9962 7.1875 18.4159 7.1875 20C7.1875 21.5841 7.31931 23.0038 7.57869 24.2666C7.68286 24.7738 7.35615 25.2694 6.84897 25.3736C6.3418 25.4777 5.8462 25.151 5.74203 24.6438C5.45254 23.2344 5.3125 21.6856 5.3125 20C5.3125 18.3144 5.45254 16.7656 5.74203 15.3562C5.8462 14.849 6.3418 14.5223 6.84897 14.6264ZM33.151 14.6264C33.6582 14.5223 34.1538 14.849 34.258 15.3562C34.5475 16.7656 34.6875 18.3144 34.6875 20C34.6875 21.6856 34.5475 23.2344 34.258 24.6438C34.1538 25.151 33.6582 25.4777 33.151 25.3736C32.6438 25.2694 32.3171 24.7738 32.4213 24.2666C32.6807 23.0038 32.8125 21.5841 32.8125 20C32.8125 18.4159 32.6807 16.9962 32.4213 15.7334C32.3171 15.2262 32.6438 14.7306 33.151 14.6264ZM14.6264 33.151C14.7306 32.6438 15.2262 32.3171 15.7334 32.4213C16.9962 32.6807 18.4159 32.8125 20 32.8125C21.5841 32.8125 23.0038 32.6807 24.2666 32.4213C24.7738 32.3171 25.2694 32.6438 25.3736 33.151C25.4777 33.6582 25.151 34.1538 24.6438 34.258C23.2344 34.5475 21.6856 34.6875 20 34.6875C18.3144 34.6875 16.7656 34.5475 15.3562 34.258C14.849 34.1538 14.5223 33.6582 14.6264 33.151Z" fill="url(#paint0_linear_5464_1132)"/>
<path fill-rule="evenodd" clip-rule="evenodd" d="M19.125 19.125V13.8929C19.125 13.4688 19.4688 13.125 19.8929 13.125C20.3169 13.125 20.6607 13.4688 20.6607 13.8929V19.125H26.1071C26.5312 19.125 26.875 19.4688 26.875 19.8928C26.875 20.3169 26.5312 20.6607 26.1071 20.6607H20.6607V26.1071C20.6607 26.5312 20.3169 26.875 19.8929 26.875C19.4688 26.875 19.125 26.5312 19.125 26.1071V20.6607H13.8929C13.4688 20.6607 13.125 20.3169 13.125 19.8928C13.125 19.4688 13.4688 19.125 13.8929 19.125H19.125Z" fill="url(#paint1_linear_5464_1132)"/>
<defs>
<linearGradient id="paint0_linear_5464_1132" x1="34.5994" y1="5.3125" x2="5.22443" y2="29.6937" gradientUnits="userSpaceOnUse">
<stop stop-color="#08FFFF"/>
<stop offset="1" stop-color="#007AFF"/>
</linearGradient>
<linearGradient id="paint1_linear_5464_1132" x1="26.39" y1="13.5714" x2="13.5329" y2="24.2429" gradientUnits="userSpaceOnUse">
<stop stop-color="#08FFFF"/>
<stop offset="1" stop-color="#007AFF"/>
</linearGradient>
</defs>
</svg>
