<svg width="40" height="40" viewBox="0 0 40 40" fill="none" xmlns="http://www.w3.org/2000/svg">
<g clip-path="url(#clip0_5478_78023)">
<path fill-rule="evenodd" clip-rule="evenodd" d="M8.57827 28.1366L8.57141 8.88333C8.57141 7.13008 10.0733 5.70801 11.9249 5.70801H31.4286V26.8314H11.918C10.6082 26.8314 9.42864 27.3249 8.57827 28.1366ZM27.8762 11.4548C28.1368 11.2015 28.1299 10.7924 27.8625 10.5392C27.595 10.2924 27.1561 10.2989 26.8955 10.5457L20.648 16.5911L19.009 14.5327C18.7827 14.247 18.3507 14.1885 18.0489 14.4028C17.7472 14.6171 17.6855 15.0262 17.9118 15.3119L20.0308 17.9807C20.1474 18.1366 20.3326 18.2275 20.5315 18.2405H20.5795C20.7578 18.2405 20.9361 18.169 21.0664 18.0457L27.8762 11.4548ZM21.231 9.38982C21.231 9.03268 20.9224 8.74047 20.5452 8.74047C16.2316 8.74047 12.7204 12.0587 12.7204 16.1496C12.7204 20.2405 16.2316 23.5586 20.5452 23.5586C24.8588 23.5586 28.37 20.234 28.37 16.1496C28.37 15.7924 28.0614 15.5002 27.6842 15.5002C27.307 15.5002 26.9984 15.7924 26.9984 16.1496C26.9984 19.5197 24.1044 22.2599 20.5452 22.2599C16.986 22.2599 14.092 19.5197 14.092 16.1496C14.092 12.7794 16.986 10.0392 20.5452 10.0392C20.9224 10.0392 21.231 9.74697 21.231 9.38982ZM8.57828 31.1818C8.64686 29.4675 10.1007 28.1299 11.918 28.1299V28.1234H30.3725C29.673 29 29.2821 30.0714 29.2821 31.2013C29.2821 32.3312 29.673 33.4091 30.3725 34.2792H11.918C10.087 34.2792 8.61943 32.9221 8.57142 31.2273V31.2208C8.57142 31.2175 8.57314 31.2127 8.57485 31.2078C8.57656 31.2029 8.57828 31.198 8.57828 31.1948V31.1818Z" fill="url(#paint0_linear_5478_78023)"/>
</g>
<defs>
<linearGradient id="paint0_linear_5478_78023" x1="31.36" y1="5.70801" x2="4.56876" y2="23.4974" gradientUnits="userSpaceOnUse">
<stop stop-color="#08FFFF"/>
<stop offset="1" stop-color="#007AFF"/>
</linearGradient>
<clipPath id="clip0_5478_78023">
<rect width="40" height="40" fill="white"/>
</clipPath>
</defs>
</svg>
