<svg width="40" height="40" viewBox="0 0 40 40" fill="none" xmlns="http://www.w3.org/2000/svg">
<g clip-path="url(#clip0_5478_78033)">
<path d="M13.0288 7.86399H18.7097C18.7738 7.86399 18.8314 7.81399 18.8314 7.74525V5.82674C18.8314 5.76425 18.7802 5.70801 18.7097 5.70801H13.0288C12.9647 5.70801 12.9071 5.758 12.9071 5.82674V7.7515C12.9071 7.80774 12.9647 7.86399 13.0288 7.86399Z" fill="url(#paint0_linear_5478_78033)"/>
<path d="M26.9777 20.0186C22.9492 20.0186 19.67 23.2182 19.67 27.1489C19.67 31.0797 22.9492 34.2793 26.9777 34.2793C31.0063 34.2793 34.2855 31.0797 34.2855 27.1489C34.2855 23.2182 31.0063 20.0186 26.9777 20.0186ZM31.8004 27.9333L27.093 29.7768C27.0161 29.808 26.9329 29.8205 26.856 29.8205C26.7343 29.8205 26.6062 29.783 26.5038 29.7143C26.3308 29.6018 26.222 29.4081 26.2156 29.2081L26.1003 23.5963C26.0939 23.2526 26.3757 22.9651 26.7279 22.9589C26.7343 22.9589 26.7343 22.9589 26.7407 22.9589C27.0866 22.9589 27.3748 23.2276 27.3812 23.5713L27.4773 28.2832L31.3265 26.7772C31.6531 26.6459 32.0246 26.8022 32.1591 27.1271C32.2936 27.4396 32.1335 27.802 31.8004 27.9333Z" fill="url(#paint1_linear_5478_78033)"/>
<path d="M10.7487 22.4127H19.9009C21.0154 20.8379 22.6678 19.6505 24.602 19.1068V8.32068C24.602 7.7895 24.1601 7.35205 23.6093 7.35205H20.1123V7.74575C20.1123 8.50191 19.4846 9.11433 18.7097 9.11433H13.0287C12.2602 9.11433 11.6261 8.50191 11.6261 7.74575V7.3583H8.13555C7.58475 7.3583 7.14282 7.7895 7.14282 8.32068V29.2931C7.14282 29.8242 7.58475 30.2617 8.13555 30.2617H19.0107C18.6136 29.2993 18.3894 28.2494 18.3894 27.1496C18.3894 25.8997 18.6776 24.7249 19.1836 23.6563H10.7487C10.3964 23.6563 10.1082 23.375 10.1082 23.0313C10.1082 22.6876 10.39 22.4127 10.7487 22.4127ZM10.7487 13.57H20.9961C21.3484 13.57 21.6366 13.8512 21.6366 14.1949C21.6366 14.5387 21.3484 14.8199 20.9961 14.8199H10.7487C10.3964 14.8199 10.1082 14.5387 10.1082 14.1949C10.1082 13.8512 10.39 13.57 10.7487 13.57ZM10.7487 17.9882H20.9961C21.3484 17.9882 21.6366 18.2694 21.6366 18.6131C21.6366 18.9568 21.3484 19.2381 20.9961 19.2381H10.7487C10.3964 19.2381 10.1082 18.9568 10.1082 18.6131C10.1082 18.2694 10.39 17.9882 10.7487 17.9882Z" fill="url(#paint2_linear_5478_78033)"/>
</g>
<defs>
<linearGradient id="paint0_linear_5478_78033" x1="18.8137" y1="5.70801" x2="17.2003" y2="9.38765" gradientUnits="userSpaceOnUse">
<stop stop-color="#08FFFF"/>
<stop offset="1" stop-color="#007AFF"/>
</linearGradient>
<linearGradient id="paint1_linear_5478_78033" x1="34.2416" y1="20.0186" x2="19.9204" y2="32.2009" gradientUnits="userSpaceOnUse">
<stop stop-color="#08FFFF"/>
<stop offset="1" stop-color="#007AFF"/>
</linearGradient>
<linearGradient id="paint2_linear_5478_78033" x1="24.5496" y1="7.35205" x2="3.48913" y2="20.6735" gradientUnits="userSpaceOnUse">
<stop stop-color="#08FFFF"/>
<stop offset="1" stop-color="#007AFF"/>
</linearGradient>
<clipPath id="clip0_5478_78033">
<rect width="40" height="40" fill="white"/>
</clipPath>
</defs>
</svg>
