<svg width="40" height="40" viewBox="0 0 40 40" fill="none" xmlns="http://www.w3.org/2000/svg">
<g clip-path="url(#clip0_5478_78030)">
<path d="M26.4702 31.4226C30.7857 31.4226 34.2857 27.8405 34.2857 23.4177C34.2857 19.001 30.7857 15.4189 26.4702 15.4189C22.1547 15.4189 18.6547 19.001 18.6547 23.4177C18.6488 27.8405 22.1488 31.4226 26.4702 31.4226Z" fill="url(#paint0_linear_5478_78030)"/>
<path d="M30.875 16.5886V10.9169C30.875 9.61934 29.8452 8.56543 28.5774 8.56543H8.01191C6.74406 8.56543 5.71429 9.61934 5.71429 10.9169V22.9121C5.71429 24.2097 6.74406 25.2636 8.01191 25.2636H18.8869" fill="url(#paint1_linear_5478_78030)"/>
<path d="M30.875 16.5886V10.9169C30.875 9.61934 29.8452 8.56543 28.5774 8.56543H8.01191C6.74406 8.56543 5.71429 9.61934 5.71429 10.9169V22.9121C5.71429 24.2097 6.74406 25.2636 8.01191 25.2636H18.8869M30.8512 11.0448H5.79168M26.4702 31.4226C30.7857 31.4226 34.2857 27.8405 34.2857 23.4177C34.2857 19.001 30.7857 15.4189 26.4702 15.4189C22.1547 15.4189 18.6547 19.001 18.6547 23.4177C18.6488 27.8405 22.1488 31.4226 26.4702 31.4226Z" stroke="white" stroke-width="1.66667" stroke-miterlimit="10"/>
<path d="M30.1843 23.2912C29.888 23.2912 29.6455 23.5374 29.6455 23.8383C29.6455 25.5708 28.2537 26.984 26.5476 26.984C24.8414 26.984 23.4496 25.5708 23.4496 23.8383C23.4496 22.2153 24.6619 20.875 26.2243 20.7108V21.8324L28.6578 20.0908L26.2243 18.3128V19.6076C24.0782 19.7808 22.381 21.6044 22.381 23.8292C22.381 26.1634 24.2488 28.06 26.5476 28.06C28.8464 28.06 30.7141 26.1634 30.7141 23.8292C30.7231 23.5374 30.4806 23.2912 30.1843 23.2912Z" fill="white"/>
<path d="M14.2587 16.9933V16.1693C14.2587 16.1693 14.3141 14.2515 12.4549 14.2515C10.5956 14.2515 10.6621 16.1693 10.6621 16.1693V16.9933C10.1188 16.9933 9.68262 17.4673 9.68262 18.047V20.5081C9.68262 21.0915 10.1225 21.5619 10.6621 21.5619H14.2587C14.802 21.5619 15.2382 21.0879 15.2382 20.5081V18.047C15.2382 17.4637 14.7983 16.9933 14.2587 16.9933ZM13.3863 16.9933H11.5345V16.0818C11.5345 15.8886 11.5862 15.1666 12.4585 15.1666C13.3309 15.1666 13.3826 15.8922 13.3863 16.0818V16.9933Z" fill="white"/>
</g>
<defs>
<linearGradient id="paint0_linear_5478_78030" x1="34.2" y1="8.56543" x2="10.9607" y2="32.6762" gradientUnits="userSpaceOnUse">
<stop stop-color="#08FFFF"/>
<stop offset="1" stop-color="#007AFF"/>
</linearGradient>
<linearGradient id="paint1_linear_5478_78030" x1="34.2" y1="8.56543" x2="10.9607" y2="32.6762" gradientUnits="userSpaceOnUse">
<stop stop-color="#08FFFF"/>
<stop offset="1" stop-color="#007AFF"/>
</linearGradient>
<clipPath id="clip0_5478_78030">
<rect width="40" height="40" fill="white"/>
</clipPath>
</defs>
</svg>
