<svg width="40" height="40" viewBox="0 0 40 40" fill="none" xmlns="http://www.w3.org/2000/svg">
<g clip-path="url(#clip0_5478_78022)">
<path d="M17.6372 25.2842C17.6372 22.4084 19.9229 20.0775 22.7287 20.0775H32.1798V17.878C32.1798 16.9982 31.4799 16.2891 30.626 16.2891H17.4253C17.4446 16.5977 17.451 16.9194 17.4574 17.2477L19.7046 17.2148C19.8716 17.1951 20.0578 17.3199 20.1412 17.4906C20.2247 17.6613 20.2054 17.8648 20.0899 18.0093L15.1268 24.5422C15.0369 24.6604 14.9021 24.7326 14.7544 24.7326H14.748C14.6067 24.7326 14.4655 24.667 14.3756 24.5554L9.20704 18.1472C9.09147 18.0027 9.06579 17.7992 9.14284 17.6285C9.21988 17.4578 9.38682 17.3462 9.57301 17.3462L11.8202 17.3133C11.8202 17.2739 11.8202 17.228 11.8202 17.1886C11.8266 16.9259 11.833 16.6239 11.833 16.2956H7.26804C6.4141 16.2825 5.71426 16.9982 5.71426 17.878V32.6903C5.71426 33.5701 6.4141 34.2792 7.26804 34.2792H30.626C31.4863 34.2792 32.1798 33.5636 32.1798 32.6903V30.4908H22.7351C19.9229 30.4908 17.6372 28.1534 17.6372 25.2842Z" fill="url(#paint0_linear_5478_78022)"/>
<path d="M18.6 25.284C18.6 27.6149 20.4555 29.5058 22.7284 29.5058H34.2854V21.0557H22.7348C20.4555 21.0557 18.6 22.9532 18.6 25.284ZM25.2389 25.284C25.2389 26.676 24.1538 27.8118 22.8119 27.8118C21.4764 27.8118 20.3849 26.676 20.3849 25.284C20.3849 23.8921 21.47 22.7562 22.8119 22.7562C24.1474 22.7562 25.2389 23.8921 25.2389 25.284Z" fill="url(#paint1_linear_5478_78022)"/>
<path d="M12.7896 17.2015C12.7832 17.4248 12.7832 17.6218 12.7832 17.7925C12.7832 18.0617 12.5713 18.2783 12.3081 18.2849L10.5938 18.3046L14.7415 23.4521L18.7222 18.2127L16.9887 18.2389C16.8667 18.2324 16.7383 18.1864 16.642 18.0945C16.5521 18.0026 16.5007 17.8778 16.5007 17.7465V17.6086C16.5264 12.7237 14.9598 10.2418 13.6436 9.0206C12.4558 7.91756 10.9084 7.28724 9.02719 7.13623C12.963 9.51304 12.841 14.9495 12.7896 17.2015Z" fill="url(#paint2_linear_5478_78022)"/>
</g>
<defs>
<linearGradient id="paint0_linear_5478_78022" x1="32.1004" y1="16.2891" x2="14.156" y2="38.1996" gradientUnits="userSpaceOnUse">
<stop stop-color="#08FFFF"/>
<stop offset="1" stop-color="#007AFF"/>
</linearGradient>
<linearGradient id="paint1_linear_5478_78022" x1="34.2384" y1="21.0557" x2="26.3861" y2="33.1535" gradientUnits="userSpaceOnUse">
<stop stop-color="#08FFFF"/>
<stop offset="1" stop-color="#007AFF"/>
</linearGradient>
<linearGradient id="paint2_linear_5478_78022" x1="18.6931" y1="7.13623" x2="5.52276" y2="13.6318" gradientUnits="userSpaceOnUse">
<stop stop-color="#08FFFF"/>
<stop offset="1" stop-color="#007AFF"/>
</linearGradient>
<clipPath id="clip0_5478_78022">
<rect width="40" height="40" fill="white"/>
</clipPath>
</defs>
</svg>
