<svg width="40" height="40" viewBox="0 0 40 40" fill="none" xmlns="http://www.w3.org/2000/svg">
<g clip-path="url(#clip0_5478_78020)">
<path fill-rule="evenodd" clip-rule="evenodd" d="M30.8399 11.6984H16.4712H16.4644V12.7977C16.4644 13.0027 16.2179 13.1331 16.0194 13.0276L9.55723 9.5618C9.35871 9.45621 9.36556 9.19535 9.56408 9.09597L16.0262 5.74201C16.2248 5.64263 16.4712 5.77307 16.4712 5.97803V7.09602H30.8399C31.1685 7.09602 31.4286 7.33825 31.4286 7.63017V11.1642C31.4286 11.4624 31.1617 11.6984 30.8399 11.6984ZM16.204 27.288H22.4198V25.9464C22.4198 25.5116 22.94 25.2446 23.3507 25.4682L25.247 26.4806C27.5197 24.9651 28.8751 22.549 28.8751 19.99C28.8751 16.9404 27.0131 14.1889 24.0148 12.8039L23.8162 12.6921H17.58V13.9094C17.58 14.3939 16.9981 14.6982 16.5395 14.4498L14.7596 13.4933C12.4869 15.0088 11.1315 17.4249 11.1315 19.9838C11.1315 23.0334 12.9935 25.7849 15.9987 27.17L16.204 27.288ZM15.7317 21.226V20.5242H16.8338V19.5615H15.7317V18.841H16.8338V18.754C16.8338 17.8162 17.1898 17.0646 17.9017 16.4994C18.6137 15.9404 19.5515 15.6609 20.7152 15.6609C21.0096 15.6609 21.3108 15.6734 21.6051 15.7044C21.8995 15.7355 22.2144 15.7789 22.543 15.8348L22.3992 16.7541C22.1254 16.692 21.8516 16.6423 21.5641 16.605C21.2766 16.5677 20.9959 16.5491 20.7152 16.5491C19.9828 16.5491 19.4009 16.7479 18.9696 17.1454C18.5384 17.5429 18.3261 18.0708 18.3261 18.7354V18.8348H22.0433V19.5553H18.3261V20.518H22.0433V21.2384H18.3809L18.3672 21.2695C18.3467 21.9217 18.552 22.4434 18.9833 22.8409C19.4146 23.2384 19.9964 23.4309 20.7358 23.4309C21.0233 23.4309 21.3039 23.4123 21.5915 23.3813C21.8721 23.3502 22.1459 23.3005 22.4061 23.2322L22.5498 24.139C22.2692 24.1949 21.9748 24.2384 21.6599 24.2694C21.3519 24.3005 21.0438 24.3129 20.7358 24.3129C19.572 24.3129 18.6342 24.0334 17.9154 23.4744C17.1966 22.9154 16.8407 22.1701 16.8407 21.226H15.7317ZM23.522 28.2885H9.16013C8.83155 28.2885 8.57142 28.5245 8.57142 28.8226V32.2076C8.57142 32.5803 8.90685 32.8846 9.31758 32.8846H23.522V34.0213C23.522 34.22 23.7616 34.3442 23.9533 34.2449L30.4497 30.8847C30.6413 30.7853 30.6413 30.5369 30.4565 30.4375L23.9601 26.9531C23.7684 26.8537 23.5289 26.978 23.5289 27.1767V28.2885H23.522Z" fill="url(#paint0_linear_5478_78020)"/>
</g>
<defs>
<linearGradient id="paint0_linear_5478_78020" x1="31.3601" y1="5.70801" x2="4.56858" y2="23.4974" gradientUnits="userSpaceOnUse">
<stop stop-color="#08FFFF"/>
<stop offset="1" stop-color="#007AFF"/>
</linearGradient>
<clipPath id="clip0_5478_78020">
<rect width="40" height="40" fill="white"/>
</clipPath>
</defs>
</svg>
