<svg width="40" height="40" viewBox="0 0 40 40" fill="none" xmlns="http://www.w3.org/2000/svg">
<path fill-rule="evenodd" clip-rule="evenodd" d="M26.4978 5.51195C26.786 5.37931 27.125 5.4265 27.3659 5.63279L36.2228 13.215C36.402 13.3683 36.5056 13.5919 36.5069 13.8278C36.5082 14.0636 36.407 14.2883 36.2295 14.4436L27.3726 22.1948C27.1327 22.4047 26.7922 22.455 26.5019 22.3233C26.2115 22.1915 26.0251 21.9022 26.0251 21.5833V18.1125H15.6151C15.1663 18.1125 14.8026 17.7487 14.8026 17.3V10.5334C14.8026 10.0846 15.1663 9.72085 15.6151 9.72085H26.0251V6.25001C26.0251 5.9328 26.2097 5.64459 26.4978 5.51195ZM27.6501 8.01514V10.5334C27.6501 10.9821 27.2863 11.3459 26.8376 11.3459H16.4276V16.4875H26.8376C27.2863 16.4875 27.6501 16.8513 27.6501 17.3V19.7926L34.453 13.839L27.6501 8.01514ZM12.9427 18.9268C13.233 19.0586 13.4194 19.3479 13.4194 19.6667V23.1396H23.8294C24.2781 23.1396 24.6419 23.5033 24.6419 23.9521V30.7146C24.6419 31.1634 24.2781 31.5271 23.8294 31.5271H13.4194V35C13.4194 35.3173 13.2347 35.6055 12.9465 35.7381C12.6583 35.8707 12.3193 35.8235 12.0784 35.6171L3.22147 28.0313C3.04236 27.8779 2.93874 27.6543 2.93751 27.4184C2.93628 27.1826 3.03756 26.9579 3.21505 26.8027L12.0719 19.0551C12.3119 18.8452 12.6524 18.7951 12.9427 18.9268ZM4.99147 27.4077L11.7944 33.2343V30.7146C11.7944 30.2659 12.1582 29.9021 12.6069 29.9021H23.0169V24.7646H12.6069C12.1582 24.7646 11.7944 24.4008 11.7944 23.9521V21.4569L4.99147 27.4077Z" fill="url(#paint0_linear_5494_43357)"/>
<defs>
<linearGradient id="paint0_linear_5494_43357" x1="36.4063" y1="5.4375" x2="5.61728" y2="33.6799" gradientUnits="userSpaceOnUse">
<stop stop-color="#08FFFF"/>
<stop offset="1" stop-color="#007AFF"/>
</linearGradient>
</defs>
</svg>
