<svg width="40" height="40" viewBox="0 0 40 40" fill="none" xmlns="http://www.w3.org/2000/svg">
<g clip-path="url(#clip0_5478_78024)">
<path d="M12.8571 6.63282V33.3621C12.8571 33.8659 13.2922 34.2794 13.8301 34.2794H26.1699C26.7078 34.2794 27.1429 33.8659 27.1429 33.3546V6.63282C27.135 6.12154 26.6999 5.70801 26.1699 5.70801H23.8522C23.8285 6.58019 23.077 7.28695 22.1516 7.28695H17.8484C16.923 7.28695 16.1715 6.58019 16.1478 5.70801H13.8301C13.2922 5.70801 12.8571 6.12154 12.8571 6.63282ZM17.5874 22.3847H16.1636V25.7306H15.2065V22.3847H13.7985V21.7155H17.5874V22.3847ZM21.7086 33.7907H18.2914C18.0699 33.7907 17.8959 33.6253 17.8959 33.4148C17.8959 33.2042 18.0699 33.0388 18.2914 33.0388H21.7086C21.9301 33.0388 22.1041 33.2042 22.1041 33.4148C22.1041 33.6253 21.9222 33.7907 21.7086 33.7907ZM17.9434 23.8358V23.6403C17.9434 23.2418 18.0225 22.896 18.1886 22.5952C18.3547 22.2945 18.5841 22.0614 18.8847 21.9035C19.1853 21.7456 19.5333 21.6629 19.9209 21.6629C20.3085 21.6629 20.6486 21.7456 20.9571 21.9035C21.2577 22.0614 21.495 22.2945 21.6532 22.5952C21.8193 22.896 21.8984 23.2418 21.8984 23.6403V23.8208C21.8984 24.2193 21.8193 24.5651 21.6532 24.8584C21.495 25.1591 21.2577 25.3847 20.9571 25.5501C20.6565 25.7155 20.3085 25.7907 19.9209 25.7907C19.5333 25.7907 19.1932 25.708 18.8926 25.5501C18.592 25.3922 18.3547 25.1591 18.1886 24.8659C18.0225 24.5727 17.9434 24.2193 17.9434 23.8358ZM25.371 21.8809C25.632 21.9937 25.8377 22.1516 25.9801 22.3546C26.1225 22.5576 26.1936 22.7907 26.1936 23.0464C26.1936 23.4373 26.0354 23.7531 25.7269 23.9787C25.4185 24.2042 24.9834 24.317 24.4297 24.317H23.5912V25.7306H22.6341V21.7155H24.4455C24.8015 21.7155 25.102 21.7682 25.371 21.8809ZM16.1952 16.4148L19.8893 12.1366C19.9605 12.0464 20.0791 12.0012 20.1898 12.0012C20.3085 12.0012 20.4192 12.0539 20.4904 12.1366L24.2636 16.4148C24.3664 16.5276 24.3822 16.6855 24.3189 16.8133C24.2557 16.9486 24.1133 17.0313 23.963 17.0313H22.2702V20.3697C22.2702 20.5802 22.0962 20.7456 21.8747 20.7456H18.5841C18.3626 20.7456 18.1886 20.5802 18.1886 20.3697V17.0313H16.4958C16.3455 17.0313 16.2031 16.9486 16.1399 16.8133C16.0766 16.6855 16.0924 16.5276 16.1952 16.4148Z" fill="url(#paint0_linear_5478_78024)"/>
</g>
<defs>
<linearGradient id="paint0_linear_5478_78024" x1="27.1" y1="5.70801" x2="6.51768" y2="14.2497" gradientUnits="userSpaceOnUse">
<stop stop-color="#08FFFF"/>
<stop offset="1" stop-color="#007AFF"/>
</linearGradient>
<clipPath id="clip0_5478_78024">
<rect width="40" height="40" fill="white"/>
</clipPath>
</defs>
</svg>
