<svg width="40" height="40" viewBox="0 0 40 40" fill="none" xmlns="http://www.w3.org/2000/svg">
<g clip-path="url(#clip0_5478_78019)">
<path fill-rule="evenodd" clip-rule="evenodd" d="M10.7775 6.46024C9.97421 6.60992 9.35632 6.94683 8.74808 7.56666C7.95964 8.37014 7.63986 9.15104 7.6393 10.274C7.63891 11.0125 7.72489 11.4182 8.0062 12.0062C8.47174 12.9792 9.43878 13.7808 10.4836 14.0597C10.9921 14.1954 11.9019 14.1822 12.4415 14.0314C13.742 13.6678 14.791 12.577 15.1248 11.2412C15.2361 10.7958 15.2485 9.86349 15.1489 9.42064C15.0278 8.88165 14.6325 8.12221 14.2542 7.70161C13.5258 6.8917 12.6522 6.47406 11.6002 6.43282C11.2931 6.42081 10.9229 6.43316 10.7775 6.46024ZM27.916 6.4603C26.484 6.72712 25.2509 7.8852 24.8853 9.30686C24.7588 9.7984 24.7558 10.7495 24.8791 11.2412C25.2145 12.5783 26.2624 13.6678 27.5627 14.0314C28.1024 14.1822 29.0122 14.1954 29.5206 14.0597C30.5655 13.7808 31.5325 12.9792 31.9981 12.0062C32.2794 11.4182 32.3654 11.0125 32.365 10.274C32.3644 9.15104 32.0446 8.37014 31.2562 7.56666C30.5141 6.81041 29.7682 6.47452 28.7391 6.43333C28.432 6.42104 28.0617 6.43316 27.916 6.4603ZM19.3627 10.3383C18.0632 10.4656 16.9722 11.0057 15.9677 12.0192C15.2418 12.7516 14.8009 13.5021 14.4908 14.533C14.3542 14.9872 14.3428 15.1043 14.3405 16.0769C14.3383 17.0048 14.3533 17.1867 14.4672 17.613C14.8773 19.1477 15.9367 20.505 17.3278 21.2779C18.9047 22.154 21.0996 22.154 22.6765 21.2779C24.0676 20.505 25.127 19.1477 25.5371 17.613C25.651 17.1867 25.666 17.0048 25.6638 16.0769C25.6615 15.1043 25.6501 14.9872 25.5134 14.533C25.2034 13.5021 24.7625 12.7516 24.0365 12.0192C22.9983 10.9717 21.9503 10.4672 20.5325 10.3324C20.1947 10.3004 19.9058 10.2775 19.8905 10.2818C19.8751 10.286 19.6376 10.3114 19.3627 10.3383ZM7.07819 14.2887C6.32413 14.6869 5.93714 15.7891 5.76162 18.0385C5.66643 19.2576 5.71461 20.07 5.908 20.5092C6.19232 21.1549 6.89898 21.6634 7.77189 21.8505C8.06018 21.9124 8.51735 21.9368 9.3863 21.9368H10.5985L10.9598 21.5619C11.7832 20.7075 12.7842 20.2137 14.0162 20.0542L14.5341 19.9872L14.4432 19.8457C13.9749 19.1175 13.6384 18.2873 13.4689 17.4423C13.3702 16.95 13.3524 16.6944 13.3679 15.9887L13.3866 15.1324L12.8842 15.268C12.1886 15.4558 11.1512 15.5013 10.5229 15.3715C9.8658 15.2359 9.19649 14.9874 8.354 14.5664C7.57789 14.1784 7.37184 14.1336 7.07819 14.2887ZM31.6672 14.5602C30.9007 14.9513 29.9616 15.292 29.3561 15.3985C28.795 15.4972 27.7437 15.4357 27.1201 15.2677L26.6176 15.1324L26.6364 15.9887C26.6519 16.6944 26.6341 16.95 26.5354 17.4423C26.3659 18.2873 26.0293 19.1175 25.5611 19.8457L25.4702 19.9872L25.9881 20.0542C27.2201 20.2137 28.2211 20.7075 29.0445 21.5619L29.4058 21.9368H30.618C31.4869 21.9368 31.9441 21.9124 32.2324 21.8505C33.1072 21.663 33.8118 21.1551 34.0977 20.5059C34.2285 20.209 34.2546 20.0603 34.2792 19.4693C34.3096 18.742 34.2305 17.5213 34.0992 16.6911C33.9355 15.6549 33.6278 14.8826 33.2348 14.5207C32.7696 14.0925 32.5739 14.0974 31.6672 14.5602ZM13.7946 21.059C11.7616 21.4338 10.4399 23.1512 9.84352 26.1929C9.62317 27.317 9.56199 27.9603 9.55049 29.2758C9.54273 30.1628 9.5602 30.465 9.63763 30.7834C9.96517 32.1301 10.9851 33.1438 12.3378 33.4672C12.747 33.565 13.1975 33.5711 20.0021 33.5711C26.8068 33.5711 27.2573 33.565 27.6665 33.4672C28.9018 33.1719 29.8839 32.2857 30.2668 31.1209C30.4607 30.531 30.5042 29.9211 30.4432 28.6444C30.254 24.6787 29.0624 22.1267 27.0088 21.2889C26.5729 21.1111 25.7032 20.948 25.3849 20.9843C25.2299 21.002 24.9798 21.125 24.6033 21.3688C24.2988 21.5659 23.84 21.863 23.5838 22.029C23.3275 22.1951 22.9758 22.3859 22.8022 22.4532C21.4648 22.9715 21.1494 23.0375 20.0021 23.0396C18.9717 23.0414 18.5331 22.9604 17.5531 22.5871C16.8781 22.3299 16.8211 22.2992 15.9268 21.7086C14.6881 20.8907 14.6954 20.8929 13.7946 21.059Z" fill="url(#paint0_linear_5478_78019)"/>
</g>
<defs>
<linearGradient id="paint0_linear_5478_78019" x1="34.2001" y1="6.42822" x2="6.83454" y2="30.337" gradientUnits="userSpaceOnUse">
<stop stop-color="#08FFFF"/>
<stop offset="1" stop-color="#007AFF"/>
</linearGradient>
<clipPath id="clip0_5478_78019">
<rect width="40" height="40" fill="white"/>
</clipPath>
</defs>
</svg>
