<svg width="40" height="40" viewBox="0 0 40 40" fill="none" xmlns="http://www.w3.org/2000/svg">
<g clip-path="url(#clip0_5478_78029)">
<path d="M5.71429 17.5186V23.08C5.71429 24.097 6.50933 24.9209 7.49069 24.9209H18.0683C18.0062 24.4961 17.969 24.0584 17.969 23.6142C17.969 21.2712 18.8385 19.1342 20.2485 17.5186H5.71429V17.5186Z" fill="url(#paint0_linear_5478_78029)"/>
<path d="M26.7515 15.8066C22.5962 15.8066 19.2111 19.3083 19.2111 23.6145C19.2111 27.9207 22.59 31.4224 26.7515 31.4224C30.913 31.4224 34.2857 27.9207 34.2857 23.6145C34.2857 19.3083 30.9068 15.8066 26.7515 15.8066ZM31.708 24.2646H27.3912V28.7382H26.149V24.2646H21.8322V22.9773H26.149V18.5037H27.3912V22.9773H31.708V24.2646Z" fill="url(#paint1_linear_5478_78029)"/>
<path d="M26.7516 14.5193C28.1863 14.5193 29.5342 14.8862 30.7329 15.517V11.1851H5.71429V16.2315H21.6335C23.0808 15.1566 24.8385 14.5193 26.7516 14.5193Z" fill="url(#paint2_linear_5478_78029)"/>
<path d="M28.9501 8.56543H7.49051C6.68306 8.56543 6.00604 9.13187 5.79486 9.89785H30.652C30.4346 9.13187 29.7576 8.56543 28.9501 8.56543Z" fill="url(#paint3_linear_5478_78029)"/>
</g>
<defs>
<linearGradient id="paint0_linear_5478_78029" x1="20.2049" y1="17.5186" x2="13.4904" y2="28.4609" gradientUnits="userSpaceOnUse">
<stop stop-color="#08FFFF"/>
<stop offset="1" stop-color="#007AFF"/>
</linearGradient>
<linearGradient id="paint1_linear_5478_78029" x1="34.2405" y1="15.8066" x2="18.7351" y2="28.23" gradientUnits="userSpaceOnUse">
<stop stop-color="#08FFFF"/>
<stop offset="1" stop-color="#007AFF"/>
</linearGradient>
<linearGradient id="paint2_linear_5478_78029" x1="30.6579" y1="11.1851" x2="28.3016" y2="20.8811" gradientUnits="userSpaceOnUse">
<stop stop-color="#08FFFF"/>
<stop offset="1" stop-color="#007AFF"/>
</linearGradient>
<linearGradient id="paint3_linear_5478_78029" x1="30.5775" y1="8.56543" x2="30.4031" y2="11.2654" gradientUnits="userSpaceOnUse">
<stop stop-color="#08FFFF"/>
<stop offset="1" stop-color="#007AFF"/>
</linearGradient>
<clipPath id="clip0_5478_78029">
<rect width="40" height="40" fill="white"/>
</clipPath>
</defs>
</svg>
