<svg width="40" height="40" viewBox="0 0 40 40" fill="none" xmlns="http://www.w3.org/2000/svg">
<g clip-path="url(#clip0_5478_78027)">
<path fill-rule="evenodd" clip-rule="evenodd" d="M27.3923 13.2061V16.4223C29.6187 16.4223 31.4245 18.264 31.4286 20.542V30.1559C31.4286 32.43 29.6269 34.2794 27.3965 34.2794H12.6036C10.3773 34.2794 8.57147 32.4339 8.57147 30.1559V20.542C8.57147 18.2717 10.3732 16.4223 12.6036 16.4223V13.2061C12.6036 13.2061 12.3398 5.70801 19.9794 5.70801C27.615 5.70801 27.3923 13.2061 27.3923 13.2061ZM16.174 16.4223H16.1823H23.8096V12.8586C23.7972 12.1211 23.5787 9.2833 19.9918 9.2833C16.4049 9.2833 16.1864 12.1057 16.174 12.8586V16.4223ZM22.1436 29.5345V26.6272C23.2857 26.0326 24.3246 25.0712 24.3288 23.8125C24.337 21.9245 22.6301 20.3955 20.5192 20.3955C18.4124 20.3955 16.7015 21.9245 16.7015 23.8125C16.7015 25.0712 17.7445 26.0364 18.8783 26.6272V29.5345C18.8783 30.3801 19.6081 31.0635 20.511 31.0635C21.4139 31.0635 22.1436 30.3801 22.1436 29.5345Z" fill="url(#paint0_linear_5478_78027)"/>
</g>
<defs>
<linearGradient id="paint0_linear_5478_78027" x1="31.3601" y1="5.70801" x2="4.56882" y2="23.4974" gradientUnits="userSpaceOnUse">
<stop stop-color="#08FFFF"/>
<stop offset="1" stop-color="#007AFF"/>
</linearGradient>
<clipPath id="clip0_5478_78027">
<rect width="40" height="40" fill="white"/>
</clipPath>
</defs>
</svg>
