<svg width="40" height="40" viewBox="0 0 40 40" fill="none" xmlns="http://www.w3.org/2000/svg">
<g clip-path="url(#clip0_5478_78025)">
<path d="M11.9218 17.8369H14.227V16.8369H5.72052V22.7553H14.1816L11.4023 18.9253C11.253 18.7213 11.227 18.4424 11.3374 18.2111C11.4478 17.9866 11.6751 17.8369 11.9218 17.8369Z" fill="url(#paint0_linear_5478_78025)"/>
<path d="M15.8182 22.7553H15.8767V22.8301L19.8767 28.3403L26.7403 19.1975H25.1234C24.7663 19.1975 24.4741 18.8913 24.4741 18.5172V7.13623H15.526V18.5172C15.526 18.8913 15.2338 19.1975 14.8767 19.1975H13.2338L15.8182 22.7553Z" fill="url(#paint1_linear_5478_78025)"/>
<path d="M28.6626 18.2242C28.773 18.4555 28.7405 18.7344 28.5912 18.9453L25.7275 22.7616H34.1561V16.8433H25.773V17.8433H28.0782C28.3249 17.8365 28.5522 17.9861 28.6626 18.2242Z" fill="url(#paint2_linear_5478_78025)"/>
<path d="M14.2272 13.9048H7.08439C6.33115 13.9048 5.71426 14.551 5.71426 15.3402V15.4762H14.2272V13.9048Z" fill="url(#paint3_linear_5478_78025)"/>
<path d="M32.9157 13.9048H25.7729V15.4762H34.2858V15.3402C34.2858 14.551 33.669 13.9048 32.9157 13.9048Z" fill="url(#paint4_linear_5478_78025)"/>
<path d="M20.3766 29.8781C20.2532 30.0414 20.0649 30.1366 19.8636 30.1366C19.8636 30.1366 19.8636 30.1366 19.8571 30.1366C19.6558 30.1366 19.4675 30.0346 19.3441 29.8713L15.1688 24.123H5.71426V31.4155C5.71426 32.2046 6.33115 32.8509 7.08439 32.8509H32.9156C33.6688 32.8509 34.2857 32.2046 34.2857 31.4155V24.1162H24.7013L20.3766 29.8781Z" fill="url(#paint5_linear_5478_78025)"/>
</g>
<defs>
<linearGradient id="paint0_linear_5478_78025" x1="14.2015" y1="16.8369" x2="8.27263" y2="23.9098" gradientUnits="userSpaceOnUse">
<stop stop-color="#08FFFF"/>
<stop offset="1" stop-color="#007AFF"/>
</linearGradient>
<linearGradient id="paint1_linear_5478_78025" x1="26.6998" y1="7.13623" x2="8.87183" y2="16.5617" gradientUnits="userSpaceOnUse">
<stop stop-color="#08FFFF"/>
<stop offset="1" stop-color="#007AFF"/>
</linearGradient>
<linearGradient id="paint2_linear_5478_78025" x1="34.1308" y1="16.8433" x2="28.1927" y2="23.8624" gradientUnits="userSpaceOnUse">
<stop stop-color="#08FFFF"/>
<stop offset="1" stop-color="#007AFF"/>
</linearGradient>
<linearGradient id="paint3_linear_5478_78025" x1="14.2017" y1="13.9048" x2="13.5241" y2="16.9517" gradientUnits="userSpaceOnUse">
<stop stop-color="#08FFFF"/>
<stop offset="1" stop-color="#007AFF"/>
</linearGradient>
<linearGradient id="paint4_linear_5478_78025" x1="34.2603" y1="13.9048" x2="33.5827" y2="16.9517" gradientUnits="userSpaceOnUse">
<stop stop-color="#08FFFF"/>
<stop offset="1" stop-color="#007AFF"/>
</linearGradient>
<linearGradient id="paint5_linear_5478_78025" x1="34.2" y1="24.1162" x2="28.4356" y2="39.7665" gradientUnits="userSpaceOnUse">
<stop stop-color="#08FFFF"/>
<stop offset="1" stop-color="#007AFF"/>
</linearGradient>
<clipPath id="clip0_5478_78025">
<rect width="40" height="40" fill="white"/>
</clipPath>
</defs>
</svg>
