<svg width="40" height="40" viewBox="0 0 40 40" fill="none" xmlns="http://www.w3.org/2000/svg">
<path d="M7.14258 18.4935L9.31981 22.0225L11.2956 18.3792L7.14258 18.4935Z" fill="url(#paint0_linear_5483_55644)"/>
<path d="M34.0333 21.5064L31.8561 17.9774L29.8768 21.6207L34.0333 21.5064Z" fill="url(#paint1_linear_5483_55644)"/>
<path fill-rule="evenodd" clip-rule="evenodd" d="M8.16986 18.961C8.70252 12.5823 14.0572 7.57153 20.5873 7.57153C24.6485 7.57153 28.2429 9.52094 30.5162 12.5138C30.8502 12.9536 30.7645 13.581 30.3247 13.915C29.8849 14.2491 29.2576 14.1634 28.9235 13.7236C27.009 11.2031 23.9919 9.57153 20.5873 9.57153C15.1027 9.57153 10.6095 13.7798 10.1629 19.1274C10.117 19.6778 9.63354 20.0867 9.08317 20.0407C8.5328 19.9948 8.1239 19.5114 8.16986 18.961ZM20.5735 14.3648C21.1257 14.3571 21.5796 14.7986 21.5872 15.3509L21.6757 21.7576L24.7635 20.5232C25.2763 20.3182 25.8583 20.5678 26.0633 21.0806C26.2683 21.5934 26.0187 22.1754 25.5059 22.3804L21.067 24.1548C20.7612 24.277 20.4148 24.2408 20.1409 24.0581C19.8669 23.8753 19.7005 23.5693 19.6959 23.24L19.5874 15.3785C19.5798 14.8262 20.0212 14.3724 20.5735 14.3648ZM32.0914 19.9595C32.6417 20.0054 33.0506 20.4888 33.0047 21.0392C32.472 27.4179 27.1173 32.4287 20.5872 32.4287C16.5261 32.4287 12.9316 30.4793 10.6583 27.4864C10.3243 27.0466 10.41 26.4192 10.8498 26.0852C11.2896 25.7511 11.9169 25.8368 12.251 26.2766C14.1655 28.7971 17.1826 30.4287 20.5872 30.4287C26.0718 30.4287 30.565 26.2204 31.0116 20.8728C31.0576 20.3224 31.541 19.9135 32.0914 19.9595Z" fill="url(#paint2_linear_5483_55644)"/>
<defs>
<linearGradient id="paint0_linear_5483_55644" x1="33.9527" y1="7.57153" x2="8.80876" y2="30.1484" gradientUnits="userSpaceOnUse">
<stop stop-color="#08FFFF"/>
<stop offset="1" stop-color="#007AFF"/>
</linearGradient>
<linearGradient id="paint1_linear_5483_55644" x1="33.9527" y1="7.57153" x2="8.80876" y2="30.1484" gradientUnits="userSpaceOnUse">
<stop stop-color="#08FFFF"/>
<stop offset="1" stop-color="#007AFF"/>
</linearGradient>
<linearGradient id="paint2_linear_5483_55644" x1="33.9527" y1="7.57153" x2="8.80876" y2="30.1484" gradientUnits="userSpaceOnUse">
<stop stop-color="#08FFFF"/>
<stop offset="1" stop-color="#007AFF"/>
</linearGradient>
</defs>
</svg>
