<svg width="40" height="40" viewBox="0 0 40 40" fill="none" xmlns="http://www.w3.org/2000/svg">
<g clip-path="url(#clip0_5478_78031)">
<path d="M15.5733 18.2275C10.9215 18.2275 7.14282 21.8314 7.14282 26.2535C7.14282 30.6756 10.9215 34.2795 15.5733 34.2795C20.2182 34.2795 24.0038 30.6821 24.0038 26.2535C24.0038 21.8249 20.2182 18.2275 15.5733 18.2275ZM20.7161 27.2273L15.7029 29.1429C15.621 29.1754 15.5324 29.1884 15.4505 29.1884C15.3209 29.1884 15.1845 29.1494 15.0754 29.078C14.8912 28.9611 14.7753 28.7598 14.7684 28.552L14.6457 22.1689C14.6388 21.8117 14.939 21.513 15.3141 21.5065C15.3209 21.5065 15.3209 21.5065 15.3277 21.5065C15.6961 21.5065 16.003 21.7923 16.0098 22.1429L16.1121 27.5845L20.2114 26.0195C20.5593 25.8832 20.9549 26.0455 21.0981 26.3832C21.2345 26.7143 21.064 27.0975 20.7161 27.2273Z" fill="url(#paint0_linear_5478_78031)"/>
<path d="M32.7889 10.7664H27.8848V5.70801H15.5187C14.8298 5.70801 14.2705 6.24048 14.2705 6.89632V17.0197C14.7002 16.9677 15.1299 16.9288 15.5733 16.9288C19.4202 16.9288 22.7419 19.0522 24.3448 22.1301H29.5149C29.8901 22.1301 30.197 22.4223 30.197 22.7794C30.197 23.1366 29.8901 23.4288 29.5149 23.4288H24.9041C25.2042 24.3184 25.3679 25.2665 25.3679 26.2535C25.3679 27.5911 25.0678 28.8639 24.5289 30.0132H31.6089C32.2978 30.0132 32.8571 29.4807 32.8571 28.8249V10.8379L32.7889 10.7664ZM29.133 15.6041H18.1311C17.7559 15.6041 17.449 15.3119 17.449 14.9548C17.449 14.5976 17.7559 14.3054 18.1311 14.3054H29.1398C29.5149 14.3054 29.8219 14.5976 29.8219 14.9548C29.815 15.3119 29.5149 15.6041 29.133 15.6041Z" fill="url(#paint1_linear_5478_78031)"/>
<path d="M32.8503 9.74679L29.1671 5.75977C29.1126 5.70783 29.1671 9.74679 29.1671 9.74679H32.8503Z" fill="url(#paint2_linear_5478_78031)"/>
</g>
<defs>
<linearGradient id="paint0_linear_5478_78031" x1="23.9532" y1="18.2275" x2="7.77422" y2="32.3329" gradientUnits="userSpaceOnUse">
<stop stop-color="#08FFFF"/>
<stop offset="1" stop-color="#007AFF"/>
</linearGradient>
<linearGradient id="paint1_linear_5478_78031" x1="32.8014" y1="5.70801" x2="10.4251" y2="19.9106" gradientUnits="userSpaceOnUse">
<stop stop-color="#08FFFF"/>
<stop offset="1" stop-color="#007AFF"/>
</linearGradient>
<linearGradient id="paint2_linear_5478_78031" x1="32.8392" y1="5.75928" x2="28.9148" y2="8.78778" gradientUnits="userSpaceOnUse">
<stop stop-color="#08FFFF"/>
<stop offset="1" stop-color="#007AFF"/>
</linearGradient>
<clipPath id="clip0_5478_78031">
<rect width="40" height="40" fill="white"/>
</clipPath>
</defs>
</svg>
