<svg width="40" height="40" viewBox="0 0 40 40" fill="none" xmlns="http://www.w3.org/2000/svg">
<g clip-path="url(#clip0_5478_78021)">
<path d="M14.7143 18.1383L8.73293 23.7638V18.7997C8.73293 17.8668 8.05591 17.1079 7.22361 17.1079C6.39131 17.1079 5.71429 17.8598 5.71429 18.7928V29.7305C5.71429 30.6634 6.39131 31.4223 7.22361 31.4223C8.05591 31.4223 8.73293 30.6634 8.73293 29.7305V24.4949L14.7143 29.9951V26.681H22.8013V21.4454H14.7143V18.1383Z" fill="url(#paint0_linear_5478_78021)"/>
<path d="M32.7762 8.56543C31.9439 8.56543 31.2669 9.32432 31.2669 10.2573V15.2631L25.2855 9.76294V13.077H17.1986V18.3126H25.2855V21.6266L31.2669 16.0011V21.2019C31.2669 22.1349 31.9439 22.8938 32.7762 22.8938C33.6085 22.8938 34.2855 22.1279 34.2855 21.195V10.2573C34.2855 9.32432 33.6085 8.56543 32.7762 8.56543Z" fill="url(#paint1_linear_5478_78021)"/>
</g>
<defs>
<linearGradient id="paint0_linear_5478_78021" x1="22.75" y1="17.1079" x2="8.18704" y2="31.5364" gradientUnits="userSpaceOnUse">
<stop stop-color="#08FFFF"/>
<stop offset="1" stop-color="#007AFF"/>
</linearGradient>
<linearGradient id="paint1_linear_5478_78021" x1="34.2343" y1="8.56543" x2="19.6573" y2="22.9938" gradientUnits="userSpaceOnUse">
<stop stop-color="#08FFFF"/>
<stop offset="1" stop-color="#007AFF"/>
</linearGradient>
<clipPath id="clip0_5478_78021">
<rect width="40" height="40" fill="white"/>
</clipPath>
</defs>
</svg>
