<svg width="40" height="40" viewBox="0 0 40 40" fill="none" xmlns="http://www.w3.org/2000/svg">
<g clip-path="url(#clip0_5478_78034)">
<path d="M25.5315 8.96372H28.6517C28.8077 8.96372 29.0418 8.886 29.1198 8.73056C29.1978 8.4974 29.2758 8.34196 29.1978 8.18652L28.1057 5.3886C28.0277 5.23316 27.9497 5.15544 27.7937 5.07772C27.6376 5 27.4816 5 27.3256 5.07772C27.0136 5.23316 26.8576 5.54404 27.0136 5.7772L27.4816 6.86528L27.0136 6.63212C24.7514 5.54404 22.4112 5 19.993 5C16.0927 5 12.2703 6.47668 9.3841 9.35232C4.23567 14.4041 3.53361 22.3316 7.74596 28.1606C7.90197 28.3937 8.29201 28.4715 8.52603 28.316C8.76005 28.1606 8.83805 27.772 8.68204 27.5388C4.78171 22.1761 5.48377 14.8704 10.2422 10.1295C14.3765 6.08808 20.6951 5 25.9995 7.48704L26.7796 7.87564H25.5315C25.2194 7.87564 24.9854 8.1088 24.9854 8.41968C24.9854 8.73056 25.2194 8.96372 25.5315 8.96372Z" fill="url(#paint0_linear_5478_78034)"/>
<path d="M12.8164 33.1347C15.0006 34.3005 17.4968 35 19.993 35C23.9713 35 27.7936 33.4456 30.6019 30.7254C35.7503 25.6736 36.4524 17.7461 32.318 11.9171C32.162 11.684 31.772 11.6063 31.5379 11.7617C31.3039 11.9171 31.2259 12.3057 31.3819 12.5389C35.2043 17.9016 34.5802 25.2073 29.8218 29.8705C25.4534 34.1451 18.8229 35.0777 13.4404 32.2021L12.7384 31.8135H14.1425C14.2985 31.8135 14.3765 31.8135 14.5325 31.7358C14.6885 31.658 14.7665 31.4249 14.7665 31.2694C14.7665 31.114 14.6885 30.9586 14.6105 30.8808C14.5325 30.8031 14.3765 30.7254 14.2205 30.7254H11.1782C11.0222 30.7254 10.7882 30.8031 10.7102 30.9586C10.5542 31.0363 10.4762 31.2694 10.5542 31.4249L11.7243 34.2228C11.8023 34.5337 12.1923 34.6114 12.4263 34.5337C12.5824 34.456 12.6604 34.3782 12.7384 34.2228C12.8164 34.0674 12.8164 33.9119 12.7384 33.7565L12.3483 32.7461L12.8164 33.1347Z" fill="url(#paint1_linear_5478_78034)"/>
<path d="M16.2485 24.2746H23.8152C24.1272 24.2746 24.3612 24.0414 24.3612 23.7305V18.2901H26.9354C27.1694 18.2901 27.3255 18.1347 27.4815 17.9792C27.5595 17.7461 27.5595 17.5129 27.4035 17.3575L20.4609 9.81862C20.2269 9.58546 19.8368 9.58546 19.6028 9.81862L12.6602 17.4352C12.5042 17.5906 12.5042 17.8238 12.5822 18.057C12.6602 18.2901 12.8942 18.3678 13.1283 18.3678H16.4045C16.7166 18.3678 16.9506 18.1347 16.9506 17.8238C16.9506 17.5129 16.7166 17.2798 16.4045 17.2798H14.3764L20.0708 11.0621L25.7653 17.202H23.8932C23.5811 17.202 23.3471 17.4352 23.3471 17.7461V23.1865H16.8726V20.7772C16.8726 20.4663 16.6386 20.2331 16.3265 20.2331C16.0145 20.2331 15.7805 20.4663 15.7805 20.7772V23.7305C15.7025 24.0414 15.9365 24.2746 16.2485 24.2746Z" fill="url(#paint2_linear_5478_78034)"/>
<path d="M23.8156 26.2954H16.249C15.9369 26.2954 15.7029 26.5285 15.7029 26.8394C15.7029 27.1503 15.9369 27.3834 16.249 27.3834H23.8156C24.1276 27.3834 24.3616 27.1503 24.3616 26.8394C24.3616 26.5285 24.1276 26.2954 23.8156 26.2954Z" fill="url(#paint3_linear_5478_78034)"/>
<path d="M22.3334 29.2487H17.809C17.497 29.2487 17.263 29.4818 17.263 29.7927C17.263 30.1036 17.497 30.3368 17.809 30.3368H22.3334C22.6454 30.3368 22.8794 30.1036 22.8794 29.7927C22.8794 29.4818 22.6454 29.2487 22.3334 29.2487Z" fill="url(#paint4_linear_5478_78034)"/>
<path fill-rule="evenodd" clip-rule="evenodd" d="M9.14971 9.11513C12.101 6.17517 16.0087 4.6665 19.993 4.6665C22.3431 4.6665 24.6202 5.16992 26.8214 6.17384L26.7176 5.93267C26.5839 5.71041 26.5974 5.46152 26.6916 5.25804C26.7871 5.05196 26.965 4.88478 27.177 4.7792C27.4266 4.65485 27.6927 4.65485 27.9423 4.7792C28.0403 4.82805 28.1321 4.88591 28.2142 4.96772C28.2963 5.04955 28.3545 5.14105 28.4036 5.23893L28.4105 5.25279L29.5036 8.05321C29.5805 8.21755 29.5709 8.37466 29.5426 8.5018C29.5242 8.58414 29.4899 8.68152 29.4615 8.76235C29.452 8.78916 29.4432 8.81415 29.4359 8.83616L29.4283 8.85868L29.4177 8.87991C29.3303 9.05394 29.1743 9.15498 29.0499 9.21006C28.9212 9.26705 28.7779 9.29689 28.6517 9.29689H25.5314C25.0365 9.29689 24.6521 8.91565 24.6521 8.41952C24.6521 7.98779 24.9432 7.64305 25.3449 7.56083C20.277 5.43366 14.3787 6.55285 10.4763 10.3666C5.83024 14.9966 5.15231 22.1188 8.9516 27.3426L8.95927 27.3531C9.09771 27.5601 9.11942 27.8111 9.07709 28.022C9.03475 28.2329 8.9177 28.4559 8.71044 28.5935C8.50335 28.7311 8.25244 28.7528 8.04158 28.7108C7.8327 28.6691 7.61133 28.5546 7.47273 28.3515C3.16651 22.3883 3.88684 14.2801 9.14971 9.11513ZM19.993 5.33317C16.177 5.33317 12.4405 6.77756 9.61935 9.5883L9.61755 9.59009C4.58562 14.5276 3.90125 22.2711 8.01611 27.9652L8.02316 27.9749C8.04084 28.0014 8.09015 28.0407 8.17186 28.057C8.25354 28.0732 8.31465 28.0561 8.34158 28.0382C8.36834 28.0204 8.4073 27.9713 8.42346 27.8908C8.43898 27.8135 8.42389 27.7552 8.40712 27.7274C4.41203 22.2269 5.13932 14.7429 10.0069 9.89323L10.0091 9.89099C14.243 5.75223 20.7109 4.63911 26.141 7.18507L26.1482 7.18843L26.9282 7.57712L26.7795 8.20881H25.5314C25.4024 8.20881 25.3187 8.29389 25.3187 8.41952C25.3187 8.54515 25.4024 8.63023 25.5314 8.63023H28.6517C28.6815 8.63023 28.7332 8.62122 28.78 8.60048C28.7983 8.59238 28.8112 8.58451 28.8194 8.5785C28.827 8.55644 28.8348 8.53417 28.842 8.5139C28.8492 8.49339 28.8556 8.47493 28.8605 8.46082C28.8766 8.41372 28.8863 8.38175 28.8919 8.35667C28.895 8.34289 28.8962 8.33426 28.8966 8.32938L28.8929 8.32201L27.8012 5.52522C27.7758 5.47658 27.7578 5.45412 27.7436 5.43999C27.7282 5.42464 27.703 5.40479 27.645 5.37592C27.5826 5.34483 27.5366 5.34483 27.4742 5.37592C27.3741 5.42578 27.3181 5.49175 27.2965 5.53826C27.2791 5.57582 27.2871 5.58678 27.2901 5.59094C27.2903 5.59121 27.2899 5.59072 27.2901 5.59094L27.3077 5.61715L28.1473 7.56916L26.867 6.93137C24.6488 5.86478 22.3585 5.33317 19.993 5.33317ZM19.3675 9.58233C19.7316 9.21957 20.332 9.21957 20.6961 9.58233L20.7063 9.59245L27.6444 17.1269C27.9301 17.4172 27.8891 17.8112 27.7976 18.0848L27.7726 18.1596L27.7167 18.2152C27.7102 18.2217 27.7035 18.2284 27.6965 18.2355C27.5555 18.3769 27.31 18.6233 26.9354 18.6233H24.6945V23.7304C24.6945 24.2265 24.3101 24.6077 23.8151 24.6077H16.2485C16.0112 24.6077 15.78 24.5186 15.6209 24.3424C15.4657 24.1706 15.3998 23.9378 15.4471 23.6942V20.777C15.4471 20.2809 15.8315 19.8996 16.3265 19.8996C16.8215 19.8996 17.2059 20.2809 17.2059 20.777V22.853H23.0138V17.7459C23.0138 17.2498 23.3982 16.8685 23.8932 16.8685H25.0015L20.0724 11.5538L15.1336 16.9463H16.4045C16.8995 16.9463 17.2839 17.3275 17.2839 17.8236C17.2839 18.3198 16.8995 18.701 16.4045 18.701H13.1282C12.849 18.701 12.4144 18.6059 12.2661 18.1625C12.1746 17.8891 12.1336 17.4956 12.4185 17.2053L19.3675 9.58233ZM19.8426 10.0502L12.8957 17.6714C12.8817 17.6854 12.8692 17.705 12.8654 17.7471C12.8611 17.7944 12.8689 17.8632 12.8983 17.951C12.9057 17.9731 12.9164 17.9869 12.9453 18.0013C12.9822 18.0197 13.0438 18.0343 13.1282 18.0343H16.4045C16.5336 18.0343 16.6172 17.9493 16.6172 17.8236C16.6172 17.698 16.5336 17.6129 16.4045 17.6129H13.6191L20.0693 10.5701L26.5291 17.5352H23.8932C23.7641 17.5352 23.6804 17.6203 23.6804 17.7459V23.5196H16.5392V20.777C16.5392 20.6514 16.4556 20.5663 16.3265 20.5663C16.1974 20.5663 16.1138 20.6514 16.1138 20.777V23.7715L16.1038 23.8115C16.0965 23.8406 16.0985 23.8587 16.1008 23.8682C16.1032 23.8779 16.1076 23.8867 16.1156 23.8955C16.1319 23.9136 16.1738 23.9411 16.2485 23.9411H23.8151C23.9442 23.9411 24.0279 23.856 24.0279 23.7304V17.9566H26.9354C26.9716 17.9566 27.0059 17.9466 27.0533 17.9151C27.0939 17.8881 27.1342 17.8525 27.1855 17.8028C27.1982 17.7479 27.2013 17.7032 27.1983 17.6693C27.1944 17.6273 27.1822 17.6074 27.1682 17.5934L27.158 17.5833L20.2215 10.0506C20.1185 9.95251 19.9458 9.95236 19.8426 10.0502ZM32.5921 11.7273C32.4536 11.5232 32.2317 11.4083 32.0224 11.3666C31.8115 11.3246 31.5606 11.3463 31.3535 11.4839C31.1462 11.6215 31.0292 11.8445 30.9868 12.0554C30.9445 12.2663 30.9664 12.5172 31.1049 12.7241L31.1105 12.7322C34.8375 17.9611 34.2298 25.0838 29.5885 29.6322C25.4503 33.6815 19.232 34.6587 14.0656 32.1466L14.1533 32.1467C14.2227 32.1467 14.3059 32.1467 14.3921 32.1324C14.4911 32.116 14.5815 32.0836 14.6811 32.034C14.8554 31.9472 14.9569 31.7918 15.0124 31.6674C15.0698 31.5388 15.0999 31.3955 15.0999 31.2693C15.0999 31.0192 14.9822 30.7805 14.8458 30.6445C14.7094 30.5086 14.4703 30.3919 14.2205 30.3919H11.1782C11.052 30.3919 10.9087 30.4217 10.78 30.4787C10.6794 30.5233 10.5582 30.5978 10.4693 30.7168C10.3478 30.8071 10.2691 30.9347 10.2283 31.0567C10.1792 31.2035 10.1689 31.3903 10.2502 31.5618L11.4084 34.3313C11.4883 34.6064 11.7013 34.7653 11.905 34.8378C12.1086 34.9103 12.341 34.9131 12.5314 34.8499L12.5538 34.8424L12.575 34.8319C12.673 34.783 12.7648 34.7252 12.8469 34.6434C12.929 34.5615 12.9872 34.47 13.0363 34.3721C13.1578 34.1301 13.1614 33.8722 13.0471 33.6291C15.1796 34.6972 17.583 35.3332 19.993 35.3332C24.0575 35.3332 27.9631 33.7454 30.8338 30.9647L30.8353 30.9632C36.0992 25.7981 36.8191 17.6901 32.5921 11.7273ZM13.0031 32.8563C15.1377 33.9899 17.569 34.6665 19.993 34.6665C23.8847 34.6665 27.6234 33.1458 30.3691 30.4866C35.4005 25.549 36.0851 17.8044 32.0461 12.1098L32.0409 12.1024C32.0232 12.076 31.9738 12.0367 31.8921 12.0204C31.8104 12.0042 31.7493 12.0213 31.7224 12.0392C31.6956 12.057 31.6566 12.1061 31.6405 12.1866C31.6248 12.2647 31.6404 12.3234 31.6573 12.3508C35.5706 17.8468 34.9289 25.3321 30.0551 30.1084C25.5824 34.4851 18.7936 35.4398 13.2833 32.4959L13.279 32.4936L11.4478 31.48H14.1425C14.227 31.48 14.2566 31.4791 14.2829 31.4748C14.3009 31.4718 14.3275 31.4653 14.3839 31.4372C14.3732 31.4426 14.3723 31.4462 14.3785 31.4388C14.3847 31.4314 14.394 31.4174 14.4036 31.3958C14.4243 31.3494 14.4332 31.2984 14.4332 31.2693C14.4332 31.2454 14.4266 31.2126 14.4116 31.1775C14.4044 31.1609 14.3964 31.1463 14.3889 31.1349C14.3852 31.1292 14.3819 31.1248 14.3794 31.1216L14.3763 31.118C14.3756 31.1172 14.3763 31.118 14.3763 31.118C14.3763 31.118 14.3751 31.1167 14.3748 31.1164C14.3746 31.1162 14.3751 31.1167 14.3748 31.1164L14.3704 31.1127C14.3685 31.1111 14.3662 31.1094 14.3634 31.1075C14.3615 31.1061 14.3593 31.1046 14.357 31.1031C14.3454 31.0956 14.3307 31.0876 14.3138 31.0804C14.2784 31.0652 14.2451 31.0586 14.2205 31.0586H11.1782C11.1484 31.0586 11.0967 31.0676 11.0499 31.0883C11.0281 31.098 11.0139 31.1073 11.0063 31.1136C11.0056 31.1142 11.005 31.1147 11.0045 31.1152L10.9583 31.2072L10.8681 31.2521C10.8659 31.2555 10.8629 31.2609 10.8605 31.2682C10.8582 31.2752 10.8573 31.2811 10.857 31.285L10.8624 31.2958L12.0415 34.1172L12.0476 34.1415C12.0523 34.1603 12.066 34.1875 12.1285 34.2098C12.1891 34.2313 12.2574 34.2319 12.3028 34.2221C12.3434 34.2001 12.3633 34.184 12.3763 34.1711C12.3917 34.1558 12.4115 34.1307 12.4404 34.0731C12.4712 34.0118 12.4712 33.9672 12.4404 33.9058L12.4332 33.8914L11.5763 31.6718L13.0031 32.8563ZM15.3696 26.8392C15.3696 26.3431 15.754 25.9619 16.2489 25.9619H23.8156C24.3106 25.9619 24.695 26.3431 24.695 26.8392C24.695 27.3354 24.3106 27.7166 23.8156 27.7166H16.2489C15.754 27.7166 15.3696 27.3354 15.3696 26.8392ZM16.2489 26.6285C16.1199 26.6285 16.0362 26.7136 16.0362 26.8392C16.0362 26.9649 16.1199 27.05 16.2489 27.05H23.8156C23.9447 27.05 24.0283 26.9649 24.0283 26.8392C24.0283 26.7136 23.9447 26.6285 23.8156 26.6285H16.2489ZM16.9296 29.7926C16.9296 29.2964 17.314 28.9152 17.809 28.9152H22.3334C22.8283 28.9152 23.2128 29.2964 23.2128 29.7926C23.2128 30.2887 22.8283 30.6699 22.3334 30.6699H17.809C17.314 30.6699 16.9296 30.2887 16.9296 29.7926ZM17.809 29.5818C17.6799 29.5818 17.5963 29.6669 17.5963 29.7926C17.5963 29.9182 17.6799 30.0033 17.809 30.0033H22.3334C22.4625 30.0033 22.5461 29.9182 22.5461 29.7926C22.5461 29.6669 22.4625 29.5818 22.3334 29.5818H17.809Z" fill="url(#paint5_linear_5478_78034)"/>
</g>
<defs>
<linearGradient id="paint0_linear_5478_78034" x1="34.91" y1="5" x2="4.91001" y2="29.8999" gradientUnits="userSpaceOnUse">
<stop stop-color="#08FFFF"/>
<stop offset="1" stop-color="#007AFF"/>
</linearGradient>
<linearGradient id="paint1_linear_5478_78034" x1="34.91" y1="5" x2="4.91001" y2="29.8999" gradientUnits="userSpaceOnUse">
<stop stop-color="#08FFFF"/>
<stop offset="1" stop-color="#007AFF"/>
</linearGradient>
<linearGradient id="paint2_linear_5478_78034" x1="34.91" y1="5" x2="4.91001" y2="29.8999" gradientUnits="userSpaceOnUse">
<stop stop-color="#08FFFF"/>
<stop offset="1" stop-color="#007AFF"/>
</linearGradient>
<linearGradient id="paint3_linear_5478_78034" x1="34.91" y1="5" x2="4.91001" y2="29.8999" gradientUnits="userSpaceOnUse">
<stop stop-color="#08FFFF"/>
<stop offset="1" stop-color="#007AFF"/>
</linearGradient>
<linearGradient id="paint4_linear_5478_78034" x1="34.91" y1="5" x2="4.91001" y2="29.8999" gradientUnits="userSpaceOnUse">
<stop stop-color="#08FFFF"/>
<stop offset="1" stop-color="#007AFF"/>
</linearGradient>
<linearGradient id="paint5_linear_5478_78034" x1="35.2413" y1="4.6665" x2="4.57466" y2="30.1198" gradientUnits="userSpaceOnUse">
<stop stop-color="#08FFFF"/>
<stop offset="1" stop-color="#007AFF"/>
</linearGradient>
<clipPath id="clip0_5478_78034">
<rect width="40" height="40" fill="white"/>
</clipPath>
</defs>
</svg>
